%TF.GenerationSoftware,KiCad,Pcbnew,7.0.1*%
%TF.CreationDate,2023-05-12T19:52:32+02:00*%
%TF.ProjectId,UFO-FPGA,55464f2d-4650-4474-912e-6b696361645f,V0.8*%
%TF.SameCoordinates,Original*%
%TF.FileFunction,Copper,L2,Inr*%
%TF.FilePolarity,Positive*%
%FSLAX46Y46*%
G04 Gerber Fmt 4.6, Leading zero omitted, Abs format (unit mm)*
G04 Created by KiCad (PCBNEW 7.0.1) date 2023-05-12 19:52:32*
%MOMM*%
%LPD*%
G01*
G04 APERTURE LIST*
%TA.AperFunction,ComponentPad*%
%ADD10R,1.700000X1.700000*%
%TD*%
%TA.AperFunction,ComponentPad*%
%ADD11O,1.700000X1.700000*%
%TD*%
%TA.AperFunction,ComponentPad*%
%ADD12O,1.900000X1.050000*%
%TD*%
%TA.AperFunction,ComponentPad*%
%ADD13R,1.350000X1.350000*%
%TD*%
%TA.AperFunction,ComponentPad*%
%ADD14O,1.350000X1.350000*%
%TD*%
%TA.AperFunction,ViaPad*%
%ADD15C,0.800000*%
%TD*%
%TA.AperFunction,ViaPad*%
%ADD16C,0.650000*%
%TD*%
%TA.AperFunction,ViaPad*%
%ADD17C,1.400000*%
%TD*%
%TA.AperFunction,ViaPad*%
%ADD18C,0.900000*%
%TD*%
%TA.AperFunction,ViaPad*%
%ADD19C,1.000000*%
%TD*%
%TA.AperFunction,ViaPad*%
%ADD20C,0.600000*%
%TD*%
G04 APERTURE END LIST*
D10*
%TO.N,PIN-22*%
%TO.C,J2*%
X161710000Y-99500000D03*
D11*
%TO.N,PIN-21*%
X164250000Y-99500000D03*
%TO.N,PIN-20*%
X166790000Y-99500000D03*
%TO.N,PIN-19*%
X169330000Y-99500000D03*
%TO.N,PIN-18*%
X171870000Y-99500000D03*
%TO.N,AIN1*%
X174410000Y-99500000D03*
%TD*%
D10*
%TO.N,PIN-1*%
%TO.C,J3*%
X130304000Y-50680000D03*
D11*
%TO.N,PIN-2*%
X132844000Y-50680000D03*
%TO.N,PIN-3*%
X135384000Y-50680000D03*
%TO.N,GND*%
X137924000Y-50680000D03*
%TO.N,PIN-4*%
X140464000Y-50680000D03*
%TO.N,PIN-5*%
X143004000Y-50680000D03*
%TO.N,PIN-6*%
X145544000Y-50680000D03*
%TO.N,PIN-7*%
X148084000Y-50680000D03*
%TO.N,PIN-8*%
X150624000Y-50680000D03*
%TO.N,PIN-9*%
X153164000Y-50680000D03*
%TD*%
D12*
%TO.N,unconnected-(J5-Shield-Pad6)*%
%TO.C,J5*%
X112970000Y-67505000D03*
X112970000Y-74655000D03*
%TD*%
D10*
%TO.N,PIN-10*%
%TO.C,J4*%
X157228000Y-50680000D03*
D11*
%TO.N,PIN-11*%
X159768000Y-50680000D03*
%TO.N,PIN-12*%
X162308000Y-50680000D03*
%TO.N,PIN-13*%
X164848000Y-50680000D03*
%TO.N,PIN-14*%
X167388000Y-50680000D03*
%TO.N,PIN-15*%
X169928000Y-50680000D03*
%TO.N,PIN-16*%
X172468000Y-50680000D03*
%TO.N,PIN-17*%
X175008000Y-50680000D03*
%TD*%
D13*
%TO.N,Flash-MISO*%
%TO.C,J6*%
X151610000Y-81380000D03*
D14*
%TO.N,/BANK 4 - SPI Programming/ICE_MISO*%
X153610000Y-81380000D03*
%TO.N,/BANK 4 - SPI Programming/ICE_MOSI*%
X151610000Y-83380000D03*
%TO.N,Flash-MOSI*%
X153610000Y-83380000D03*
%TD*%
D13*
%TO.N,ICE_SS_B*%
%TO.C,JP1*%
X151910000Y-90030000D03*
D14*
%TO.N,/BANK 4 - SPI Programming/N25-CS*%
X149910000Y-90030000D03*
%TD*%
D10*
%TO.N,PIN-25*%
%TO.C,J1*%
X139960000Y-99500000D03*
D11*
%TO.N,PIN-24*%
X142500000Y-99500000D03*
%TO.N,PIN-23*%
X145040000Y-99500000D03*
%TO.N,+3V3*%
X147580000Y-99500000D03*
%TO.N,+5V*%
X150120000Y-99500000D03*
%TO.N,GND*%
X152660000Y-99500000D03*
X155200000Y-99500000D03*
%TO.N,unconnected-(J1-Pin_8-Pad8)*%
X157740000Y-99500000D03*
%TD*%
D15*
%TO.N,+3V3*%
X127825000Y-77325000D03*
X173228000Y-69977000D03*
X143530000Y-62140000D03*
X150000000Y-93700000D03*
X120890000Y-90140000D03*
X121650000Y-88050000D03*
X132560000Y-67410000D03*
X176090000Y-81530000D03*
X139900000Y-62350000D03*
X133600000Y-69925000D03*
X151900000Y-74900000D03*
X131600000Y-54750000D03*
X175895000Y-76962000D03*
D16*
X148800000Y-82150000D03*
D15*
X116025000Y-54825000D03*
X156362400Y-90220800D03*
X161670000Y-63980000D03*
X166410000Y-94210000D03*
X128525000Y-89850000D03*
X115950000Y-62150000D03*
X136900000Y-66500000D03*
X171750000Y-87975000D03*
X125250000Y-78550000D03*
X139500000Y-73850000D03*
X123250000Y-82950000D03*
X152200000Y-79260000D03*
X144740000Y-56260000D03*
X127350000Y-58975000D03*
X122325000Y-54850000D03*
X120940000Y-89030000D03*
X136960000Y-54950000D03*
X134400000Y-73975000D03*
%TO.N,+5V*%
X139200000Y-95100000D03*
D17*
X119410000Y-74150000D03*
D15*
X139250000Y-93550000D03*
X117520000Y-95050000D03*
X120310000Y-95110000D03*
X118940000Y-95030000D03*
X139200000Y-96700000D03*
%TO.N,GND*%
X164680000Y-57020000D03*
X123990000Y-64970000D03*
X127130000Y-86260000D03*
D16*
X155850000Y-93825000D03*
X146950000Y-55650000D03*
D15*
X116025000Y-56625000D03*
X134480000Y-86640000D03*
X158100000Y-96660000D03*
X134225000Y-82850000D03*
X166570000Y-73520000D03*
X121700000Y-79525000D03*
D16*
X139475000Y-52725000D03*
D15*
X136940000Y-56660000D03*
X122325000Y-56600000D03*
X179175000Y-76400000D03*
X117440000Y-76540000D03*
D16*
X165925000Y-97750000D03*
D15*
X158440000Y-86390000D03*
X132875000Y-95825000D03*
X129410000Y-67765500D03*
X143275000Y-76225000D03*
X165250000Y-70940000D03*
X147025000Y-92225000D03*
X123920000Y-66880000D03*
X124640000Y-93540000D03*
X140300000Y-54380000D03*
X176480000Y-54480000D03*
X161800000Y-53930000D03*
X160980000Y-96660000D03*
X150900000Y-72600000D03*
X173925000Y-95150000D03*
X139550000Y-66400000D03*
X155300000Y-91625000D03*
X119680000Y-64630000D03*
X122770000Y-71560000D03*
X113170000Y-89660000D03*
X139050000Y-92000000D03*
X117400000Y-72200000D03*
X171470000Y-55350000D03*
X157580000Y-81410000D03*
X154240000Y-78410000D03*
X144010000Y-71650000D03*
D16*
X148900000Y-55100000D03*
D15*
X131800000Y-53310000D03*
X149075000Y-78250000D03*
X152650000Y-94350000D03*
X176040000Y-78420000D03*
X169140000Y-52960000D03*
X153630000Y-53040000D03*
X114560000Y-64060000D03*
X152010000Y-87470000D03*
X127300000Y-56675000D03*
D16*
X146750000Y-63850000D03*
D15*
X147050000Y-94175000D03*
X125320000Y-53230000D03*
X134970000Y-84650000D03*
X136900000Y-73850000D03*
X116000000Y-60175000D03*
X113170000Y-97980000D03*
X123260000Y-75530000D03*
D16*
X151250000Y-86075000D03*
D15*
X153100000Y-62250000D03*
X131000000Y-64950000D03*
D16*
X152775000Y-80150000D03*
D18*
X142550000Y-91440000D03*
D16*
X144650000Y-82280000D03*
D15*
X166260000Y-70940000D03*
X173510000Y-55500000D03*
X149290000Y-53080000D03*
X126750000Y-81625000D03*
X166870000Y-53360000D03*
X144650000Y-90225000D03*
X173950000Y-73410000D03*
X169510000Y-70260000D03*
X132710000Y-72910000D03*
X167480000Y-59730000D03*
X116340000Y-91100000D03*
X117150000Y-73150000D03*
D19*
X120830000Y-92470000D03*
D15*
X173500000Y-66325000D03*
X151920000Y-76660000D03*
X167280000Y-70940000D03*
X128840000Y-83930000D03*
X163380000Y-64050000D03*
D16*
X127425000Y-61950000D03*
D15*
X167975000Y-93950000D03*
X151430000Y-70250000D03*
X159860000Y-61740000D03*
D16*
X153300000Y-85225000D03*
D15*
X163420000Y-91670000D03*
X172010000Y-97400000D03*
X156340000Y-58620000D03*
X140900000Y-72425000D03*
X176600000Y-99325000D03*
X143750000Y-84630000D03*
X112960000Y-77430000D03*
X154960000Y-66410000D03*
D16*
X138100000Y-81900000D03*
D15*
X153130000Y-63770000D03*
D16*
X151075000Y-66975000D03*
X151100000Y-68525000D03*
X155025000Y-81400000D03*
D15*
X126740000Y-75680000D03*
X173250000Y-88280000D03*
X175750000Y-96575000D03*
X175770000Y-72410000D03*
D16*
X123625000Y-58825000D03*
D15*
X123180000Y-73490000D03*
X173920000Y-53020000D03*
D16*
X146950000Y-53125000D03*
X156750000Y-94950000D03*
D15*
X132900000Y-93710000D03*
X145810000Y-62050000D03*
X132860000Y-97950000D03*
D16*
X134325000Y-80400000D03*
D15*
X160070000Y-82690000D03*
X132650000Y-70675000D03*
X170560000Y-57010000D03*
X133540000Y-90200000D03*
X143625000Y-94950000D03*
X124400000Y-92450000D03*
X153060000Y-60610000D03*
X176570000Y-61520000D03*
X115650000Y-52500000D03*
X142820000Y-64050000D03*
X147250000Y-82375000D03*
D16*
%TO.N,PIN-1*%
X164770000Y-69940000D03*
%TO.N,PIN-3*%
X165769290Y-69919396D03*
%TO.N,PIN-5*%
X166766810Y-69982322D03*
%TO.N,PIN-10*%
X169730000Y-64290000D03*
D15*
%TO.N,/POWER/PG1V2*%
X142630000Y-90410000D03*
X135350000Y-98130000D03*
%TO.N,/BANK 4 - SPI Programming/VCCPLL1*%
X176140000Y-79950000D03*
%TO.N,+1V2*%
X165420000Y-80020000D03*
X157852000Y-71891000D03*
X162179000Y-70739000D03*
X168700000Y-78050000D03*
X139030000Y-88920000D03*
X137680000Y-87950000D03*
X161460000Y-80110000D03*
X137760000Y-86980000D03*
X167740000Y-86720000D03*
X173430000Y-86670000D03*
D20*
%TO.N,ICE_CLK*%
X154460000Y-73290000D03*
D16*
X157700000Y-77750000D03*
D15*
%TO.N,/BANK 4 - SPI Programming/VCCPLL0*%
X157784800Y-78841600D03*
D16*
%TO.N,ICE_CDONE*%
X143375000Y-78275000D03*
X158000000Y-84100000D03*
%TO.N,ICE_SS_B*%
X135725000Y-81200000D03*
%TO.N,ICE_CREST*%
X157925000Y-85150000D03*
X138025000Y-80400000D03*
D15*
%TO.N,+1V8*%
X140350000Y-65400000D03*
X133450000Y-65400000D03*
X136875000Y-71150000D03*
X140375000Y-70875000D03*
%TO.N,/BANK 4 - SPI Programming/N25-CS*%
X150723600Y-78994000D03*
D16*
X150490000Y-87730000D03*
%TO.N,PIN-7*%
X167766283Y-69990049D03*
%TD*%
%TA.AperFunction,Conductor*%
%TO.N,GND*%
G36*
X174839774Y-48546133D02*
G01*
X174863781Y-48562174D01*
X177125826Y-50824218D01*
X177141867Y-50848225D01*
X177147500Y-50876544D01*
X177147500Y-60903432D01*
X177155562Y-60928246D01*
X177158272Y-60939534D01*
X177162354Y-60965304D01*
X177174198Y-60988549D01*
X177178641Y-60999277D01*
X177186703Y-61024089D01*
X177202038Y-61045197D01*
X177208103Y-61055094D01*
X177219949Y-61078341D01*
X177238794Y-61097186D01*
X177238797Y-61097190D01*
X177242515Y-61100908D01*
X177242516Y-61100909D01*
X178460479Y-62318872D01*
X179665826Y-63524218D01*
X179681867Y-63548225D01*
X179687500Y-63576544D01*
X179687500Y-97473456D01*
X179681867Y-97501775D01*
X179665826Y-97525781D01*
X178401818Y-98789789D01*
X177242516Y-99949091D01*
X177219950Y-99971657D01*
X177215476Y-99980436D01*
X177208103Y-99994907D01*
X177202043Y-100004796D01*
X177186701Y-100025912D01*
X177178640Y-100050722D01*
X177174199Y-100061445D01*
X177162353Y-100084695D01*
X177158270Y-100110468D01*
X177155561Y-100121752D01*
X177147500Y-100146566D01*
X177147500Y-100713149D01*
X177146867Y-100722809D01*
X177136453Y-100801905D01*
X177131453Y-100820563D01*
X177102795Y-100889750D01*
X177093136Y-100906481D01*
X177047549Y-100965890D01*
X177033890Y-100979549D01*
X176974481Y-101025136D01*
X176957750Y-101034795D01*
X176888563Y-101063453D01*
X176869905Y-101068453D01*
X176806330Y-101076823D01*
X176790807Y-101078867D01*
X176781149Y-101079500D01*
X112274851Y-101079500D01*
X112265192Y-101078867D01*
X112245705Y-101076301D01*
X112186094Y-101068453D01*
X112167436Y-101063453D01*
X112098249Y-101034795D01*
X112081523Y-101025138D01*
X112022108Y-100979548D01*
X112008450Y-100965890D01*
X111962859Y-100906474D01*
X111953204Y-100889750D01*
X111924546Y-100820563D01*
X111919546Y-100801904D01*
X111912852Y-100751060D01*
X111909133Y-100722808D01*
X111908500Y-100713149D01*
X111908500Y-100649423D01*
X111908482Y-100649304D01*
X111908471Y-100602205D01*
X111908093Y-99007768D01*
X123623788Y-99007768D01*
X123653413Y-99277015D01*
X123711708Y-99499999D01*
X123721928Y-99539088D01*
X123827870Y-99788390D01*
X123968982Y-100019610D01*
X124142255Y-100227820D01*
X124343998Y-100408582D01*
X124569910Y-100558044D01*
X124786349Y-100659506D01*
X124815178Y-100673021D01*
X125074568Y-100751060D01*
X125342558Y-100790500D01*
X125342561Y-100790500D01*
X125545625Y-100790500D01*
X125545631Y-100790500D01*
X125748156Y-100775677D01*
X126012553Y-100716780D01*
X126265558Y-100620014D01*
X126501777Y-100487441D01*
X126621668Y-100394865D01*
X138809500Y-100394865D01*
X138812414Y-100419989D01*
X138812415Y-100419991D01*
X138857794Y-100522765D01*
X138937235Y-100602206D01*
X139040009Y-100647585D01*
X139065135Y-100650500D01*
X140854864Y-100650499D01*
X140854865Y-100650499D01*
X140865168Y-100649304D01*
X140879991Y-100647585D01*
X140982765Y-100602206D01*
X141062206Y-100522765D01*
X141107585Y-100419991D01*
X141110500Y-100394865D01*
X141110499Y-99499999D01*
X141344570Y-99499999D01*
X141364243Y-99712309D01*
X141422594Y-99917389D01*
X141517632Y-100108254D01*
X141607926Y-100227820D01*
X141646128Y-100278407D01*
X141803698Y-100422052D01*
X141984981Y-100534298D01*
X142183802Y-100611321D01*
X142393390Y-100650500D01*
X142606609Y-100650500D01*
X142606610Y-100650500D01*
X142816198Y-100611321D01*
X143015019Y-100534298D01*
X143196302Y-100422052D01*
X143353872Y-100278407D01*
X143468300Y-100126881D01*
X143482367Y-100108254D01*
X143577405Y-99917389D01*
X143635756Y-99712309D01*
X143655429Y-99500000D01*
X143884570Y-99500000D01*
X143904243Y-99712309D01*
X143962594Y-99917389D01*
X144057632Y-100108254D01*
X144147926Y-100227820D01*
X144186128Y-100278407D01*
X144343698Y-100422052D01*
X144524981Y-100534298D01*
X144723802Y-100611321D01*
X144933390Y-100650500D01*
X145146609Y-100650500D01*
X145146610Y-100650500D01*
X145356198Y-100611321D01*
X145555019Y-100534298D01*
X145736302Y-100422052D01*
X145893872Y-100278407D01*
X146008300Y-100126881D01*
X146022367Y-100108254D01*
X146117405Y-99917389D01*
X146175756Y-99712309D01*
X146195429Y-99500000D01*
X146424570Y-99500000D01*
X146444243Y-99712309D01*
X146502594Y-99917389D01*
X146597632Y-100108254D01*
X146687926Y-100227820D01*
X146726128Y-100278407D01*
X146883698Y-100422052D01*
X147064981Y-100534298D01*
X147263802Y-100611321D01*
X147473390Y-100650500D01*
X147686609Y-100650500D01*
X147686610Y-100650500D01*
X147896198Y-100611321D01*
X148095019Y-100534298D01*
X148276302Y-100422052D01*
X148433872Y-100278407D01*
X148548300Y-100126881D01*
X148562367Y-100108254D01*
X148657405Y-99917389D01*
X148715756Y-99712309D01*
X148735429Y-99500000D01*
X148964570Y-99500000D01*
X148984243Y-99712309D01*
X149042594Y-99917389D01*
X149137632Y-100108254D01*
X149227926Y-100227820D01*
X149266128Y-100278407D01*
X149423698Y-100422052D01*
X149604981Y-100534298D01*
X149803802Y-100611321D01*
X150013390Y-100650500D01*
X150226609Y-100650500D01*
X150226610Y-100650500D01*
X150436198Y-100611321D01*
X150635019Y-100534298D01*
X150816302Y-100422052D01*
X150973872Y-100278407D01*
X151088300Y-100126881D01*
X151102367Y-100108254D01*
X151197405Y-99917389D01*
X151252145Y-99725000D01*
X151528375Y-99725000D01*
X151583062Y-99917209D01*
X151678059Y-100107990D01*
X151806496Y-100278065D01*
X151964004Y-100421653D01*
X152145204Y-100533847D01*
X152343939Y-100610838D01*
X152434999Y-100627859D01*
X152435000Y-100627859D01*
X152435000Y-99725000D01*
X152885000Y-99725000D01*
X152885000Y-100627859D01*
X152976060Y-100610838D01*
X153174795Y-100533847D01*
X153355995Y-100421653D01*
X153513503Y-100278065D01*
X153641940Y-100107990D01*
X153736937Y-99917209D01*
X153791625Y-99725000D01*
X154068375Y-99725000D01*
X154123062Y-99917209D01*
X154218059Y-100107990D01*
X154346496Y-100278065D01*
X154504004Y-100421653D01*
X154685204Y-100533847D01*
X154883939Y-100610838D01*
X154974999Y-100627859D01*
X154975000Y-100627859D01*
X154975000Y-99725000D01*
X155425000Y-99725000D01*
X155425000Y-100627859D01*
X155516060Y-100610838D01*
X155714795Y-100533847D01*
X155895995Y-100421653D01*
X156053503Y-100278065D01*
X156181940Y-100107990D01*
X156276937Y-99917209D01*
X156331625Y-99725000D01*
X155425000Y-99725000D01*
X154975000Y-99725000D01*
X154068375Y-99725000D01*
X153791625Y-99725000D01*
X152885000Y-99725000D01*
X152435000Y-99725000D01*
X151528375Y-99725000D01*
X151252145Y-99725000D01*
X151255756Y-99712309D01*
X151275429Y-99500000D01*
X156584570Y-99500000D01*
X156604243Y-99712309D01*
X156662594Y-99917389D01*
X156757632Y-100108254D01*
X156847926Y-100227820D01*
X156886128Y-100278407D01*
X157043698Y-100422052D01*
X157224981Y-100534298D01*
X157423802Y-100611321D01*
X157633390Y-100650500D01*
X157846609Y-100650500D01*
X157846610Y-100650500D01*
X158056198Y-100611321D01*
X158255019Y-100534298D01*
X158436302Y-100422052D01*
X158466125Y-100394865D01*
X160559500Y-100394865D01*
X160562414Y-100419989D01*
X160562415Y-100419991D01*
X160607794Y-100522765D01*
X160687235Y-100602206D01*
X160790009Y-100647585D01*
X160815135Y-100650500D01*
X162604864Y-100650499D01*
X162604865Y-100650499D01*
X162615168Y-100649304D01*
X162629991Y-100647585D01*
X162732765Y-100602206D01*
X162812206Y-100522765D01*
X162857585Y-100419991D01*
X162860500Y-100394865D01*
X162860499Y-99500000D01*
X163094570Y-99500000D01*
X163114243Y-99712309D01*
X163172594Y-99917389D01*
X163267632Y-100108254D01*
X163357926Y-100227820D01*
X163396128Y-100278407D01*
X163553698Y-100422052D01*
X163734981Y-100534298D01*
X163933802Y-100611321D01*
X164143390Y-100650500D01*
X164356609Y-100650500D01*
X164356610Y-100650500D01*
X164566198Y-100611321D01*
X164765019Y-100534298D01*
X164946302Y-100422052D01*
X165103872Y-100278407D01*
X165218300Y-100126881D01*
X165232367Y-100108254D01*
X165327405Y-99917389D01*
X165385756Y-99712309D01*
X165405429Y-99500000D01*
X165634570Y-99500000D01*
X165654243Y-99712309D01*
X165712594Y-99917389D01*
X165807632Y-100108254D01*
X165897926Y-100227820D01*
X165936128Y-100278407D01*
X166093698Y-100422052D01*
X166274981Y-100534298D01*
X166473802Y-100611321D01*
X166683390Y-100650500D01*
X166896609Y-100650500D01*
X166896610Y-100650500D01*
X167106198Y-100611321D01*
X167305019Y-100534298D01*
X167486302Y-100422052D01*
X167643872Y-100278407D01*
X167758300Y-100126881D01*
X167772367Y-100108254D01*
X167867405Y-99917389D01*
X167925756Y-99712309D01*
X167945429Y-99500000D01*
X168174570Y-99500000D01*
X168194243Y-99712309D01*
X168252594Y-99917389D01*
X168347632Y-100108254D01*
X168437926Y-100227820D01*
X168476128Y-100278407D01*
X168633698Y-100422052D01*
X168814981Y-100534298D01*
X169013802Y-100611321D01*
X169223390Y-100650500D01*
X169436609Y-100650500D01*
X169436610Y-100650500D01*
X169646198Y-100611321D01*
X169845019Y-100534298D01*
X170026302Y-100422052D01*
X170183872Y-100278407D01*
X170298300Y-100126881D01*
X170312367Y-100108254D01*
X170407405Y-99917389D01*
X170465756Y-99712309D01*
X170485429Y-99500000D01*
X170714570Y-99500000D01*
X170734243Y-99712309D01*
X170792594Y-99917389D01*
X170887632Y-100108254D01*
X170977926Y-100227820D01*
X171016128Y-100278407D01*
X171173698Y-100422052D01*
X171354981Y-100534298D01*
X171553802Y-100611321D01*
X171763390Y-100650500D01*
X171976609Y-100650500D01*
X171976610Y-100650500D01*
X172186198Y-100611321D01*
X172385019Y-100534298D01*
X172566302Y-100422052D01*
X172723872Y-100278407D01*
X172838300Y-100126881D01*
X172852367Y-100108254D01*
X172947405Y-99917389D01*
X173005756Y-99712309D01*
X173025429Y-99500000D01*
X173254570Y-99500000D01*
X173274243Y-99712309D01*
X173332594Y-99917389D01*
X173427632Y-100108254D01*
X173517926Y-100227820D01*
X173556128Y-100278407D01*
X173713698Y-100422052D01*
X173894981Y-100534298D01*
X174093802Y-100611321D01*
X174303390Y-100650500D01*
X174516609Y-100650500D01*
X174516610Y-100650500D01*
X174726198Y-100611321D01*
X174925019Y-100534298D01*
X175106302Y-100422052D01*
X175263872Y-100278407D01*
X175378300Y-100126881D01*
X175392367Y-100108254D01*
X175487405Y-99917389D01*
X175545756Y-99712309D01*
X175565429Y-99500000D01*
X175545756Y-99287690D01*
X175487405Y-99082610D01*
X175392367Y-98891745D01*
X175290832Y-98757294D01*
X175263872Y-98721593D01*
X175106302Y-98577948D01*
X174925019Y-98465702D01*
X174726198Y-98388679D01*
X174516610Y-98349500D01*
X174303390Y-98349500D01*
X174198596Y-98369089D01*
X174093801Y-98388679D01*
X173894980Y-98465702D01*
X173713701Y-98577946D01*
X173713698Y-98577948D01*
X173568042Y-98710732D01*
X173556125Y-98721596D01*
X173427632Y-98891745D01*
X173332594Y-99082610D01*
X173274243Y-99287690D01*
X173254570Y-99500000D01*
X173025429Y-99500000D01*
X173005756Y-99287690D01*
X172947405Y-99082610D01*
X172852367Y-98891745D01*
X172750832Y-98757294D01*
X172723872Y-98721593D01*
X172566302Y-98577948D01*
X172385019Y-98465702D01*
X172186198Y-98388679D01*
X171976610Y-98349500D01*
X171763390Y-98349500D01*
X171658596Y-98369089D01*
X171553801Y-98388679D01*
X171354980Y-98465702D01*
X171173701Y-98577946D01*
X171173698Y-98577948D01*
X171028042Y-98710732D01*
X171016125Y-98721596D01*
X170887632Y-98891745D01*
X170792594Y-99082610D01*
X170734243Y-99287690D01*
X170714570Y-99500000D01*
X170485429Y-99500000D01*
X170465756Y-99287690D01*
X170407405Y-99082610D01*
X170312367Y-98891745D01*
X170210832Y-98757294D01*
X170183872Y-98721593D01*
X170026302Y-98577948D01*
X169845019Y-98465702D01*
X169646198Y-98388679D01*
X169436610Y-98349500D01*
X169223390Y-98349500D01*
X169118596Y-98369089D01*
X169013801Y-98388679D01*
X168814980Y-98465702D01*
X168633701Y-98577946D01*
X168633698Y-98577948D01*
X168488042Y-98710732D01*
X168476125Y-98721596D01*
X168347632Y-98891745D01*
X168252594Y-99082610D01*
X168194243Y-99287690D01*
X168174570Y-99500000D01*
X167945429Y-99500000D01*
X167925756Y-99287690D01*
X167867405Y-99082610D01*
X167772367Y-98891745D01*
X167670832Y-98757294D01*
X167643872Y-98721593D01*
X167486302Y-98577948D01*
X167305019Y-98465702D01*
X167106198Y-98388679D01*
X166896610Y-98349500D01*
X166683390Y-98349500D01*
X166578596Y-98369089D01*
X166473801Y-98388679D01*
X166274980Y-98465702D01*
X166093701Y-98577946D01*
X166093698Y-98577948D01*
X165948042Y-98710732D01*
X165936125Y-98721596D01*
X165807632Y-98891745D01*
X165712594Y-99082610D01*
X165654243Y-99287690D01*
X165634570Y-99500000D01*
X165405429Y-99500000D01*
X165385756Y-99287690D01*
X165327405Y-99082610D01*
X165232367Y-98891745D01*
X165130832Y-98757294D01*
X165103872Y-98721593D01*
X164946302Y-98577948D01*
X164765019Y-98465702D01*
X164566198Y-98388679D01*
X164356610Y-98349500D01*
X164143390Y-98349500D01*
X164038596Y-98369089D01*
X163933801Y-98388679D01*
X163734980Y-98465702D01*
X163553701Y-98577946D01*
X163553698Y-98577948D01*
X163408042Y-98710732D01*
X163396125Y-98721596D01*
X163267632Y-98891745D01*
X163172594Y-99082610D01*
X163114243Y-99287690D01*
X163094570Y-99500000D01*
X162860499Y-99500000D01*
X162860499Y-98605136D01*
X162860249Y-98602984D01*
X162857585Y-98580010D01*
X162857585Y-98580009D01*
X162812206Y-98477235D01*
X162732765Y-98397794D01*
X162687384Y-98377756D01*
X162629990Y-98352414D01*
X162604865Y-98349500D01*
X160815134Y-98349500D01*
X160790010Y-98352414D01*
X160687235Y-98397794D01*
X160607794Y-98477235D01*
X160562414Y-98580009D01*
X160559500Y-98605134D01*
X160559500Y-100394865D01*
X158466125Y-100394865D01*
X158593872Y-100278407D01*
X158708300Y-100126881D01*
X158722367Y-100108254D01*
X158817405Y-99917389D01*
X158875756Y-99712309D01*
X158895429Y-99500000D01*
X158875756Y-99287690D01*
X158817405Y-99082610D01*
X158722367Y-98891745D01*
X158620832Y-98757294D01*
X158593872Y-98721593D01*
X158436302Y-98577948D01*
X158255019Y-98465702D01*
X158056198Y-98388679D01*
X157846610Y-98349500D01*
X157633390Y-98349500D01*
X157528596Y-98369089D01*
X157423801Y-98388679D01*
X157224980Y-98465702D01*
X157043701Y-98577946D01*
X157043698Y-98577948D01*
X156898042Y-98710732D01*
X156886125Y-98721596D01*
X156757632Y-98891745D01*
X156662594Y-99082610D01*
X156604243Y-99287690D01*
X156584570Y-99500000D01*
X151275429Y-99500000D01*
X151255756Y-99287690D01*
X151252145Y-99275000D01*
X151528375Y-99275000D01*
X152435000Y-99275000D01*
X152435000Y-98372141D01*
X152434999Y-98372140D01*
X152885000Y-98372140D01*
X152885000Y-99275000D01*
X153791625Y-99275000D01*
X154068375Y-99275000D01*
X154975000Y-99275000D01*
X154975000Y-98372141D01*
X154974999Y-98372140D01*
X155425000Y-98372140D01*
X155425000Y-99275000D01*
X156331625Y-99275000D01*
X156276937Y-99082790D01*
X156181940Y-98892009D01*
X156053503Y-98721934D01*
X155895995Y-98578346D01*
X155714795Y-98466152D01*
X155516060Y-98389161D01*
X155425000Y-98372140D01*
X154974999Y-98372140D01*
X154883939Y-98389161D01*
X154685204Y-98466152D01*
X154504004Y-98578346D01*
X154346496Y-98721934D01*
X154218059Y-98892009D01*
X154123062Y-99082790D01*
X154068375Y-99275000D01*
X153791625Y-99275000D01*
X153736937Y-99082790D01*
X153641940Y-98892009D01*
X153513503Y-98721934D01*
X153355995Y-98578346D01*
X153174795Y-98466152D01*
X152976060Y-98389161D01*
X152885000Y-98372140D01*
X152434999Y-98372140D01*
X152343939Y-98389161D01*
X152145204Y-98466152D01*
X151964004Y-98578346D01*
X151806496Y-98721934D01*
X151678059Y-98892009D01*
X151583062Y-99082790D01*
X151528375Y-99275000D01*
X151252145Y-99275000D01*
X151197405Y-99082610D01*
X151102367Y-98891745D01*
X151000832Y-98757294D01*
X150973872Y-98721593D01*
X150816302Y-98577948D01*
X150635019Y-98465702D01*
X150436198Y-98388679D01*
X150226610Y-98349500D01*
X150013390Y-98349500D01*
X149908596Y-98369089D01*
X149803801Y-98388679D01*
X149604980Y-98465702D01*
X149423701Y-98577946D01*
X149423698Y-98577948D01*
X149278042Y-98710732D01*
X149266125Y-98721596D01*
X149137632Y-98891745D01*
X149042594Y-99082610D01*
X148984243Y-99287690D01*
X148964570Y-99500000D01*
X148735429Y-99500000D01*
X148715756Y-99287690D01*
X148657405Y-99082610D01*
X148562367Y-98891745D01*
X148460832Y-98757294D01*
X148433872Y-98721593D01*
X148276302Y-98577948D01*
X148095019Y-98465702D01*
X147896198Y-98388679D01*
X147686610Y-98349500D01*
X147473390Y-98349500D01*
X147368596Y-98369089D01*
X147263801Y-98388679D01*
X147064980Y-98465702D01*
X146883701Y-98577946D01*
X146883698Y-98577948D01*
X146738042Y-98710732D01*
X146726125Y-98721596D01*
X146597632Y-98891745D01*
X146502594Y-99082610D01*
X146444243Y-99287690D01*
X146424570Y-99500000D01*
X146195429Y-99500000D01*
X146175756Y-99287690D01*
X146117405Y-99082610D01*
X146022367Y-98891745D01*
X145920832Y-98757294D01*
X145893872Y-98721593D01*
X145736302Y-98577948D01*
X145555019Y-98465702D01*
X145356198Y-98388679D01*
X145146610Y-98349500D01*
X144933390Y-98349500D01*
X144828596Y-98369089D01*
X144723801Y-98388679D01*
X144524980Y-98465702D01*
X144343701Y-98577946D01*
X144343698Y-98577948D01*
X144198042Y-98710732D01*
X144186125Y-98721596D01*
X144057632Y-98891745D01*
X143962594Y-99082610D01*
X143904243Y-99287690D01*
X143884570Y-99500000D01*
X143655429Y-99500000D01*
X143635756Y-99287690D01*
X143577405Y-99082610D01*
X143482367Y-98891745D01*
X143380832Y-98757294D01*
X143353872Y-98721593D01*
X143196302Y-98577948D01*
X143015019Y-98465702D01*
X142816198Y-98388679D01*
X142606610Y-98349500D01*
X142393390Y-98349500D01*
X142288596Y-98369089D01*
X142183801Y-98388679D01*
X141984980Y-98465702D01*
X141803701Y-98577946D01*
X141803698Y-98577948D01*
X141658042Y-98710732D01*
X141646125Y-98721596D01*
X141517632Y-98891745D01*
X141422594Y-99082610D01*
X141364243Y-99287690D01*
X141344570Y-99499999D01*
X141110499Y-99499999D01*
X141110499Y-98605136D01*
X141110249Y-98602984D01*
X141107585Y-98580010D01*
X141107585Y-98580009D01*
X141062206Y-98477235D01*
X140982765Y-98397794D01*
X140937384Y-98377756D01*
X140879990Y-98352414D01*
X140854865Y-98349500D01*
X139065134Y-98349500D01*
X139040010Y-98352414D01*
X138937235Y-98397794D01*
X138857794Y-98477235D01*
X138812414Y-98580009D01*
X138809500Y-98605134D01*
X138809500Y-100394865D01*
X126621668Y-100394865D01*
X126716177Y-100321888D01*
X126904186Y-100126881D01*
X127061799Y-99906579D01*
X127185656Y-99665675D01*
X127273118Y-99409305D01*
X127322319Y-99142933D01*
X127332212Y-98872235D01*
X127302586Y-98602982D01*
X127234072Y-98340912D01*
X127144444Y-98129999D01*
X134644354Y-98129999D01*
X134664859Y-98298871D01*
X134725180Y-98457927D01*
X134725181Y-98457929D01*
X134725182Y-98457930D01*
X134821817Y-98597929D01*
X134949148Y-98710734D01*
X135099775Y-98789790D01*
X135264944Y-98830500D01*
X135435055Y-98830500D01*
X135435056Y-98830500D01*
X135600225Y-98789790D01*
X135750852Y-98710734D01*
X135878183Y-98597929D01*
X135974818Y-98457930D01*
X136035140Y-98298872D01*
X136055645Y-98130000D01*
X136035140Y-97961128D01*
X135996935Y-97860389D01*
X135974819Y-97802072D01*
X135974818Y-97802070D01*
X135878183Y-97662071D01*
X135750852Y-97549266D01*
X135600225Y-97470210D01*
X135435056Y-97429500D01*
X135264944Y-97429500D01*
X135099775Y-97470209D01*
X135099775Y-97470210D01*
X134949146Y-97549267D01*
X134821818Y-97662070D01*
X134725180Y-97802072D01*
X134664859Y-97961128D01*
X134644354Y-98129999D01*
X127144444Y-98129999D01*
X127128130Y-98091610D01*
X126987018Y-97860390D01*
X126813745Y-97652180D01*
X126612002Y-97471418D01*
X126386090Y-97321956D01*
X126298156Y-97280734D01*
X126140821Y-97206978D01*
X125881431Y-97128939D01*
X125613442Y-97089500D01*
X125613439Y-97089500D01*
X125410369Y-97089500D01*
X125207844Y-97104322D01*
X125207844Y-97104323D01*
X124943443Y-97163221D01*
X124690445Y-97259984D01*
X124454222Y-97392559D01*
X124239820Y-97558114D01*
X124051814Y-97753118D01*
X123894200Y-97973421D01*
X123770345Y-98214321D01*
X123682881Y-98470698D01*
X123633681Y-98737064D01*
X123623788Y-99007768D01*
X111908093Y-99007768D01*
X111907545Y-96699999D01*
X138494354Y-96699999D01*
X138514859Y-96868871D01*
X138575180Y-97027927D01*
X138575181Y-97027929D01*
X138575182Y-97027930D01*
X138671817Y-97167929D01*
X138799148Y-97280734D01*
X138949775Y-97359790D01*
X139114944Y-97400500D01*
X139285055Y-97400500D01*
X139285056Y-97400500D01*
X139450225Y-97359790D01*
X139600852Y-97280734D01*
X139728183Y-97167929D01*
X139824818Y-97027930D01*
X139885140Y-96868872D01*
X139905645Y-96700000D01*
X139885140Y-96531128D01*
X139824818Y-96372070D01*
X139728183Y-96232071D01*
X139600852Y-96119266D01*
X139450225Y-96040210D01*
X139285056Y-95999500D01*
X139114944Y-95999500D01*
X138949774Y-96040210D01*
X138949775Y-96040210D01*
X138799146Y-96119267D01*
X138671818Y-96232070D01*
X138575180Y-96372072D01*
X138514859Y-96531128D01*
X138494354Y-96699999D01*
X111907545Y-96699999D01*
X111907153Y-95050000D01*
X116814354Y-95050000D01*
X116834859Y-95218871D01*
X116895180Y-95377927D01*
X116895181Y-95377929D01*
X116895182Y-95377930D01*
X116991817Y-95517929D01*
X117119148Y-95630734D01*
X117269775Y-95709790D01*
X117434944Y-95750500D01*
X117605055Y-95750500D01*
X117605056Y-95750500D01*
X117770225Y-95709790D01*
X117920852Y-95630734D01*
X118048183Y-95517929D01*
X118144818Y-95377930D01*
X118164602Y-95325761D01*
X118191755Y-95291105D01*
X118233791Y-95278005D01*
X118275829Y-95291104D01*
X118302983Y-95325764D01*
X118304051Y-95328581D01*
X118315182Y-95357930D01*
X118411817Y-95497929D01*
X118539148Y-95610734D01*
X118689775Y-95689790D01*
X118854944Y-95730500D01*
X119025055Y-95730500D01*
X119025056Y-95730500D01*
X119190225Y-95689790D01*
X119340852Y-95610734D01*
X119468183Y-95497929D01*
X119542826Y-95389789D01*
X119573354Y-95364348D01*
X119612645Y-95358369D01*
X119649362Y-95373577D01*
X119672916Y-95405588D01*
X119685181Y-95437927D01*
X119685182Y-95437930D01*
X119781817Y-95577929D01*
X119909148Y-95690734D01*
X120059775Y-95769790D01*
X120224944Y-95810500D01*
X120395055Y-95810500D01*
X120395056Y-95810500D01*
X120560225Y-95769790D01*
X120710852Y-95690734D01*
X120838183Y-95577929D01*
X120934818Y-95437930D01*
X120995140Y-95278872D01*
X121015645Y-95110000D01*
X121014431Y-95099999D01*
X138494354Y-95099999D01*
X138514859Y-95268871D01*
X138575180Y-95427927D01*
X138575181Y-95427929D01*
X138575182Y-95427930D01*
X138671817Y-95567929D01*
X138799148Y-95680734D01*
X138949775Y-95759790D01*
X139114944Y-95800500D01*
X139285055Y-95800500D01*
X139285056Y-95800500D01*
X139450225Y-95759790D01*
X139600852Y-95680734D01*
X139728183Y-95567929D01*
X139824818Y-95427930D01*
X139885140Y-95268872D01*
X139905645Y-95100000D01*
X139885140Y-94931128D01*
X139861878Y-94869790D01*
X139824819Y-94772072D01*
X139824818Y-94772070D01*
X139728183Y-94632071D01*
X139600852Y-94519266D01*
X139450225Y-94440210D01*
X139285056Y-94399500D01*
X139114944Y-94399500D01*
X138949774Y-94440210D01*
X138949775Y-94440210D01*
X138799146Y-94519267D01*
X138724187Y-94585675D01*
X138671817Y-94632071D01*
X138664914Y-94642072D01*
X138575180Y-94772072D01*
X138514859Y-94931128D01*
X138494354Y-95099999D01*
X121014431Y-95099999D01*
X120995140Y-94941128D01*
X120987570Y-94921166D01*
X120934819Y-94782072D01*
X120930387Y-94775651D01*
X120838183Y-94642071D01*
X120710852Y-94529266D01*
X120560225Y-94450210D01*
X120395056Y-94409500D01*
X120224944Y-94409500D01*
X120100347Y-94440210D01*
X120059775Y-94450210D01*
X119909146Y-94529267D01*
X119781815Y-94642072D01*
X119707174Y-94750207D01*
X119676644Y-94775651D01*
X119637354Y-94781630D01*
X119600636Y-94766421D01*
X119577083Y-94734410D01*
X119564819Y-94702072D01*
X119564818Y-94702070D01*
X119468183Y-94562071D01*
X119340852Y-94449266D01*
X119190225Y-94370210D01*
X119025056Y-94329500D01*
X118854944Y-94329500D01*
X118773800Y-94349500D01*
X118689775Y-94370210D01*
X118539146Y-94449267D01*
X118411818Y-94562070D01*
X118315181Y-94702071D01*
X118295398Y-94754235D01*
X118268243Y-94788895D01*
X118226206Y-94801994D01*
X118184169Y-94788894D01*
X118157016Y-94754235D01*
X118144818Y-94722070D01*
X118048183Y-94582071D01*
X117920852Y-94469266D01*
X117770225Y-94390210D01*
X117605056Y-94349500D01*
X117434944Y-94349500D01*
X117315780Y-94378871D01*
X117269775Y-94390210D01*
X117119146Y-94469267D01*
X117014392Y-94562071D01*
X116991817Y-94582071D01*
X116959605Y-94628737D01*
X116895180Y-94722072D01*
X116834859Y-94881128D01*
X116814354Y-95050000D01*
X111907153Y-95050000D01*
X111906797Y-93549999D01*
X138544354Y-93549999D01*
X138564859Y-93718871D01*
X138625180Y-93877927D01*
X138625181Y-93877929D01*
X138625182Y-93877930D01*
X138721817Y-94017929D01*
X138849148Y-94130734D01*
X138999775Y-94209790D01*
X139164944Y-94250500D01*
X139335055Y-94250500D01*
X139335056Y-94250500D01*
X139500225Y-94209790D01*
X139650852Y-94130734D01*
X139778183Y-94017929D01*
X139874818Y-93877930D01*
X139935140Y-93718872D01*
X139937432Y-93700000D01*
X149294354Y-93700000D01*
X149314859Y-93868871D01*
X149375180Y-94027927D01*
X149375181Y-94027929D01*
X149375182Y-94027930D01*
X149471817Y-94167929D01*
X149599148Y-94280734D01*
X149749775Y-94359790D01*
X149914944Y-94400500D01*
X150085055Y-94400500D01*
X150085056Y-94400500D01*
X150250225Y-94359790D01*
X150400852Y-94280734D01*
X150480694Y-94210000D01*
X165704354Y-94210000D01*
X165724859Y-94378871D01*
X165785180Y-94537927D01*
X165785181Y-94537929D01*
X165785182Y-94537930D01*
X165881817Y-94677929D01*
X166009148Y-94790734D01*
X166159775Y-94869790D01*
X166324944Y-94910500D01*
X166495055Y-94910500D01*
X166495056Y-94910500D01*
X166660225Y-94869790D01*
X166810852Y-94790734D01*
X166938183Y-94677929D01*
X167034818Y-94537930D01*
X167095140Y-94378872D01*
X167115645Y-94210000D01*
X167095140Y-94041128D01*
X167052149Y-93927768D01*
X175693788Y-93927768D01*
X175723413Y-94197015D01*
X175791927Y-94459086D01*
X175813855Y-94510687D01*
X175897870Y-94708390D01*
X176038982Y-94939610D01*
X176212255Y-95147820D01*
X176413998Y-95328582D01*
X176639910Y-95478044D01*
X176772104Y-95540014D01*
X176885178Y-95593021D01*
X177144568Y-95671060D01*
X177412558Y-95710500D01*
X177412561Y-95710500D01*
X177615625Y-95710500D01*
X177615631Y-95710500D01*
X177818156Y-95695677D01*
X178082553Y-95636780D01*
X178335558Y-95540014D01*
X178571777Y-95407441D01*
X178786177Y-95241888D01*
X178974186Y-95046881D01*
X179131799Y-94826579D01*
X179255656Y-94585675D01*
X179343118Y-94329305D01*
X179392319Y-94062933D01*
X179402212Y-93792235D01*
X179372586Y-93522982D01*
X179304072Y-93260912D01*
X179198130Y-93011610D01*
X179057018Y-92780390D01*
X178883745Y-92572180D01*
X178682002Y-92391418D01*
X178456090Y-92241956D01*
X178456088Y-92241955D01*
X178210821Y-92126978D01*
X177951431Y-92048939D01*
X177683442Y-92009500D01*
X177683439Y-92009500D01*
X177480369Y-92009500D01*
X177277844Y-92024322D01*
X177277844Y-92024323D01*
X177013443Y-92083221D01*
X176760445Y-92179984D01*
X176524222Y-92312559D01*
X176309820Y-92478114D01*
X176121814Y-92673118D01*
X175964200Y-92893421D01*
X175840345Y-93134321D01*
X175752881Y-93390698D01*
X175703681Y-93657064D01*
X175693788Y-93927768D01*
X167052149Y-93927768D01*
X167034818Y-93882070D01*
X166938183Y-93742071D01*
X166810852Y-93629266D01*
X166660225Y-93550210D01*
X166495056Y-93509500D01*
X166324944Y-93509500D01*
X166270245Y-93522982D01*
X166159775Y-93550210D01*
X166009146Y-93629267D01*
X165881818Y-93742070D01*
X165785180Y-93882072D01*
X165724859Y-94041128D01*
X165704354Y-94210000D01*
X150480694Y-94210000D01*
X150528183Y-94167929D01*
X150624818Y-94027930D01*
X150685140Y-93868872D01*
X150705645Y-93700000D01*
X150685140Y-93531128D01*
X150631883Y-93390698D01*
X150624819Y-93372072D01*
X150624818Y-93372070D01*
X150528183Y-93232071D01*
X150400852Y-93119266D01*
X150250225Y-93040210D01*
X150085056Y-92999500D01*
X149914944Y-92999500D01*
X149749775Y-93040209D01*
X149749775Y-93040210D01*
X149599146Y-93119267D01*
X149471818Y-93232070D01*
X149375180Y-93372072D01*
X149314859Y-93531128D01*
X149294354Y-93700000D01*
X139937432Y-93700000D01*
X139955645Y-93550000D01*
X139935140Y-93381128D01*
X139878611Y-93232071D01*
X139874819Y-93222072D01*
X139874818Y-93222070D01*
X139778183Y-93082071D01*
X139650852Y-92969266D01*
X139500225Y-92890210D01*
X139335056Y-92849500D01*
X139164944Y-92849500D01*
X138999774Y-92890210D01*
X138999775Y-92890210D01*
X138849146Y-92969267D01*
X138721818Y-93082070D01*
X138625180Y-93222072D01*
X138564859Y-93381128D01*
X138544354Y-93549999D01*
X111906797Y-93549999D01*
X111905987Y-90140000D01*
X120184354Y-90140000D01*
X120204859Y-90308871D01*
X120265180Y-90467927D01*
X120265181Y-90467929D01*
X120265182Y-90467930D01*
X120361817Y-90607929D01*
X120489148Y-90720734D01*
X120639775Y-90799790D01*
X120804944Y-90840500D01*
X120975055Y-90840500D01*
X120975056Y-90840500D01*
X121140225Y-90799790D01*
X121290852Y-90720734D01*
X121418183Y-90607929D01*
X121514818Y-90467930D01*
X121575140Y-90308872D01*
X121595645Y-90140000D01*
X121575140Y-89971128D01*
X121529203Y-89850000D01*
X121529203Y-89849999D01*
X127819354Y-89849999D01*
X127839859Y-90018871D01*
X127900180Y-90177927D01*
X127900181Y-90177929D01*
X127900182Y-90177930D01*
X127996817Y-90317929D01*
X128124148Y-90430734D01*
X128274775Y-90509790D01*
X128439944Y-90550500D01*
X128610055Y-90550500D01*
X128610056Y-90550500D01*
X128775225Y-90509790D01*
X128925852Y-90430734D01*
X128949256Y-90410000D01*
X141924354Y-90410000D01*
X141944859Y-90578871D01*
X142005180Y-90737927D01*
X142005181Y-90737929D01*
X142005182Y-90737930D01*
X142101817Y-90877929D01*
X142229148Y-90990734D01*
X142379775Y-91069790D01*
X142544944Y-91110500D01*
X142715055Y-91110500D01*
X142715056Y-91110500D01*
X142880225Y-91069790D01*
X143030852Y-90990734D01*
X143158183Y-90877929D01*
X143254818Y-90737930D01*
X143315140Y-90578872D01*
X143335645Y-90410000D01*
X143315140Y-90241128D01*
X143307431Y-90220800D01*
X143254819Y-90082072D01*
X143218876Y-90030000D01*
X148929780Y-90030000D01*
X148948615Y-90221231D01*
X149004395Y-90405115D01*
X149018088Y-90430732D01*
X149094977Y-90574581D01*
X149216880Y-90723120D01*
X149365419Y-90845023D01*
X149534886Y-90935605D01*
X149718769Y-90991385D01*
X149910000Y-91010220D01*
X150101231Y-90991385D01*
X150285114Y-90935605D01*
X150454581Y-90845023D01*
X150603120Y-90723120D01*
X150725023Y-90574581D01*
X150795239Y-90443216D01*
X150830512Y-90410449D01*
X150878480Y-90406318D01*
X150918837Y-90432573D01*
X150934500Y-90478100D01*
X150934500Y-90749865D01*
X150937414Y-90774989D01*
X150937415Y-90774991D01*
X150982794Y-90877765D01*
X151062235Y-90957206D01*
X151165009Y-91002585D01*
X151190135Y-91005500D01*
X152629864Y-91005499D01*
X152629865Y-91005499D01*
X152638239Y-91004527D01*
X152654991Y-91002585D01*
X152757765Y-90957206D01*
X152837206Y-90877765D01*
X152882585Y-90774991D01*
X152885500Y-90749865D01*
X152885500Y-90220800D01*
X155656754Y-90220800D01*
X155677259Y-90389671D01*
X155737580Y-90548727D01*
X155737581Y-90548729D01*
X155737582Y-90548730D01*
X155834217Y-90688729D01*
X155961548Y-90801534D01*
X156112175Y-90880590D01*
X156277344Y-90921300D01*
X156447455Y-90921300D01*
X156447456Y-90921300D01*
X156612625Y-90880590D01*
X156763252Y-90801534D01*
X156890583Y-90688729D01*
X156987218Y-90548730D01*
X157047540Y-90389672D01*
X157068045Y-90220800D01*
X157047540Y-90051928D01*
X156987218Y-89892870D01*
X156890583Y-89752871D01*
X156763252Y-89640066D01*
X156612625Y-89561010D01*
X156447456Y-89520300D01*
X156277344Y-89520300D01*
X156112175Y-89561009D01*
X156112175Y-89561010D01*
X155961546Y-89640067D01*
X155834218Y-89752870D01*
X155737580Y-89892872D01*
X155677259Y-90051928D01*
X155656754Y-90220800D01*
X152885500Y-90220800D01*
X152885499Y-89310136D01*
X152882585Y-89285009D01*
X152837206Y-89182235D01*
X152757765Y-89102794D01*
X152680357Y-89068615D01*
X152654990Y-89057414D01*
X152629865Y-89054500D01*
X151190134Y-89054500D01*
X151165010Y-89057414D01*
X151062235Y-89102794D01*
X150982794Y-89182235D01*
X150937414Y-89285009D01*
X150934500Y-89310134D01*
X150934500Y-89581898D01*
X150918838Y-89627425D01*
X150878481Y-89653680D01*
X150830512Y-89649550D01*
X150795238Y-89616782D01*
X150775465Y-89579789D01*
X150725023Y-89485419D01*
X150603120Y-89336880D01*
X150454581Y-89214977D01*
X150369847Y-89169686D01*
X150285115Y-89124395D01*
X150101231Y-89068615D01*
X149910000Y-89049780D01*
X149718768Y-89068615D01*
X149534884Y-89124395D01*
X149365419Y-89214977D01*
X149216880Y-89336880D01*
X149094977Y-89485419D01*
X149004395Y-89654884D01*
X148948615Y-89838768D01*
X148929780Y-90030000D01*
X143218876Y-90030000D01*
X143158183Y-89942071D01*
X143030852Y-89829266D01*
X142880225Y-89750210D01*
X142715056Y-89709500D01*
X142544944Y-89709500D01*
X142379774Y-89750210D01*
X142379775Y-89750210D01*
X142229146Y-89829267D01*
X142101818Y-89942070D01*
X142005180Y-90082072D01*
X141944859Y-90241128D01*
X141924354Y-90410000D01*
X128949256Y-90410000D01*
X129053183Y-90317929D01*
X129149818Y-90177930D01*
X129210140Y-90018872D01*
X129230645Y-89850000D01*
X129210140Y-89681128D01*
X129200187Y-89654884D01*
X129149819Y-89522072D01*
X129148596Y-89520300D01*
X129053183Y-89382071D01*
X128925852Y-89269266D01*
X128775225Y-89190210D01*
X128610056Y-89149500D01*
X128439944Y-89149500D01*
X128307131Y-89182235D01*
X128274775Y-89190210D01*
X128124146Y-89269267D01*
X127996818Y-89382070D01*
X127996817Y-89382071D01*
X127964605Y-89428737D01*
X127900180Y-89522072D01*
X127839859Y-89681128D01*
X127819354Y-89849999D01*
X121529203Y-89849999D01*
X121514819Y-89812072D01*
X121473955Y-89752871D01*
X121418183Y-89672071D01*
X121418182Y-89672070D01*
X121407422Y-89662537D01*
X121385415Y-89627735D01*
X121385415Y-89586558D01*
X121407423Y-89551757D01*
X121429252Y-89532417D01*
X121468183Y-89497929D01*
X121564818Y-89357930D01*
X121625140Y-89198872D01*
X121645645Y-89030000D01*
X121632288Y-88920000D01*
X138324354Y-88920000D01*
X138344859Y-89088871D01*
X138405180Y-89247927D01*
X138405181Y-89247929D01*
X138405182Y-89247930D01*
X138501817Y-89387929D01*
X138629148Y-89500734D01*
X138779775Y-89579790D01*
X138944944Y-89620500D01*
X139115055Y-89620500D01*
X139115056Y-89620500D01*
X139280225Y-89579790D01*
X139430852Y-89500734D01*
X139558183Y-89387929D01*
X139654818Y-89247930D01*
X139715140Y-89088872D01*
X139735645Y-88920000D01*
X139715140Y-88751128D01*
X139696535Y-88702070D01*
X139654819Y-88592072D01*
X139654818Y-88592070D01*
X139558183Y-88452071D01*
X139430852Y-88339266D01*
X139280225Y-88260210D01*
X139115056Y-88219500D01*
X138944944Y-88219500D01*
X138827062Y-88248555D01*
X138779775Y-88260210D01*
X138629146Y-88339267D01*
X138501818Y-88452070D01*
X138405180Y-88592072D01*
X138344859Y-88751128D01*
X138324354Y-88920000D01*
X121632288Y-88920000D01*
X121625140Y-88861128D01*
X121621199Y-88850738D01*
X121619312Y-88803913D01*
X121645936Y-88765341D01*
X121690391Y-88750500D01*
X121735055Y-88750500D01*
X121735056Y-88750500D01*
X121900225Y-88709790D01*
X122050852Y-88630734D01*
X122178183Y-88517929D01*
X122274818Y-88377930D01*
X122335140Y-88218872D01*
X122355645Y-88050000D01*
X122343503Y-87949999D01*
X136974354Y-87949999D01*
X136994859Y-88118871D01*
X137055180Y-88277927D01*
X137055181Y-88277929D01*
X137055182Y-88277930D01*
X137151817Y-88417929D01*
X137279148Y-88530734D01*
X137429775Y-88609790D01*
X137594944Y-88650500D01*
X137765055Y-88650500D01*
X137765056Y-88650500D01*
X137930225Y-88609790D01*
X138080852Y-88530734D01*
X138208183Y-88417929D01*
X138304818Y-88277930D01*
X138365140Y-88118872D01*
X138385645Y-87950000D01*
X138365140Y-87781128D01*
X138345750Y-87730000D01*
X149859906Y-87730000D01*
X149878214Y-87880789D01*
X149913943Y-87975000D01*
X149932079Y-88022819D01*
X150018368Y-88147830D01*
X150132066Y-88248557D01*
X150266566Y-88319148D01*
X150414051Y-88355500D01*
X150565947Y-88355500D01*
X150565949Y-88355500D01*
X150713434Y-88319148D01*
X150847934Y-88248557D01*
X150961632Y-88147830D01*
X151047921Y-88022819D01*
X151066056Y-87975000D01*
X171044354Y-87975000D01*
X171064859Y-88143871D01*
X171125180Y-88302927D01*
X171125181Y-88302929D01*
X171125182Y-88302930D01*
X171221817Y-88442929D01*
X171349148Y-88555734D01*
X171499775Y-88634790D01*
X171664944Y-88675500D01*
X171835055Y-88675500D01*
X171835056Y-88675500D01*
X172000225Y-88634790D01*
X172150852Y-88555734D01*
X172278183Y-88442929D01*
X172374818Y-88302930D01*
X172435140Y-88143872D01*
X172455645Y-87975000D01*
X172435140Y-87806128D01*
X172403262Y-87722072D01*
X172374819Y-87647072D01*
X172374818Y-87647070D01*
X172278183Y-87507071D01*
X172150852Y-87394266D01*
X172000225Y-87315210D01*
X171835056Y-87274500D01*
X171664944Y-87274500D01*
X171512113Y-87312169D01*
X171499775Y-87315210D01*
X171349146Y-87394267D01*
X171221818Y-87507070D01*
X171125180Y-87647072D01*
X171064859Y-87806128D01*
X171044354Y-87975000D01*
X151066056Y-87975000D01*
X151101785Y-87880791D01*
X151120094Y-87730000D01*
X151101785Y-87579209D01*
X151047921Y-87437181D01*
X150961632Y-87312170D01*
X150847934Y-87211443D01*
X150713434Y-87140852D01*
X150565949Y-87104500D01*
X150414051Y-87104500D01*
X150315727Y-87128734D01*
X150266565Y-87140852D01*
X150195974Y-87177901D01*
X150132066Y-87211443D01*
X150132064Y-87211444D01*
X150132065Y-87211444D01*
X150018368Y-87312169D01*
X149932078Y-87437182D01*
X149878214Y-87579210D01*
X149859906Y-87730000D01*
X138345750Y-87730000D01*
X138304818Y-87622070D01*
X138261156Y-87558815D01*
X138248597Y-87525699D01*
X138252867Y-87490538D01*
X138272987Y-87461390D01*
X138288183Y-87447929D01*
X138384818Y-87307930D01*
X138445140Y-87148872D01*
X138465645Y-86980000D01*
X138445140Y-86811128D01*
X138410580Y-86719999D01*
X167034354Y-86719999D01*
X167054859Y-86888871D01*
X167115180Y-87047927D01*
X167115181Y-87047929D01*
X167115182Y-87047930D01*
X167211817Y-87187929D01*
X167339148Y-87300734D01*
X167489775Y-87379790D01*
X167654944Y-87420500D01*
X167825055Y-87420500D01*
X167825056Y-87420500D01*
X167990225Y-87379790D01*
X168140852Y-87300734D01*
X168268183Y-87187929D01*
X168364818Y-87047930D01*
X168425140Y-86888872D01*
X168445645Y-86720000D01*
X168439574Y-86670000D01*
X172724354Y-86670000D01*
X172744859Y-86838871D01*
X172805180Y-86997927D01*
X172805181Y-86997929D01*
X172805182Y-86997930D01*
X172901817Y-87137929D01*
X173029148Y-87250734D01*
X173179775Y-87329790D01*
X173344944Y-87370500D01*
X173515055Y-87370500D01*
X173515056Y-87370500D01*
X173680225Y-87329790D01*
X173830852Y-87250734D01*
X173958183Y-87137929D01*
X174054818Y-86997930D01*
X174115140Y-86838872D01*
X174135645Y-86670000D01*
X174115140Y-86501128D01*
X174054818Y-86342070D01*
X173958183Y-86202071D01*
X173830852Y-86089266D01*
X173680225Y-86010210D01*
X173515056Y-85969500D01*
X173344944Y-85969500D01*
X173179775Y-86010209D01*
X173179775Y-86010210D01*
X173029146Y-86089267D01*
X172901818Y-86202070D01*
X172805180Y-86342072D01*
X172744859Y-86501128D01*
X172724354Y-86670000D01*
X168439574Y-86670000D01*
X168425140Y-86551128D01*
X168406178Y-86501128D01*
X168364819Y-86392072D01*
X168364818Y-86392070D01*
X168268183Y-86252071D01*
X168140852Y-86139266D01*
X167990225Y-86060210D01*
X167825056Y-86019500D01*
X167654944Y-86019500D01*
X167489775Y-86060209D01*
X167489775Y-86060210D01*
X167339146Y-86139267D01*
X167211818Y-86252070D01*
X167115180Y-86392072D01*
X167054859Y-86551128D01*
X167034354Y-86719999D01*
X138410580Y-86719999D01*
X138384818Y-86652070D01*
X138288183Y-86512071D01*
X138160852Y-86399266D01*
X138010225Y-86320210D01*
X137845056Y-86279500D01*
X137674944Y-86279500D01*
X137509774Y-86320210D01*
X137509775Y-86320210D01*
X137359146Y-86399267D01*
X137231818Y-86512070D01*
X137135180Y-86652072D01*
X137074859Y-86811128D01*
X137054354Y-86979999D01*
X137074859Y-87148871D01*
X137135180Y-87307927D01*
X137178842Y-87371182D01*
X137191401Y-87404299D01*
X137187133Y-87439459D01*
X137167013Y-87468608D01*
X137151817Y-87482070D01*
X137055180Y-87622072D01*
X136994859Y-87781128D01*
X136974354Y-87949999D01*
X122343503Y-87949999D01*
X122335140Y-87881128D01*
X122306697Y-87806128D01*
X122274819Y-87722072D01*
X122274818Y-87722070D01*
X122178183Y-87582071D01*
X122050852Y-87469266D01*
X121900225Y-87390210D01*
X121735056Y-87349500D01*
X121564944Y-87349500D01*
X121479743Y-87370500D01*
X121399775Y-87390210D01*
X121249146Y-87469267D01*
X121125046Y-87579210D01*
X121121817Y-87582071D01*
X121094206Y-87622072D01*
X121025180Y-87722072D01*
X120964859Y-87881128D01*
X120944354Y-88050000D01*
X120964859Y-88218868D01*
X120964859Y-88218869D01*
X120964860Y-88218872D01*
X120968800Y-88229261D01*
X120970688Y-88276087D01*
X120944064Y-88314659D01*
X120899609Y-88329500D01*
X120854944Y-88329500D01*
X120749457Y-88355500D01*
X120689775Y-88370210D01*
X120539146Y-88449267D01*
X120411818Y-88562070D01*
X120315180Y-88702072D01*
X120254859Y-88861128D01*
X120234354Y-89030000D01*
X120254859Y-89198871D01*
X120315180Y-89357927D01*
X120315181Y-89357929D01*
X120315182Y-89357930D01*
X120335889Y-89387929D01*
X120411817Y-89497929D01*
X120422577Y-89507462D01*
X120444584Y-89542264D01*
X120444584Y-89583440D01*
X120422577Y-89618242D01*
X120361817Y-89672070D01*
X120265180Y-89812072D01*
X120204859Y-89971128D01*
X120184354Y-90140000D01*
X111905987Y-90140000D01*
X111904802Y-85149999D01*
X157294906Y-85149999D01*
X157313214Y-85300789D01*
X157313215Y-85300791D01*
X157367079Y-85442819D01*
X157453368Y-85567830D01*
X157567066Y-85668557D01*
X157701566Y-85739148D01*
X157849051Y-85775500D01*
X158000947Y-85775500D01*
X158000949Y-85775500D01*
X158148434Y-85739148D01*
X158282934Y-85668557D01*
X158396632Y-85567830D01*
X158482921Y-85442819D01*
X158536785Y-85300791D01*
X158555094Y-85150000D01*
X158536785Y-84999209D01*
X158482921Y-84857181D01*
X158396632Y-84732170D01*
X158396631Y-84732169D01*
X158375684Y-84713611D01*
X158353677Y-84678809D01*
X158353677Y-84637632D01*
X158375685Y-84602831D01*
X158471630Y-84517832D01*
X158471630Y-84517831D01*
X158471632Y-84517830D01*
X158557921Y-84392819D01*
X158611785Y-84250791D01*
X158630094Y-84100000D01*
X158611785Y-83949209D01*
X158557921Y-83807181D01*
X158471632Y-83682170D01*
X158357934Y-83581443D01*
X158223434Y-83510852D01*
X158075949Y-83474500D01*
X157924051Y-83474500D01*
X157825727Y-83498734D01*
X157776565Y-83510852D01*
X157738684Y-83530734D01*
X157642066Y-83581443D01*
X157642064Y-83581444D01*
X157642065Y-83581444D01*
X157528368Y-83682169D01*
X157442078Y-83807182D01*
X157388214Y-83949210D01*
X157369906Y-84100000D01*
X157388214Y-84250789D01*
X157442078Y-84392817D01*
X157528368Y-84517830D01*
X157549315Y-84536388D01*
X157571322Y-84571190D01*
X157571322Y-84612366D01*
X157549315Y-84647168D01*
X157453368Y-84732169D01*
X157367078Y-84857182D01*
X157313214Y-84999210D01*
X157294906Y-85149999D01*
X111904802Y-85149999D01*
X111904280Y-82950000D01*
X122544354Y-82950000D01*
X122564859Y-83118871D01*
X122625180Y-83277927D01*
X122625181Y-83277929D01*
X122625182Y-83277930D01*
X122721817Y-83417929D01*
X122849148Y-83530734D01*
X122999775Y-83609790D01*
X123164944Y-83650500D01*
X123335055Y-83650500D01*
X123335056Y-83650500D01*
X123500225Y-83609790D01*
X123650852Y-83530734D01*
X123778183Y-83417929D01*
X123804364Y-83380000D01*
X150629780Y-83380000D01*
X150648615Y-83571231D01*
X150704395Y-83755115D01*
X150732225Y-83807181D01*
X150794977Y-83924581D01*
X150916880Y-84073120D01*
X151065419Y-84195023D01*
X151234886Y-84285605D01*
X151418769Y-84341385D01*
X151610000Y-84360220D01*
X151801231Y-84341385D01*
X151985114Y-84285605D01*
X152154581Y-84195023D01*
X152303120Y-84073120D01*
X152425023Y-83924581D01*
X152515605Y-83755114D01*
X152539186Y-83677374D01*
X152565918Y-83639420D01*
X152610000Y-83624857D01*
X152654082Y-83639420D01*
X152680813Y-83677374D01*
X152682268Y-83682170D01*
X152704395Y-83755115D01*
X152732225Y-83807181D01*
X152794977Y-83924581D01*
X152916880Y-84073120D01*
X153065419Y-84195023D01*
X153234886Y-84285605D01*
X153418769Y-84341385D01*
X153610000Y-84360220D01*
X153801231Y-84341385D01*
X153985114Y-84285605D01*
X154154581Y-84195023D01*
X154303120Y-84073120D01*
X154425023Y-83924581D01*
X154515605Y-83755114D01*
X154571385Y-83571231D01*
X154590220Y-83380000D01*
X154571385Y-83188769D01*
X154515605Y-83004886D01*
X154425023Y-82835419D01*
X154303120Y-82686880D01*
X154154581Y-82564977D01*
X154092769Y-82531938D01*
X153985112Y-82474393D01*
X153907375Y-82450812D01*
X153869419Y-82424080D01*
X153854857Y-82379998D01*
X153869420Y-82335916D01*
X153907374Y-82309186D01*
X153985114Y-82285605D01*
X154154581Y-82195023D01*
X154303120Y-82073120D01*
X154425023Y-81924581D01*
X154515605Y-81755114D01*
X154571385Y-81571231D01*
X154575446Y-81530000D01*
X175384354Y-81530000D01*
X175404859Y-81698871D01*
X175465180Y-81857927D01*
X175465181Y-81857929D01*
X175465182Y-81857930D01*
X175561817Y-81997929D01*
X175689148Y-82110734D01*
X175839775Y-82189790D01*
X176004944Y-82230500D01*
X176175055Y-82230500D01*
X176175056Y-82230500D01*
X176340225Y-82189790D01*
X176490852Y-82110734D01*
X176618183Y-81997929D01*
X176714818Y-81857930D01*
X176775140Y-81698872D01*
X176795645Y-81530000D01*
X176775140Y-81361128D01*
X176714818Y-81202070D01*
X176618183Y-81062071D01*
X176490852Y-80949266D01*
X176340225Y-80870210D01*
X176175056Y-80829500D01*
X176004944Y-80829500D01*
X175839774Y-80870210D01*
X175839775Y-80870210D01*
X175689146Y-80949267D01*
X175561818Y-81062070D01*
X175465180Y-81202072D01*
X175404859Y-81361128D01*
X175384354Y-81530000D01*
X154575446Y-81530000D01*
X154590220Y-81380000D01*
X154571385Y-81188769D01*
X154515605Y-81004886D01*
X154425023Y-80835419D01*
X154303120Y-80686880D01*
X154154581Y-80564977D01*
X154069847Y-80519686D01*
X153985115Y-80474395D01*
X153801231Y-80418615D01*
X153610000Y-80399780D01*
X153418768Y-80418615D01*
X153234884Y-80474395D01*
X153065419Y-80564977D01*
X152916880Y-80686880D01*
X152794977Y-80835419D01*
X152724761Y-80966783D01*
X152689487Y-80999551D01*
X152641518Y-81003681D01*
X152601161Y-80977426D01*
X152585499Y-80931899D01*
X152585499Y-80660134D01*
X152582585Y-80635010D01*
X152582585Y-80635009D01*
X152537206Y-80532235D01*
X152457765Y-80452794D01*
X152380357Y-80418615D01*
X152354990Y-80407414D01*
X152329865Y-80404500D01*
X150890134Y-80404500D01*
X150865010Y-80407414D01*
X150762235Y-80452794D01*
X150682794Y-80532235D01*
X150637414Y-80635009D01*
X150634500Y-80660134D01*
X150634500Y-82099865D01*
X150637414Y-82124989D01*
X150637415Y-82124991D01*
X150682794Y-82227765D01*
X150762235Y-82307206D01*
X150865009Y-82352585D01*
X150890135Y-82355500D01*
X151161900Y-82355499D01*
X151207425Y-82371161D01*
X151233680Y-82411518D01*
X151229550Y-82459486D01*
X151196782Y-82494761D01*
X151065419Y-82564977D01*
X150916880Y-82686880D01*
X150794977Y-82835419D01*
X150704395Y-83004884D01*
X150648615Y-83188768D01*
X150629780Y-83380000D01*
X123804364Y-83380000D01*
X123874818Y-83277930D01*
X123935140Y-83118872D01*
X123955645Y-82950000D01*
X123935140Y-82781128D01*
X123874818Y-82622070D01*
X123778183Y-82482071D01*
X123650852Y-82369266D01*
X123500225Y-82290210D01*
X123335056Y-82249500D01*
X123164944Y-82249500D01*
X122999775Y-82290209D01*
X122999775Y-82290210D01*
X122849146Y-82369267D01*
X122721818Y-82482070D01*
X122625180Y-82622072D01*
X122564859Y-82781128D01*
X122544354Y-82950000D01*
X111904280Y-82950000D01*
X111904090Y-82149999D01*
X148169906Y-82149999D01*
X148188214Y-82300789D01*
X148232899Y-82418615D01*
X148242079Y-82442819D01*
X148328368Y-82567830D01*
X148442066Y-82668557D01*
X148576566Y-82739148D01*
X148724051Y-82775500D01*
X148875947Y-82775500D01*
X148875949Y-82775500D01*
X149023434Y-82739148D01*
X149157934Y-82668557D01*
X149271632Y-82567830D01*
X149357921Y-82442819D01*
X149411785Y-82300791D01*
X149430094Y-82150000D01*
X149411785Y-81999209D01*
X149357921Y-81857181D01*
X149271632Y-81732170D01*
X149157934Y-81631443D01*
X149023434Y-81560852D01*
X148875949Y-81524500D01*
X148724051Y-81524500D01*
X148625727Y-81548734D01*
X148576565Y-81560852D01*
X148556790Y-81571231D01*
X148442066Y-81631443D01*
X148442064Y-81631444D01*
X148442065Y-81631444D01*
X148328368Y-81732169D01*
X148242078Y-81857182D01*
X148188214Y-81999210D01*
X148169906Y-82149999D01*
X111904090Y-82149999D01*
X111903865Y-81200000D01*
X135094906Y-81200000D01*
X135113214Y-81350789D01*
X135113215Y-81350791D01*
X135167079Y-81492819D01*
X135253368Y-81617830D01*
X135367066Y-81718557D01*
X135501566Y-81789148D01*
X135649051Y-81825500D01*
X135800947Y-81825500D01*
X135800949Y-81825500D01*
X135948434Y-81789148D01*
X136082934Y-81718557D01*
X136196632Y-81617830D01*
X136282921Y-81492819D01*
X136336785Y-81350791D01*
X136355094Y-81200000D01*
X136336785Y-81049209D01*
X136282921Y-80907181D01*
X136196632Y-80782170D01*
X136082934Y-80681443D01*
X135948434Y-80610852D01*
X135800949Y-80574500D01*
X135649051Y-80574500D01*
X135550727Y-80598734D01*
X135501565Y-80610852D01*
X135430974Y-80647901D01*
X135367066Y-80681443D01*
X135367064Y-80681444D01*
X135367065Y-80681444D01*
X135253368Y-80782169D01*
X135167078Y-80907182D01*
X135113214Y-81049210D01*
X135094906Y-81200000D01*
X111903865Y-81200000D01*
X111903675Y-80399999D01*
X137394906Y-80399999D01*
X137413214Y-80550789D01*
X137466287Y-80690732D01*
X137467079Y-80692819D01*
X137553368Y-80817830D01*
X137667066Y-80918557D01*
X137801566Y-80989148D01*
X137949051Y-81025500D01*
X138100947Y-81025500D01*
X138100949Y-81025500D01*
X138248434Y-80989148D01*
X138382934Y-80918557D01*
X138496632Y-80817830D01*
X138582921Y-80692819D01*
X138636785Y-80550791D01*
X138655094Y-80400000D01*
X138636785Y-80249209D01*
X138583990Y-80110000D01*
X160754354Y-80110000D01*
X160774859Y-80278871D01*
X160835180Y-80437927D01*
X160835181Y-80437929D01*
X160835182Y-80437930D01*
X160931817Y-80577929D01*
X161059148Y-80690734D01*
X161209775Y-80769790D01*
X161374944Y-80810500D01*
X161545055Y-80810500D01*
X161545056Y-80810500D01*
X161710225Y-80769790D01*
X161860852Y-80690734D01*
X161988183Y-80577929D01*
X162084818Y-80437930D01*
X162145140Y-80278872D01*
X162165645Y-80110000D01*
X162154717Y-80019999D01*
X164714354Y-80019999D01*
X164734859Y-80188871D01*
X164795180Y-80347927D01*
X164795181Y-80347929D01*
X164795182Y-80347930D01*
X164891817Y-80487929D01*
X165019148Y-80600734D01*
X165169775Y-80679790D01*
X165334944Y-80720500D01*
X165505055Y-80720500D01*
X165505056Y-80720500D01*
X165670225Y-80679790D01*
X165820852Y-80600734D01*
X165948183Y-80487929D01*
X166044818Y-80347930D01*
X166105140Y-80188872D01*
X166125645Y-80020000D01*
X166121051Y-79982169D01*
X166117145Y-79949999D01*
X175434354Y-79949999D01*
X175454859Y-80118871D01*
X175515180Y-80277927D01*
X175515181Y-80277929D01*
X175515182Y-80277930D01*
X175611817Y-80417929D01*
X175739148Y-80530734D01*
X175889775Y-80609790D01*
X176054944Y-80650500D01*
X176225055Y-80650500D01*
X176225056Y-80650500D01*
X176390225Y-80609790D01*
X176540852Y-80530734D01*
X176668183Y-80417929D01*
X176764818Y-80277930D01*
X176825140Y-80118872D01*
X176845645Y-79950000D01*
X176825140Y-79781128D01*
X176764818Y-79622070D01*
X176668183Y-79482071D01*
X176540852Y-79369266D01*
X176390225Y-79290210D01*
X176225056Y-79249500D01*
X176054944Y-79249500D01*
X175971524Y-79270061D01*
X175889775Y-79290210D01*
X175739146Y-79369267D01*
X175611818Y-79482070D01*
X175515180Y-79622072D01*
X175454859Y-79781128D01*
X175434354Y-79949999D01*
X166117145Y-79949999D01*
X166105140Y-79851128D01*
X166044819Y-79692072D01*
X166044818Y-79692070D01*
X165948183Y-79552071D01*
X165820852Y-79439266D01*
X165670225Y-79360210D01*
X165505056Y-79319500D01*
X165334944Y-79319500D01*
X165169774Y-79360210D01*
X165169775Y-79360210D01*
X165019146Y-79439267D01*
X164891818Y-79552070D01*
X164795180Y-79692072D01*
X164734859Y-79851128D01*
X164714354Y-80019999D01*
X162154717Y-80019999D01*
X162145140Y-79941128D01*
X162107065Y-79840732D01*
X162084819Y-79782072D01*
X162084818Y-79782070D01*
X161988183Y-79642071D01*
X161860852Y-79529266D01*
X161710225Y-79450210D01*
X161545056Y-79409500D01*
X161374944Y-79409500D01*
X161322874Y-79422334D01*
X161209775Y-79450210D01*
X161059146Y-79529267D01*
X160931818Y-79642070D01*
X160835180Y-79782072D01*
X160774859Y-79941128D01*
X160754354Y-80110000D01*
X138583990Y-80110000D01*
X138582921Y-80107181D01*
X138496632Y-79982170D01*
X138382934Y-79881443D01*
X138248434Y-79810852D01*
X138100949Y-79774500D01*
X137949051Y-79774500D01*
X137850727Y-79798734D01*
X137801565Y-79810852D01*
X137730974Y-79847901D01*
X137667066Y-79881443D01*
X137667064Y-79881444D01*
X137667065Y-79881444D01*
X137553368Y-79982169D01*
X137467078Y-80107182D01*
X137413214Y-80249210D01*
X137394906Y-80399999D01*
X111903675Y-80399999D01*
X111903236Y-78550000D01*
X124544354Y-78550000D01*
X124564859Y-78718871D01*
X124625180Y-78877927D01*
X124625181Y-78877929D01*
X124625182Y-78877930D01*
X124721817Y-79017929D01*
X124849148Y-79130734D01*
X124999775Y-79209790D01*
X125164944Y-79250500D01*
X125335055Y-79250500D01*
X125335056Y-79250500D01*
X125500225Y-79209790D01*
X125650852Y-79130734D01*
X125778183Y-79017929D01*
X125794700Y-78994000D01*
X150017954Y-78994000D01*
X150038459Y-79162871D01*
X150098780Y-79321927D01*
X150098781Y-79321928D01*
X150098782Y-79321930D01*
X150195417Y-79461929D01*
X150322748Y-79574734D01*
X150473375Y-79653790D01*
X150638544Y-79694500D01*
X150808655Y-79694500D01*
X150808656Y-79694500D01*
X150973825Y-79653790D01*
X151124452Y-79574734D01*
X151251783Y-79461929D01*
X151348418Y-79321930D01*
X151358195Y-79296147D01*
X151389101Y-79259061D01*
X151436304Y-79248927D01*
X151479711Y-79270061D01*
X151500846Y-79313467D01*
X151514860Y-79428872D01*
X151575180Y-79587927D01*
X151575181Y-79587929D01*
X151575182Y-79587930D01*
X151671817Y-79727929D01*
X151799148Y-79840734D01*
X151949775Y-79919790D01*
X152114944Y-79960500D01*
X152285055Y-79960500D01*
X152285056Y-79960500D01*
X152450225Y-79919790D01*
X152600852Y-79840734D01*
X152728183Y-79727929D01*
X152824818Y-79587930D01*
X152885140Y-79428872D01*
X152905645Y-79260000D01*
X152885140Y-79091128D01*
X152824818Y-78932070D01*
X152728183Y-78792071D01*
X152600852Y-78679266D01*
X152450225Y-78600210D01*
X152285056Y-78559500D01*
X152114944Y-78559500D01*
X151949774Y-78600210D01*
X151949775Y-78600210D01*
X151799146Y-78679267D01*
X151718741Y-78750500D01*
X151671817Y-78792071D01*
X151648999Y-78825128D01*
X151575181Y-78932071D01*
X151565404Y-78957852D01*
X151534496Y-78994939D01*
X151487293Y-79005071D01*
X151443887Y-78983937D01*
X151422753Y-78940531D01*
X151408740Y-78825128D01*
X151348419Y-78666072D01*
X151324027Y-78630734D01*
X151251783Y-78526071D01*
X151124452Y-78413266D01*
X150973825Y-78334210D01*
X150808656Y-78293500D01*
X150638544Y-78293500D01*
X150473375Y-78334209D01*
X150473375Y-78334210D01*
X150322746Y-78413267D01*
X150204607Y-78517929D01*
X150195417Y-78526071D01*
X150166602Y-78567817D01*
X150098780Y-78666072D01*
X150038459Y-78825128D01*
X150017954Y-78994000D01*
X125794700Y-78994000D01*
X125874818Y-78877930D01*
X125935140Y-78718872D01*
X125955645Y-78550000D01*
X125952739Y-78526071D01*
X125935140Y-78381128D01*
X125894891Y-78274999D01*
X142744906Y-78274999D01*
X142763214Y-78425789D01*
X142801245Y-78526070D01*
X142817079Y-78567819D01*
X142903368Y-78692830D01*
X143017066Y-78793557D01*
X143151566Y-78864148D01*
X143299051Y-78900500D01*
X143450947Y-78900500D01*
X143450949Y-78900500D01*
X143598434Y-78864148D01*
X143732934Y-78793557D01*
X143846632Y-78692830D01*
X143932921Y-78567819D01*
X143986785Y-78425791D01*
X144005094Y-78275000D01*
X143986785Y-78124209D01*
X143932921Y-77982181D01*
X143846632Y-77857170D01*
X143732934Y-77756443D01*
X143720658Y-77750000D01*
X157069906Y-77750000D01*
X157088214Y-77900789D01*
X157142078Y-78042817D01*
X157228368Y-78167830D01*
X157296143Y-78227873D01*
X157318150Y-78262674D01*
X157318150Y-78303851D01*
X157296143Y-78338653D01*
X157256617Y-78373669D01*
X157159980Y-78513672D01*
X157099659Y-78672728D01*
X157079154Y-78841599D01*
X157099659Y-79010471D01*
X157159980Y-79169527D01*
X157159981Y-79169529D01*
X157159982Y-79169530D01*
X157256617Y-79309529D01*
X157383948Y-79422334D01*
X157534575Y-79501390D01*
X157699744Y-79542100D01*
X157869855Y-79542100D01*
X157869856Y-79542100D01*
X158035025Y-79501390D01*
X158185652Y-79422334D01*
X158312983Y-79309529D01*
X158409618Y-79169530D01*
X158469940Y-79010472D01*
X158490445Y-78841600D01*
X158484611Y-78793557D01*
X158469940Y-78672728D01*
X158409619Y-78513672D01*
X158409618Y-78513670D01*
X158312983Y-78373671D01*
X158234172Y-78303851D01*
X158186173Y-78261327D01*
X158166053Y-78232178D01*
X158161784Y-78197017D01*
X158174343Y-78163902D01*
X158252965Y-78049999D01*
X167994354Y-78049999D01*
X168014859Y-78218871D01*
X168075180Y-78377927D01*
X168075181Y-78377929D01*
X168075182Y-78377930D01*
X168171817Y-78517929D01*
X168299148Y-78630734D01*
X168449775Y-78709790D01*
X168614944Y-78750500D01*
X168785055Y-78750500D01*
X168785056Y-78750500D01*
X168950225Y-78709790D01*
X169100852Y-78630734D01*
X169228183Y-78517929D01*
X169324818Y-78377930D01*
X169385140Y-78218872D01*
X169405645Y-78050000D01*
X169388127Y-77905732D01*
X169385140Y-77881128D01*
X169324819Y-77722072D01*
X169299818Y-77685852D01*
X169228183Y-77582071D01*
X169100852Y-77469266D01*
X168950225Y-77390210D01*
X168785056Y-77349500D01*
X168614944Y-77349500D01*
X168449774Y-77390210D01*
X168449775Y-77390210D01*
X168299146Y-77469267D01*
X168216219Y-77542734D01*
X168171817Y-77582071D01*
X168144401Y-77621790D01*
X168075180Y-77722072D01*
X168014859Y-77881128D01*
X167994354Y-78049999D01*
X158252965Y-78049999D01*
X158257921Y-78042819D01*
X158311785Y-77900791D01*
X158330094Y-77750000D01*
X158311785Y-77599209D01*
X158257921Y-77457181D01*
X158171632Y-77332170D01*
X158057934Y-77231443D01*
X157923434Y-77160852D01*
X157775949Y-77124500D01*
X157624051Y-77124500D01*
X157525727Y-77148734D01*
X157476565Y-77160852D01*
X157405973Y-77197901D01*
X157342066Y-77231443D01*
X157342064Y-77231444D01*
X157342065Y-77231444D01*
X157228368Y-77332169D01*
X157142078Y-77457182D01*
X157088214Y-77599210D01*
X157069906Y-77750000D01*
X143720658Y-77750000D01*
X143598434Y-77685852D01*
X143450949Y-77649500D01*
X143299051Y-77649500D01*
X143200727Y-77673734D01*
X143151565Y-77685852D01*
X143080974Y-77722901D01*
X143017066Y-77756443D01*
X143017064Y-77756444D01*
X143017065Y-77756444D01*
X142903368Y-77857169D01*
X142817078Y-77982182D01*
X142763214Y-78124210D01*
X142744906Y-78274999D01*
X125894891Y-78274999D01*
X125874819Y-78222072D01*
X125874516Y-78221633D01*
X125778183Y-78082071D01*
X125650852Y-77969266D01*
X125500225Y-77890210D01*
X125335056Y-77849500D01*
X125164944Y-77849500D01*
X125036623Y-77881128D01*
X124999775Y-77890210D01*
X124849146Y-77969267D01*
X124721818Y-78082070D01*
X124625180Y-78222072D01*
X124564859Y-78381128D01*
X124544354Y-78550000D01*
X111903236Y-78550000D01*
X111902945Y-77324999D01*
X127119354Y-77324999D01*
X127139859Y-77493871D01*
X127200180Y-77652927D01*
X127200181Y-77652929D01*
X127200182Y-77652930D01*
X127296817Y-77792929D01*
X127424148Y-77905734D01*
X127574775Y-77984790D01*
X127739944Y-78025500D01*
X127910055Y-78025500D01*
X127910056Y-78025500D01*
X128075225Y-77984790D01*
X128225852Y-77905734D01*
X128353183Y-77792929D01*
X128449818Y-77652930D01*
X128510140Y-77493872D01*
X128530645Y-77325000D01*
X128510140Y-77156128D01*
X128449818Y-76997070D01*
X128425611Y-76962000D01*
X175189354Y-76962000D01*
X175209859Y-77130871D01*
X175270180Y-77289927D01*
X175270181Y-77289929D01*
X175270182Y-77289930D01*
X175366817Y-77429929D01*
X175494148Y-77542734D01*
X175644775Y-77621790D01*
X175809944Y-77662500D01*
X175980055Y-77662500D01*
X175980056Y-77662500D01*
X176145225Y-77621790D01*
X176295852Y-77542734D01*
X176423183Y-77429929D01*
X176519818Y-77289930D01*
X176580140Y-77130872D01*
X176600645Y-76962000D01*
X176580140Y-76793128D01*
X176519818Y-76634070D01*
X176423183Y-76494071D01*
X176295852Y-76381266D01*
X176145225Y-76302210D01*
X175980056Y-76261500D01*
X175809944Y-76261500D01*
X175644774Y-76302210D01*
X175644775Y-76302210D01*
X175494146Y-76381267D01*
X175366818Y-76494070D01*
X175270180Y-76634072D01*
X175209859Y-76793128D01*
X175189354Y-76962000D01*
X128425611Y-76962000D01*
X128353183Y-76857071D01*
X128225852Y-76744266D01*
X128075225Y-76665210D01*
X127910056Y-76624500D01*
X127739944Y-76624500D01*
X127574775Y-76665209D01*
X127574775Y-76665210D01*
X127424146Y-76744267D01*
X127296818Y-76857070D01*
X127200180Y-76997072D01*
X127139859Y-77156128D01*
X127119354Y-77324999D01*
X111902945Y-77324999D01*
X111902477Y-75352729D01*
X111913585Y-75313718D01*
X111943590Y-75286422D01*
X111983477Y-75279045D01*
X112021258Y-75293801D01*
X112116901Y-75366507D01*
X112116902Y-75366507D01*
X112116903Y-75366508D01*
X112279859Y-75441900D01*
X112279860Y-75441900D01*
X112279862Y-75441901D01*
X112455221Y-75480500D01*
X113439760Y-75480500D01*
X113439761Y-75480500D01*
X113573506Y-75465954D01*
X113658583Y-75437287D01*
X113743662Y-75408622D01*
X113897517Y-75316050D01*
X114027875Y-75192569D01*
X114128640Y-75043951D01*
X114195101Y-74877147D01*
X114224150Y-74699955D01*
X114214429Y-74520661D01*
X114166393Y-74347649D01*
X114082286Y-74189008D01*
X114049152Y-74149999D01*
X118404659Y-74149999D01*
X118423976Y-74346132D01*
X118481186Y-74534728D01*
X118492413Y-74555732D01*
X118574090Y-74708538D01*
X118699117Y-74860883D01*
X118851462Y-74985910D01*
X119025273Y-75078814D01*
X119213868Y-75136024D01*
X119410000Y-75155341D01*
X119606132Y-75136024D01*
X119794727Y-75078814D01*
X119968538Y-74985910D01*
X120073219Y-74900000D01*
X151194354Y-74900000D01*
X151214859Y-75068871D01*
X151275180Y-75227927D01*
X151275181Y-75227929D01*
X151275182Y-75227930D01*
X151371817Y-75367929D01*
X151499148Y-75480734D01*
X151649775Y-75559790D01*
X151814944Y-75600500D01*
X151985055Y-75600500D01*
X151985056Y-75600500D01*
X152150225Y-75559790D01*
X152300852Y-75480734D01*
X152428183Y-75367929D01*
X152524818Y-75227930D01*
X152585140Y-75068872D01*
X152605645Y-74900000D01*
X152585140Y-74731128D01*
X152576573Y-74708538D01*
X152524819Y-74572072D01*
X152513542Y-74555734D01*
X152428183Y-74432071D01*
X152300852Y-74319266D01*
X152150225Y-74240210D01*
X151985056Y-74199500D01*
X151814944Y-74199500D01*
X151649775Y-74240209D01*
X151649775Y-74240210D01*
X151499146Y-74319267D01*
X151371818Y-74432070D01*
X151275180Y-74572072D01*
X151214859Y-74731128D01*
X151194354Y-74900000D01*
X120073219Y-74900000D01*
X120120883Y-74860883D01*
X120245910Y-74708538D01*
X120338814Y-74534727D01*
X120396024Y-74346132D01*
X120415341Y-74150000D01*
X120398105Y-73975000D01*
X133694354Y-73975000D01*
X133714859Y-74143871D01*
X133775180Y-74302927D01*
X133775181Y-74302929D01*
X133775182Y-74302930D01*
X133871817Y-74442929D01*
X133999148Y-74555734D01*
X134149775Y-74634790D01*
X134314944Y-74675500D01*
X134485055Y-74675500D01*
X134485056Y-74675500D01*
X134650225Y-74634790D01*
X134800852Y-74555734D01*
X134928183Y-74442929D01*
X135024818Y-74302930D01*
X135085140Y-74143872D01*
X135105645Y-73975000D01*
X135103201Y-73954876D01*
X135090467Y-73849999D01*
X138794354Y-73849999D01*
X138814859Y-74018871D01*
X138875180Y-74177927D01*
X138875181Y-74177929D01*
X138875182Y-74177930D01*
X138971817Y-74317929D01*
X139099148Y-74430734D01*
X139249775Y-74509790D01*
X139414944Y-74550500D01*
X139585055Y-74550500D01*
X139585056Y-74550500D01*
X139750225Y-74509790D01*
X139900852Y-74430734D01*
X140028183Y-74317929D01*
X140124818Y-74177930D01*
X140185140Y-74018872D01*
X140205645Y-73850000D01*
X140185140Y-73681128D01*
X140124818Y-73522070D01*
X140028183Y-73382071D01*
X139924256Y-73290000D01*
X153854317Y-73290000D01*
X153874956Y-73446762D01*
X153935464Y-73592842D01*
X153977075Y-73647070D01*
X154031718Y-73718282D01*
X154092958Y-73765273D01*
X154157157Y-73814535D01*
X154157158Y-73814535D01*
X154157159Y-73814536D01*
X154303238Y-73875044D01*
X154460000Y-73895682D01*
X154616762Y-73875044D01*
X154762841Y-73814536D01*
X154888282Y-73718282D01*
X154984536Y-73592841D01*
X155045044Y-73446762D01*
X155065682Y-73290000D01*
X155045044Y-73133238D01*
X154984536Y-72987159D01*
X154984535Y-72987158D01*
X154984535Y-72987157D01*
X154951001Y-72943455D01*
X154888282Y-72861718D01*
X154825561Y-72813590D01*
X154762842Y-72765464D01*
X154616762Y-72704956D01*
X154460000Y-72684317D01*
X154303237Y-72704956D01*
X154157157Y-72765464D01*
X154031718Y-72861718D01*
X153935464Y-72987157D01*
X153874956Y-73133237D01*
X153854317Y-73290000D01*
X139924256Y-73290000D01*
X139900852Y-73269266D01*
X139750225Y-73190210D01*
X139585056Y-73149500D01*
X139414944Y-73149500D01*
X139356212Y-73163976D01*
X139249775Y-73190210D01*
X139099146Y-73269267D01*
X138971818Y-73382070D01*
X138971817Y-73382071D01*
X138963399Y-73394267D01*
X138875180Y-73522072D01*
X138814859Y-73681128D01*
X138794354Y-73849999D01*
X135090467Y-73849999D01*
X135085140Y-73806128D01*
X135024819Y-73647072D01*
X135024818Y-73647070D01*
X134928183Y-73507071D01*
X134800852Y-73394266D01*
X134650225Y-73315210D01*
X134485056Y-73274500D01*
X134314944Y-73274500D01*
X134154319Y-73314090D01*
X134149775Y-73315210D01*
X133999146Y-73394267D01*
X133948521Y-73439117D01*
X133871817Y-73507071D01*
X133839605Y-73553737D01*
X133775180Y-73647072D01*
X133714859Y-73806128D01*
X133694354Y-73975000D01*
X120398105Y-73975000D01*
X120396024Y-73953868D01*
X120338814Y-73765273D01*
X120245910Y-73591462D01*
X120120883Y-73439117D01*
X119968538Y-73314090D01*
X119881632Y-73267638D01*
X119794728Y-73221186D01*
X119606132Y-73163976D01*
X119410000Y-73144659D01*
X119213867Y-73163976D01*
X119025271Y-73221186D01*
X118851462Y-73314090D01*
X118699117Y-73439117D01*
X118574090Y-73591462D01*
X118481186Y-73765271D01*
X118423976Y-73953867D01*
X118404659Y-74149999D01*
X114049152Y-74149999D01*
X113966044Y-74052157D01*
X113823099Y-73943493D01*
X113823098Y-73943492D01*
X113823096Y-73943491D01*
X113660140Y-73868099D01*
X113484779Y-73829500D01*
X112500240Y-73829500D01*
X112500239Y-73829500D01*
X112366493Y-73844045D01*
X112196338Y-73901377D01*
X112042481Y-73993950D01*
X112027032Y-74008584D01*
X111989106Y-74027714D01*
X111946910Y-74022838D01*
X111914346Y-73995563D01*
X111902145Y-73954879D01*
X111901656Y-71890999D01*
X157146354Y-71890999D01*
X157166859Y-72059871D01*
X157227180Y-72218927D01*
X157227181Y-72218929D01*
X157227182Y-72218930D01*
X157323817Y-72358929D01*
X157451148Y-72471734D01*
X157601775Y-72550790D01*
X157766944Y-72591500D01*
X157937055Y-72591500D01*
X157937056Y-72591500D01*
X158102225Y-72550790D01*
X158252852Y-72471734D01*
X158380183Y-72358929D01*
X158476818Y-72218930D01*
X158537140Y-72059872D01*
X158557645Y-71891000D01*
X158537140Y-71722128D01*
X158476818Y-71563070D01*
X158380183Y-71423071D01*
X158252852Y-71310266D01*
X158102225Y-71231210D01*
X157937056Y-71190500D01*
X157766944Y-71190500D01*
X157601774Y-71231210D01*
X157601775Y-71231210D01*
X157451146Y-71310267D01*
X157323818Y-71423070D01*
X157227180Y-71563072D01*
X157166859Y-71722128D01*
X157146354Y-71890999D01*
X111901656Y-71890999D01*
X111901480Y-71149999D01*
X136169354Y-71149999D01*
X136189859Y-71318871D01*
X136250180Y-71477927D01*
X136250181Y-71477929D01*
X136250182Y-71477930D01*
X136346817Y-71617929D01*
X136474148Y-71730734D01*
X136624775Y-71809790D01*
X136789944Y-71850500D01*
X136960055Y-71850500D01*
X136960056Y-71850500D01*
X137125225Y-71809790D01*
X137275852Y-71730734D01*
X137403183Y-71617929D01*
X137499818Y-71477930D01*
X137560140Y-71318872D01*
X137580645Y-71150000D01*
X137560140Y-70981128D01*
X137532358Y-70907871D01*
X137519892Y-70875000D01*
X139669354Y-70875000D01*
X139689859Y-71043871D01*
X139750180Y-71202927D01*
X139750181Y-71202929D01*
X139750182Y-71202930D01*
X139846817Y-71342929D01*
X139974148Y-71455734D01*
X140124775Y-71534790D01*
X140289944Y-71575500D01*
X140460055Y-71575500D01*
X140460056Y-71575500D01*
X140625225Y-71534790D01*
X140775852Y-71455734D01*
X140903183Y-71342929D01*
X140999818Y-71202930D01*
X141060140Y-71043872D01*
X141080645Y-70875000D01*
X141064131Y-70738999D01*
X161473354Y-70738999D01*
X161493859Y-70907871D01*
X161554180Y-71066927D01*
X161554181Y-71066929D01*
X161554182Y-71066930D01*
X161650817Y-71206929D01*
X161778148Y-71319734D01*
X161928775Y-71398790D01*
X162093944Y-71439500D01*
X162264055Y-71439500D01*
X162264056Y-71439500D01*
X162429225Y-71398790D01*
X162579852Y-71319734D01*
X162707183Y-71206929D01*
X162803818Y-71066930D01*
X162864140Y-70907872D01*
X162884645Y-70739000D01*
X162877732Y-70682071D01*
X162864140Y-70570128D01*
X162803819Y-70411072D01*
X162801615Y-70407879D01*
X162707183Y-70271071D01*
X162579852Y-70158266D01*
X162429225Y-70079210D01*
X162264056Y-70038500D01*
X162093944Y-70038500D01*
X161928775Y-70079209D01*
X161928775Y-70079210D01*
X161778146Y-70158267D01*
X161671297Y-70252927D01*
X161650817Y-70271071D01*
X161618605Y-70317737D01*
X161554180Y-70411072D01*
X161493859Y-70570128D01*
X161473354Y-70738999D01*
X141064131Y-70738999D01*
X141060140Y-70706128D01*
X140999819Y-70547072D01*
X140987447Y-70529148D01*
X140903183Y-70407071D01*
X140775852Y-70294266D01*
X140625225Y-70215210D01*
X140460056Y-70174500D01*
X140289944Y-70174500D01*
X140124775Y-70215209D01*
X140124775Y-70215210D01*
X139974146Y-70294267D01*
X139854629Y-70400150D01*
X139846817Y-70407071D01*
X139836106Y-70422589D01*
X139750180Y-70547072D01*
X139689859Y-70706128D01*
X139669354Y-70875000D01*
X137519892Y-70875000D01*
X137499819Y-70822072D01*
X137499818Y-70822070D01*
X137403183Y-70682071D01*
X137275852Y-70569266D01*
X137125225Y-70490210D01*
X136960056Y-70449500D01*
X136789944Y-70449500D01*
X136624775Y-70490209D01*
X136624775Y-70490210D01*
X136474146Y-70569267D01*
X136346818Y-70682070D01*
X136250180Y-70822072D01*
X136189859Y-70981128D01*
X136169354Y-71149999D01*
X111901480Y-71149999D01*
X111901189Y-69924999D01*
X132894354Y-69924999D01*
X132914859Y-70093871D01*
X132975180Y-70252927D01*
X132975181Y-70252929D01*
X132975182Y-70252930D01*
X133071817Y-70392929D01*
X133199148Y-70505734D01*
X133349775Y-70584790D01*
X133514944Y-70625500D01*
X133685055Y-70625500D01*
X133685056Y-70625500D01*
X133850225Y-70584790D01*
X134000852Y-70505734D01*
X134128183Y-70392929D01*
X134224818Y-70252930D01*
X134285140Y-70093872D01*
X134303824Y-69940000D01*
X164139906Y-69940000D01*
X164158214Y-70090789D01*
X164189961Y-70174500D01*
X164212079Y-70232819D01*
X164298368Y-70357830D01*
X164412066Y-70458557D01*
X164546566Y-70529148D01*
X164694051Y-70565500D01*
X164845947Y-70565500D01*
X164845949Y-70565500D01*
X164993434Y-70529148D01*
X165127934Y-70458557D01*
X165232205Y-70366181D01*
X165263563Y-70349723D01*
X165298982Y-70349723D01*
X165330343Y-70366182D01*
X165411356Y-70437953D01*
X165545856Y-70508544D01*
X165693341Y-70544896D01*
X165845237Y-70544896D01*
X165845239Y-70544896D01*
X165992724Y-70508544D01*
X166127224Y-70437953D01*
X166185117Y-70386664D01*
X166222313Y-70369015D01*
X166263187Y-70373976D01*
X166288243Y-70394431D01*
X166288453Y-70394194D01*
X166294326Y-70399397D01*
X166295083Y-70400015D01*
X166295176Y-70400150D01*
X166295177Y-70400151D01*
X166295178Y-70400152D01*
X166408876Y-70500879D01*
X166543376Y-70571470D01*
X166690861Y-70607822D01*
X166842757Y-70607822D01*
X166842759Y-70607822D01*
X166990244Y-70571470D01*
X167124744Y-70500879D01*
X167213118Y-70422586D01*
X167244475Y-70406129D01*
X167279894Y-70406129D01*
X167311254Y-70422588D01*
X167408349Y-70508606D01*
X167542849Y-70579197D01*
X167690334Y-70615549D01*
X167842230Y-70615549D01*
X167842232Y-70615549D01*
X167989717Y-70579197D01*
X168124217Y-70508606D01*
X168237915Y-70407879D01*
X168324204Y-70282868D01*
X168378068Y-70140840D01*
X168396377Y-69990049D01*
X168394792Y-69976999D01*
X172522354Y-69976999D01*
X172542859Y-70145871D01*
X172603180Y-70304927D01*
X172603181Y-70304929D01*
X172603182Y-70304930D01*
X172699817Y-70444929D01*
X172827148Y-70557734D01*
X172977775Y-70636790D01*
X173142944Y-70677500D01*
X173313055Y-70677500D01*
X173313056Y-70677500D01*
X173478225Y-70636790D01*
X173628852Y-70557734D01*
X173756183Y-70444929D01*
X173852818Y-70304930D01*
X173913140Y-70145872D01*
X173933645Y-69977000D01*
X173913140Y-69808128D01*
X173871083Y-69697231D01*
X173852819Y-69649072D01*
X173852818Y-69649070D01*
X173756183Y-69509071D01*
X173628852Y-69396266D01*
X173478225Y-69317210D01*
X173313056Y-69276500D01*
X173142944Y-69276500D01*
X173072365Y-69293896D01*
X172977775Y-69317210D01*
X172827146Y-69396267D01*
X172758514Y-69457070D01*
X172699817Y-69509071D01*
X172686932Y-69527738D01*
X172603180Y-69649072D01*
X172542859Y-69808128D01*
X172522354Y-69976999D01*
X168394792Y-69976999D01*
X168378068Y-69839258D01*
X168324204Y-69697230D01*
X168237915Y-69572219D01*
X168124217Y-69471492D01*
X167989717Y-69400901D01*
X167842232Y-69364549D01*
X167690334Y-69364549D01*
X167592010Y-69388783D01*
X167542848Y-69400901D01*
X167472257Y-69437950D01*
X167408349Y-69471492D01*
X167408347Y-69471493D01*
X167408348Y-69471493D01*
X167319978Y-69549781D01*
X167288616Y-69566241D01*
X167253198Y-69566241D01*
X167221837Y-69549781D01*
X167124744Y-69463765D01*
X166990244Y-69393174D01*
X166842759Y-69356822D01*
X166690861Y-69356822D01*
X166592537Y-69381056D01*
X166543375Y-69393174D01*
X166528653Y-69400901D01*
X166408876Y-69463765D01*
X166408874Y-69463766D01*
X166408875Y-69463766D01*
X166350984Y-69515052D01*
X166313783Y-69532703D01*
X166272906Y-69527738D01*
X166247858Y-69507286D01*
X166247648Y-69507524D01*
X166241742Y-69502292D01*
X166241011Y-69501695D01*
X166240922Y-69501566D01*
X166127224Y-69400839D01*
X165992724Y-69330248D01*
X165845239Y-69293896D01*
X165693341Y-69293896D01*
X165609748Y-69314500D01*
X165545855Y-69330248D01*
X165506598Y-69350852D01*
X165411356Y-69400839D01*
X165411354Y-69400840D01*
X165411355Y-69400840D01*
X165307087Y-69493212D01*
X165275725Y-69509672D01*
X165240307Y-69509672D01*
X165208945Y-69493212D01*
X165175706Y-69463765D01*
X165127934Y-69421443D01*
X164993434Y-69350852D01*
X164845949Y-69314500D01*
X164694051Y-69314500D01*
X164595727Y-69338734D01*
X164546565Y-69350852D01*
X164475973Y-69387901D01*
X164412066Y-69421443D01*
X164412064Y-69421444D01*
X164412065Y-69421444D01*
X164298368Y-69522169D01*
X164212078Y-69647182D01*
X164158214Y-69789210D01*
X164139906Y-69940000D01*
X134303824Y-69940000D01*
X134305645Y-69925000D01*
X134285140Y-69756128D01*
X134243823Y-69647182D01*
X134224819Y-69597072D01*
X134207664Y-69572219D01*
X134128183Y-69457071D01*
X134000852Y-69344266D01*
X133850225Y-69265210D01*
X133685056Y-69224500D01*
X133514944Y-69224500D01*
X133349774Y-69265210D01*
X133349775Y-69265210D01*
X133199146Y-69344267D01*
X133071818Y-69457070D01*
X133071817Y-69457071D01*
X133041104Y-69501566D01*
X132975180Y-69597072D01*
X132914859Y-69756128D01*
X132894354Y-69924999D01*
X111901189Y-69924999D01*
X111900780Y-68201438D01*
X111911888Y-68162428D01*
X111941893Y-68135132D01*
X111981780Y-68127755D01*
X112019561Y-68142511D01*
X112116901Y-68216507D01*
X112116902Y-68216507D01*
X112116903Y-68216508D01*
X112279859Y-68291900D01*
X112279860Y-68291900D01*
X112279862Y-68291901D01*
X112455221Y-68330500D01*
X113439760Y-68330500D01*
X113439761Y-68330500D01*
X113573506Y-68315954D01*
X113658583Y-68287288D01*
X113743662Y-68258622D01*
X113897517Y-68166050D01*
X114027875Y-68042569D01*
X114128640Y-67893951D01*
X114195101Y-67727147D01*
X114224150Y-67549955D01*
X114216562Y-67410000D01*
X131854354Y-67410000D01*
X131874859Y-67578871D01*
X131935180Y-67737927D01*
X131935181Y-67737929D01*
X131935182Y-67737930D01*
X132031817Y-67877929D01*
X132159148Y-67990734D01*
X132309775Y-68069790D01*
X132474944Y-68110500D01*
X132645055Y-68110500D01*
X132645056Y-68110500D01*
X132810225Y-68069790D01*
X132960852Y-67990734D01*
X133088183Y-67877929D01*
X133184818Y-67737930D01*
X133245140Y-67578872D01*
X133265645Y-67410000D01*
X133245140Y-67241128D01*
X133214293Y-67159789D01*
X133184819Y-67082072D01*
X133184818Y-67082070D01*
X133088183Y-66942071D01*
X132960852Y-66829266D01*
X132810225Y-66750210D01*
X132645056Y-66709500D01*
X132474944Y-66709500D01*
X132309774Y-66750210D01*
X132309775Y-66750210D01*
X132159146Y-66829267D01*
X132031818Y-66942070D01*
X132031817Y-66942071D01*
X132002494Y-66984553D01*
X131935180Y-67082072D01*
X131874859Y-67241128D01*
X131854354Y-67410000D01*
X114216562Y-67410000D01*
X114214429Y-67370661D01*
X114166393Y-67197649D01*
X114082286Y-67039008D01*
X113966044Y-66902157D01*
X113823099Y-66793493D01*
X113823098Y-66793492D01*
X113823096Y-66793491D01*
X113660140Y-66718099D01*
X113484779Y-66679500D01*
X112500240Y-66679500D01*
X112500239Y-66679500D01*
X112366493Y-66694045D01*
X112196338Y-66751377D01*
X112042482Y-66843950D01*
X112025481Y-66860054D01*
X111987543Y-66879187D01*
X111945335Y-66874300D01*
X111912774Y-66847003D01*
X111900593Y-66806298D01*
X111900728Y-66499999D01*
X136194354Y-66499999D01*
X136214859Y-66668871D01*
X136275180Y-66827927D01*
X136275181Y-66827929D01*
X136275182Y-66827930D01*
X136371817Y-66967929D01*
X136499148Y-67080734D01*
X136649775Y-67159790D01*
X136814944Y-67200500D01*
X136985055Y-67200500D01*
X136985056Y-67200500D01*
X137150225Y-67159790D01*
X137300852Y-67080734D01*
X137428183Y-66967929D01*
X137524818Y-66827930D01*
X137585140Y-66668872D01*
X137605645Y-66500000D01*
X137585140Y-66331128D01*
X137524818Y-66172070D01*
X137428183Y-66032071D01*
X137300852Y-65919266D01*
X137150225Y-65840210D01*
X136985056Y-65799500D01*
X136814944Y-65799500D01*
X136649774Y-65840210D01*
X136649775Y-65840210D01*
X136499146Y-65919267D01*
X136371818Y-66032070D01*
X136275180Y-66172072D01*
X136214859Y-66331128D01*
X136194354Y-66499999D01*
X111900728Y-66499999D01*
X111901214Y-65400000D01*
X132744354Y-65400000D01*
X132764859Y-65568871D01*
X132825180Y-65727927D01*
X132825181Y-65727929D01*
X132825182Y-65727930D01*
X132921817Y-65867929D01*
X133049148Y-65980734D01*
X133199775Y-66059790D01*
X133364944Y-66100500D01*
X133535055Y-66100500D01*
X133535056Y-66100500D01*
X133700225Y-66059790D01*
X133850852Y-65980734D01*
X133978183Y-65867929D01*
X134074818Y-65727930D01*
X134135140Y-65568872D01*
X134155645Y-65400000D01*
X139644354Y-65400000D01*
X139664859Y-65568871D01*
X139725180Y-65727927D01*
X139725181Y-65727929D01*
X139725182Y-65727930D01*
X139821817Y-65867929D01*
X139949148Y-65980734D01*
X140099775Y-66059790D01*
X140264944Y-66100500D01*
X140435055Y-66100500D01*
X140435056Y-66100500D01*
X140600225Y-66059790D01*
X140737450Y-65987768D01*
X175693788Y-65987768D01*
X175723413Y-66257015D01*
X175786937Y-66500000D01*
X175791928Y-66519088D01*
X175897870Y-66768390D01*
X176038982Y-66999610D01*
X176212255Y-67207820D01*
X176413998Y-67388582D01*
X176639910Y-67538044D01*
X176772104Y-67600014D01*
X176885178Y-67653021D01*
X177144568Y-67731060D01*
X177412558Y-67770500D01*
X177412561Y-67770500D01*
X177615625Y-67770500D01*
X177615631Y-67770500D01*
X177818156Y-67755677D01*
X178082553Y-67696780D01*
X178335558Y-67600014D01*
X178571777Y-67467441D01*
X178786177Y-67301888D01*
X178974186Y-67106881D01*
X179131799Y-66886579D01*
X179255656Y-66645675D01*
X179343118Y-66389305D01*
X179392319Y-66122933D01*
X179402212Y-65852235D01*
X179372586Y-65582982D01*
X179304072Y-65320912D01*
X179198130Y-65071610D01*
X179057018Y-64840390D01*
X178883745Y-64632180D01*
X178828652Y-64582817D01*
X178682002Y-64451418D01*
X178665936Y-64440789D01*
X178456090Y-64301956D01*
X178430586Y-64290000D01*
X178210821Y-64186978D01*
X177951431Y-64108939D01*
X177683442Y-64069500D01*
X177683439Y-64069500D01*
X177480369Y-64069500D01*
X177277844Y-64084323D01*
X177031449Y-64139210D01*
X177013443Y-64143221D01*
X176760445Y-64239984D01*
X176524222Y-64372559D01*
X176309820Y-64538114D01*
X176121814Y-64733118D01*
X175964200Y-64953421D01*
X175840345Y-65194321D01*
X175752881Y-65450698D01*
X175703681Y-65717064D01*
X175693788Y-65987768D01*
X140737450Y-65987768D01*
X140750852Y-65980734D01*
X140878183Y-65867929D01*
X140974818Y-65727930D01*
X141035140Y-65568872D01*
X141055645Y-65400000D01*
X141035140Y-65231128D01*
X140974818Y-65072070D01*
X140878183Y-64932071D01*
X140750852Y-64819266D01*
X140600225Y-64740210D01*
X140435056Y-64699500D01*
X140264944Y-64699500D01*
X140128549Y-64733118D01*
X140099775Y-64740210D01*
X139949146Y-64819267D01*
X139821818Y-64932070D01*
X139725180Y-65072072D01*
X139664859Y-65231128D01*
X139644354Y-65400000D01*
X134155645Y-65400000D01*
X134135140Y-65231128D01*
X134074818Y-65072070D01*
X133978183Y-64932071D01*
X133850852Y-64819266D01*
X133700225Y-64740210D01*
X133535056Y-64699500D01*
X133364944Y-64699500D01*
X133228549Y-64733118D01*
X133199775Y-64740210D01*
X133049146Y-64819267D01*
X132921818Y-64932070D01*
X132825180Y-65072072D01*
X132764859Y-65231128D01*
X132744354Y-65400000D01*
X111901214Y-65400000D01*
X111901841Y-63980000D01*
X160964354Y-63980000D01*
X160984859Y-64148871D01*
X161045180Y-64307927D01*
X161045181Y-64307929D01*
X161045182Y-64307930D01*
X161141817Y-64447929D01*
X161269148Y-64560734D01*
X161419775Y-64639790D01*
X161584944Y-64680500D01*
X161755055Y-64680500D01*
X161755056Y-64680500D01*
X161920225Y-64639790D01*
X162070852Y-64560734D01*
X162198183Y-64447929D01*
X162294818Y-64307930D01*
X162301618Y-64289999D01*
X169099906Y-64289999D01*
X169118214Y-64440789D01*
X169163702Y-64560732D01*
X169172079Y-64582819D01*
X169258368Y-64707830D01*
X169372066Y-64808557D01*
X169506566Y-64879148D01*
X169654051Y-64915500D01*
X169805947Y-64915500D01*
X169805949Y-64915500D01*
X169953434Y-64879148D01*
X170087934Y-64808557D01*
X170201632Y-64707830D01*
X170287921Y-64582819D01*
X170341785Y-64440791D01*
X170360094Y-64290000D01*
X170341785Y-64139209D01*
X170287921Y-63997181D01*
X170201632Y-63872170D01*
X170087934Y-63771443D01*
X169953434Y-63700852D01*
X169805949Y-63664500D01*
X169654051Y-63664500D01*
X169555727Y-63688734D01*
X169506565Y-63700852D01*
X169435973Y-63737901D01*
X169372066Y-63771443D01*
X169372064Y-63771444D01*
X169372065Y-63771444D01*
X169258368Y-63872169D01*
X169172078Y-63997182D01*
X169118214Y-64139210D01*
X169099906Y-64289999D01*
X162301618Y-64289999D01*
X162355140Y-64148872D01*
X162375645Y-63980000D01*
X162355140Y-63811128D01*
X162340090Y-63771443D01*
X162294819Y-63652072D01*
X162294818Y-63652070D01*
X162198183Y-63512071D01*
X162070852Y-63399266D01*
X161920225Y-63320210D01*
X161755056Y-63279500D01*
X161584944Y-63279500D01*
X161419775Y-63320209D01*
X161419775Y-63320210D01*
X161269146Y-63399267D01*
X161141818Y-63512070D01*
X161141817Y-63512071D01*
X161118472Y-63545892D01*
X161045180Y-63652072D01*
X160984859Y-63811128D01*
X160964354Y-63980000D01*
X111901841Y-63980000D01*
X111902649Y-62150000D01*
X115244354Y-62150000D01*
X115264859Y-62318871D01*
X115325180Y-62477927D01*
X115325181Y-62477929D01*
X115325182Y-62477930D01*
X115421817Y-62617929D01*
X115549148Y-62730734D01*
X115699775Y-62809790D01*
X115864944Y-62850500D01*
X116035055Y-62850500D01*
X116035056Y-62850500D01*
X116200225Y-62809790D01*
X116350852Y-62730734D01*
X116478183Y-62617929D01*
X116574818Y-62477930D01*
X116623335Y-62350000D01*
X139194354Y-62350000D01*
X139214859Y-62518871D01*
X139275180Y-62677927D01*
X139275181Y-62677929D01*
X139275182Y-62677930D01*
X139371817Y-62817929D01*
X139499148Y-62930734D01*
X139649775Y-63009790D01*
X139814944Y-63050500D01*
X139985055Y-63050500D01*
X139985056Y-63050500D01*
X140150225Y-63009790D01*
X140300852Y-62930734D01*
X140428183Y-62817929D01*
X140524818Y-62677930D01*
X140585140Y-62518872D01*
X140605645Y-62350000D01*
X140585140Y-62181128D01*
X140569542Y-62139999D01*
X142824354Y-62139999D01*
X142844859Y-62308871D01*
X142905180Y-62467927D01*
X142905181Y-62467929D01*
X142905182Y-62467930D01*
X143001817Y-62607929D01*
X143129148Y-62720734D01*
X143279775Y-62799790D01*
X143444944Y-62840500D01*
X143615055Y-62840500D01*
X143615056Y-62840500D01*
X143780225Y-62799790D01*
X143930852Y-62720734D01*
X144058183Y-62607929D01*
X144154818Y-62467930D01*
X144215140Y-62308872D01*
X144235645Y-62140000D01*
X144215140Y-61971128D01*
X144158611Y-61822072D01*
X144154819Y-61812072D01*
X144154818Y-61812070D01*
X144058183Y-61672071D01*
X143930852Y-61559266D01*
X143780225Y-61480210D01*
X143615056Y-61439500D01*
X143444944Y-61439500D01*
X143279775Y-61480209D01*
X143279775Y-61480210D01*
X143129146Y-61559267D01*
X143027294Y-61649500D01*
X143001817Y-61672071D01*
X142969605Y-61718737D01*
X142905180Y-61812072D01*
X142844859Y-61971128D01*
X142824354Y-62139999D01*
X140569542Y-62139999D01*
X140524818Y-62022070D01*
X140428183Y-61882071D01*
X140300852Y-61769266D01*
X140150225Y-61690210D01*
X139985056Y-61649500D01*
X139814944Y-61649500D01*
X139723373Y-61672070D01*
X139649775Y-61690210D01*
X139499146Y-61769267D01*
X139371818Y-61882070D01*
X139275180Y-62022072D01*
X139214859Y-62181128D01*
X139194354Y-62350000D01*
X116623335Y-62350000D01*
X116635140Y-62318872D01*
X116655645Y-62150000D01*
X116635140Y-61981128D01*
X116574818Y-61822070D01*
X116478183Y-61682071D01*
X116350852Y-61569266D01*
X116200225Y-61490210D01*
X116035056Y-61449500D01*
X115864944Y-61449500D01*
X115740347Y-61480210D01*
X115699775Y-61490210D01*
X115549146Y-61569267D01*
X115421818Y-61682070D01*
X115325180Y-61822072D01*
X115264859Y-61981128D01*
X115244354Y-62150000D01*
X111902649Y-62150000D01*
X111904051Y-58975000D01*
X126644354Y-58975000D01*
X126664859Y-59143871D01*
X126725180Y-59302927D01*
X126725181Y-59302929D01*
X126725182Y-59302930D01*
X126821817Y-59442929D01*
X126949148Y-59555734D01*
X127099775Y-59634790D01*
X127264944Y-59675500D01*
X127435055Y-59675500D01*
X127435056Y-59675500D01*
X127600225Y-59634790D01*
X127750852Y-59555734D01*
X127878183Y-59442929D01*
X127974818Y-59302930D01*
X128035140Y-59143872D01*
X128055645Y-58975000D01*
X128035140Y-58806128D01*
X127974818Y-58647070D01*
X127878183Y-58507071D01*
X127750852Y-58394266D01*
X127600225Y-58315210D01*
X127435056Y-58274500D01*
X127264944Y-58274500D01*
X127099774Y-58315210D01*
X127099775Y-58315210D01*
X126949146Y-58394267D01*
X126821818Y-58507070D01*
X126725180Y-58647072D01*
X126664859Y-58806128D01*
X126644354Y-58975000D01*
X111904051Y-58975000D01*
X111905250Y-56260000D01*
X144034354Y-56260000D01*
X144054859Y-56428871D01*
X144115180Y-56587927D01*
X144115181Y-56587929D01*
X144115182Y-56587930D01*
X144211817Y-56727929D01*
X144339148Y-56840734D01*
X144489775Y-56919790D01*
X144654944Y-56960500D01*
X144825055Y-56960500D01*
X144825056Y-56960500D01*
X144990225Y-56919790D01*
X145140852Y-56840734D01*
X145268183Y-56727929D01*
X145364818Y-56587930D01*
X145425140Y-56428872D01*
X145445645Y-56260000D01*
X145425140Y-56091128D01*
X145364818Y-55932070D01*
X145268183Y-55792071D01*
X145140852Y-55679266D01*
X144990225Y-55600210D01*
X144825056Y-55559500D01*
X144654944Y-55559500D01*
X144489775Y-55600209D01*
X144489775Y-55600210D01*
X144339146Y-55679267D01*
X144211818Y-55792070D01*
X144115180Y-55932072D01*
X144054859Y-56091128D01*
X144034354Y-56260000D01*
X111905250Y-56260000D01*
X111905884Y-54824999D01*
X115319354Y-54824999D01*
X115339859Y-54993871D01*
X115400180Y-55152927D01*
X115400181Y-55152929D01*
X115400182Y-55152930D01*
X115496817Y-55292929D01*
X115624148Y-55405734D01*
X115774775Y-55484790D01*
X115939944Y-55525500D01*
X116110055Y-55525500D01*
X116110056Y-55525500D01*
X116275225Y-55484790D01*
X116425852Y-55405734D01*
X116553183Y-55292929D01*
X116649818Y-55152930D01*
X116710140Y-54993872D01*
X116727610Y-54849999D01*
X121619354Y-54849999D01*
X121639859Y-55018871D01*
X121700180Y-55177927D01*
X121700181Y-55177929D01*
X121700182Y-55177930D01*
X121796817Y-55317929D01*
X121924148Y-55430734D01*
X122074775Y-55509790D01*
X122239944Y-55550500D01*
X122410055Y-55550500D01*
X122410056Y-55550500D01*
X122575225Y-55509790D01*
X122725852Y-55430734D01*
X122853183Y-55317929D01*
X122949818Y-55177930D01*
X123010140Y-55018872D01*
X123030645Y-54850000D01*
X123027609Y-54825000D01*
X123018502Y-54749999D01*
X130894354Y-54749999D01*
X130914859Y-54918871D01*
X130975180Y-55077927D01*
X130975181Y-55077929D01*
X130975182Y-55077930D01*
X131071817Y-55217929D01*
X131199148Y-55330734D01*
X131349775Y-55409790D01*
X131514944Y-55450500D01*
X131685055Y-55450500D01*
X131685056Y-55450500D01*
X131850225Y-55409790D01*
X132000852Y-55330734D01*
X132128183Y-55217929D01*
X132224818Y-55077930D01*
X132273335Y-54950000D01*
X136254354Y-54950000D01*
X136274859Y-55118871D01*
X136335180Y-55277927D01*
X136335181Y-55277929D01*
X136335182Y-55277930D01*
X136431817Y-55417929D01*
X136559148Y-55530734D01*
X136709775Y-55609790D01*
X136874944Y-55650500D01*
X137045055Y-55650500D01*
X137045056Y-55650500D01*
X137210225Y-55609790D01*
X137360852Y-55530734D01*
X137488183Y-55417929D01*
X137584818Y-55277930D01*
X137645140Y-55118872D01*
X137665645Y-54950000D01*
X137645140Y-54781128D01*
X137633335Y-54750000D01*
X137584819Y-54622072D01*
X137584818Y-54622070D01*
X137488183Y-54482071D01*
X137360852Y-54369266D01*
X137210225Y-54290210D01*
X137045056Y-54249500D01*
X136874944Y-54249500D01*
X136742801Y-54282070D01*
X136709775Y-54290210D01*
X136559146Y-54369267D01*
X136499544Y-54422070D01*
X136431817Y-54482071D01*
X136404206Y-54522072D01*
X136335180Y-54622072D01*
X136274859Y-54781128D01*
X136254354Y-54950000D01*
X132273335Y-54950000D01*
X132285140Y-54918872D01*
X132305645Y-54750000D01*
X132285140Y-54581128D01*
X132253262Y-54497072D01*
X132224819Y-54422072D01*
X132197208Y-54382071D01*
X132128183Y-54282071D01*
X132000852Y-54169266D01*
X131850225Y-54090210D01*
X131685056Y-54049500D01*
X131514944Y-54049500D01*
X131349774Y-54090210D01*
X131349775Y-54090210D01*
X131199146Y-54169267D01*
X131071818Y-54282070D01*
X130975180Y-54422072D01*
X130914859Y-54581128D01*
X130894354Y-54749999D01*
X123018502Y-54749999D01*
X123010140Y-54681128D01*
X122949819Y-54522072D01*
X122949818Y-54522070D01*
X122853183Y-54382071D01*
X122725852Y-54269266D01*
X122575225Y-54190210D01*
X122410056Y-54149500D01*
X122239944Y-54149500D01*
X122074775Y-54190209D01*
X122074775Y-54190210D01*
X121924146Y-54269267D01*
X121825037Y-54357070D01*
X121796817Y-54382071D01*
X121769206Y-54422072D01*
X121700180Y-54522072D01*
X121639859Y-54681128D01*
X121619354Y-54849999D01*
X116727610Y-54849999D01*
X116730645Y-54825000D01*
X116710140Y-54656128D01*
X116649818Y-54497070D01*
X116553183Y-54357071D01*
X116425852Y-54244266D01*
X116275225Y-54165210D01*
X116110056Y-54124500D01*
X115939944Y-54124500D01*
X115838514Y-54149500D01*
X115774775Y-54165210D01*
X115624146Y-54244267D01*
X115496818Y-54357070D01*
X115496817Y-54357071D01*
X115488399Y-54369267D01*
X115400180Y-54497072D01*
X115339859Y-54656128D01*
X115319354Y-54824999D01*
X111905884Y-54824999D01*
X111907684Y-50747768D01*
X124893788Y-50747768D01*
X124923413Y-51017015D01*
X124991927Y-51279086D01*
X125013855Y-51330687D01*
X125097870Y-51528390D01*
X125238982Y-51759610D01*
X125412255Y-51967820D01*
X125613998Y-52148582D01*
X125839910Y-52298044D01*
X125972104Y-52360014D01*
X126085178Y-52413021D01*
X126344568Y-52491060D01*
X126612558Y-52530500D01*
X126612561Y-52530500D01*
X126815625Y-52530500D01*
X126815631Y-52530500D01*
X127018156Y-52515677D01*
X127282553Y-52456780D01*
X127535558Y-52360014D01*
X127771777Y-52227441D01*
X127986177Y-52061888D01*
X128174186Y-51866881D01*
X128331799Y-51646579D01*
X128368670Y-51574865D01*
X129153500Y-51574865D01*
X129156414Y-51599989D01*
X129156415Y-51599991D01*
X129201794Y-51702765D01*
X129281235Y-51782206D01*
X129384009Y-51827585D01*
X129409135Y-51830500D01*
X131198864Y-51830499D01*
X131198865Y-51830499D01*
X131207239Y-51829527D01*
X131223991Y-51827585D01*
X131326765Y-51782206D01*
X131406206Y-51702765D01*
X131451585Y-51599991D01*
X131454500Y-51574865D01*
X131454499Y-50679999D01*
X131688570Y-50679999D01*
X131708243Y-50892309D01*
X131766594Y-51097389D01*
X131861632Y-51288254D01*
X131988024Y-51455621D01*
X131990128Y-51458407D01*
X132147698Y-51602052D01*
X132328981Y-51714298D01*
X132527802Y-51791321D01*
X132737390Y-51830500D01*
X132950609Y-51830500D01*
X132950610Y-51830500D01*
X133160198Y-51791321D01*
X133359019Y-51714298D01*
X133540302Y-51602052D01*
X133697872Y-51458407D01*
X133826366Y-51288255D01*
X133826365Y-51288255D01*
X133826367Y-51288254D01*
X133921405Y-51097389D01*
X133979756Y-50892309D01*
X133986066Y-50824218D01*
X133999429Y-50680000D01*
X133999429Y-50679999D01*
X134228570Y-50679999D01*
X134248243Y-50892309D01*
X134306594Y-51097389D01*
X134401632Y-51288254D01*
X134528024Y-51455621D01*
X134530128Y-51458407D01*
X134687698Y-51602052D01*
X134868981Y-51714298D01*
X135067802Y-51791321D01*
X135277390Y-51830500D01*
X135490609Y-51830500D01*
X135490610Y-51830500D01*
X135700198Y-51791321D01*
X135899019Y-51714298D01*
X136080302Y-51602052D01*
X136237872Y-51458407D01*
X136366366Y-51288255D01*
X136366365Y-51288255D01*
X136366367Y-51288254D01*
X136461405Y-51097389D01*
X136516145Y-50905000D01*
X136792375Y-50905000D01*
X136847062Y-51097209D01*
X136942059Y-51287990D01*
X137070496Y-51458065D01*
X137228004Y-51601653D01*
X137409204Y-51713847D01*
X137607939Y-51790838D01*
X137698999Y-51807859D01*
X137699000Y-51807859D01*
X137699000Y-50905000D01*
X138149000Y-50905000D01*
X138149000Y-51807859D01*
X138240060Y-51790838D01*
X138438795Y-51713847D01*
X138619995Y-51601653D01*
X138777503Y-51458065D01*
X138905940Y-51287990D01*
X139000937Y-51097209D01*
X139055625Y-50905000D01*
X138149000Y-50905000D01*
X137699000Y-50905000D01*
X136792375Y-50905000D01*
X136516145Y-50905000D01*
X136519756Y-50892309D01*
X136526066Y-50824218D01*
X136539429Y-50680000D01*
X136539429Y-50679999D01*
X139308570Y-50679999D01*
X139328243Y-50892309D01*
X139386594Y-51097389D01*
X139481632Y-51288254D01*
X139608024Y-51455621D01*
X139610128Y-51458407D01*
X139767698Y-51602052D01*
X139948981Y-51714298D01*
X140147802Y-51791321D01*
X140357390Y-51830500D01*
X140570609Y-51830500D01*
X140570610Y-51830500D01*
X140780198Y-51791321D01*
X140979019Y-51714298D01*
X141160302Y-51602052D01*
X141317872Y-51458407D01*
X141446366Y-51288255D01*
X141446365Y-51288255D01*
X141446367Y-51288254D01*
X141541405Y-51097389D01*
X141599756Y-50892309D01*
X141606065Y-50824218D01*
X141619429Y-50680000D01*
X141619429Y-50679999D01*
X141848570Y-50679999D01*
X141868243Y-50892309D01*
X141926594Y-51097389D01*
X142021632Y-51288254D01*
X142148024Y-51455621D01*
X142150128Y-51458407D01*
X142307698Y-51602052D01*
X142488981Y-51714298D01*
X142687802Y-51791321D01*
X142897390Y-51830500D01*
X143110609Y-51830500D01*
X143110610Y-51830500D01*
X143320198Y-51791321D01*
X143519019Y-51714298D01*
X143700302Y-51602052D01*
X143857872Y-51458407D01*
X143986366Y-51288255D01*
X143986365Y-51288255D01*
X143986367Y-51288254D01*
X144081405Y-51097389D01*
X144139756Y-50892309D01*
X144146065Y-50824218D01*
X144159429Y-50680000D01*
X144159429Y-50679999D01*
X144388570Y-50679999D01*
X144408243Y-50892309D01*
X144466594Y-51097389D01*
X144561632Y-51288254D01*
X144688024Y-51455621D01*
X144690128Y-51458407D01*
X144847698Y-51602052D01*
X145028981Y-51714298D01*
X145227802Y-51791321D01*
X145437390Y-51830500D01*
X145650609Y-51830500D01*
X145650610Y-51830500D01*
X145860198Y-51791321D01*
X146059019Y-51714298D01*
X146240302Y-51602052D01*
X146397872Y-51458407D01*
X146526366Y-51288255D01*
X146526365Y-51288255D01*
X146526367Y-51288254D01*
X146621405Y-51097389D01*
X146679756Y-50892309D01*
X146686065Y-50824218D01*
X146699429Y-50680000D01*
X146699429Y-50679999D01*
X146928570Y-50679999D01*
X146948243Y-50892309D01*
X147006594Y-51097389D01*
X147101632Y-51288254D01*
X147228024Y-51455621D01*
X147230128Y-51458407D01*
X147387698Y-51602052D01*
X147568981Y-51714298D01*
X147767802Y-51791321D01*
X147977390Y-51830500D01*
X148190609Y-51830500D01*
X148190610Y-51830500D01*
X148400198Y-51791321D01*
X148599019Y-51714298D01*
X148780302Y-51602052D01*
X148937872Y-51458407D01*
X149066366Y-51288255D01*
X149066365Y-51288255D01*
X149066367Y-51288254D01*
X149161405Y-51097389D01*
X149219756Y-50892309D01*
X149226065Y-50824218D01*
X149239429Y-50680000D01*
X149239429Y-50679999D01*
X149468570Y-50679999D01*
X149488243Y-50892309D01*
X149546594Y-51097389D01*
X149641632Y-51288254D01*
X149768024Y-51455621D01*
X149770128Y-51458407D01*
X149927698Y-51602052D01*
X150108981Y-51714298D01*
X150307802Y-51791321D01*
X150517390Y-51830500D01*
X150730609Y-51830500D01*
X150730610Y-51830500D01*
X150940198Y-51791321D01*
X151139019Y-51714298D01*
X151320302Y-51602052D01*
X151477872Y-51458407D01*
X151606366Y-51288255D01*
X151606365Y-51288255D01*
X151606367Y-51288254D01*
X151701405Y-51097389D01*
X151759756Y-50892309D01*
X151766065Y-50824218D01*
X151779429Y-50680000D01*
X151779429Y-50679999D01*
X152008570Y-50679999D01*
X152028243Y-50892309D01*
X152086594Y-51097389D01*
X152181632Y-51288254D01*
X152308024Y-51455621D01*
X152310128Y-51458407D01*
X152467698Y-51602052D01*
X152648981Y-51714298D01*
X152847802Y-51791321D01*
X153057390Y-51830500D01*
X153270609Y-51830500D01*
X153270610Y-51830500D01*
X153480198Y-51791321D01*
X153679019Y-51714298D01*
X153860302Y-51602052D01*
X153890125Y-51574865D01*
X156077500Y-51574865D01*
X156080414Y-51599989D01*
X156080415Y-51599991D01*
X156125794Y-51702765D01*
X156205235Y-51782206D01*
X156308009Y-51827585D01*
X156333135Y-51830500D01*
X158122864Y-51830499D01*
X158122865Y-51830499D01*
X158131239Y-51829527D01*
X158147991Y-51827585D01*
X158250765Y-51782206D01*
X158330206Y-51702765D01*
X158375585Y-51599991D01*
X158378500Y-51574865D01*
X158378499Y-50679999D01*
X158612570Y-50679999D01*
X158632243Y-50892309D01*
X158690594Y-51097389D01*
X158785632Y-51288254D01*
X158912024Y-51455621D01*
X158914128Y-51458407D01*
X159071698Y-51602052D01*
X159252981Y-51714298D01*
X159451802Y-51791321D01*
X159661390Y-51830500D01*
X159874609Y-51830500D01*
X159874610Y-51830500D01*
X160084198Y-51791321D01*
X160283019Y-51714298D01*
X160464302Y-51602052D01*
X160621872Y-51458407D01*
X160750366Y-51288255D01*
X160750365Y-51288255D01*
X160750367Y-51288254D01*
X160845405Y-51097389D01*
X160903756Y-50892309D01*
X160910065Y-50824218D01*
X160923429Y-50680000D01*
X160923429Y-50679999D01*
X161152570Y-50679999D01*
X161172243Y-50892309D01*
X161230594Y-51097389D01*
X161325632Y-51288254D01*
X161452024Y-51455621D01*
X161454128Y-51458407D01*
X161611698Y-51602052D01*
X161792981Y-51714298D01*
X161991802Y-51791321D01*
X162201390Y-51830500D01*
X162414609Y-51830500D01*
X162414610Y-51830500D01*
X162624198Y-51791321D01*
X162823019Y-51714298D01*
X163004302Y-51602052D01*
X163161872Y-51458407D01*
X163290366Y-51288255D01*
X163290365Y-51288255D01*
X163290367Y-51288254D01*
X163385405Y-51097389D01*
X163443756Y-50892309D01*
X163450065Y-50824218D01*
X163463429Y-50680000D01*
X163463429Y-50679999D01*
X163692570Y-50679999D01*
X163712243Y-50892309D01*
X163770594Y-51097389D01*
X163865632Y-51288254D01*
X163992024Y-51455621D01*
X163994128Y-51458407D01*
X164151698Y-51602052D01*
X164332981Y-51714298D01*
X164531802Y-51791321D01*
X164741390Y-51830500D01*
X164954609Y-51830500D01*
X164954610Y-51830500D01*
X165164198Y-51791321D01*
X165363019Y-51714298D01*
X165544302Y-51602052D01*
X165701872Y-51458407D01*
X165830366Y-51288255D01*
X165830365Y-51288255D01*
X165830367Y-51288254D01*
X165925405Y-51097389D01*
X165983756Y-50892309D01*
X165990065Y-50824218D01*
X166003429Y-50680000D01*
X166003429Y-50679999D01*
X166232570Y-50679999D01*
X166252243Y-50892309D01*
X166310594Y-51097389D01*
X166405632Y-51288254D01*
X166532024Y-51455621D01*
X166534128Y-51458407D01*
X166691698Y-51602052D01*
X166872981Y-51714298D01*
X167071802Y-51791321D01*
X167281390Y-51830500D01*
X167494609Y-51830500D01*
X167494610Y-51830500D01*
X167704198Y-51791321D01*
X167903019Y-51714298D01*
X168084302Y-51602052D01*
X168241872Y-51458407D01*
X168370366Y-51288255D01*
X168370365Y-51288255D01*
X168370367Y-51288254D01*
X168465405Y-51097389D01*
X168523756Y-50892309D01*
X168530065Y-50824218D01*
X168543429Y-50680000D01*
X168543429Y-50679999D01*
X168772570Y-50679999D01*
X168792243Y-50892309D01*
X168850594Y-51097389D01*
X168945632Y-51288254D01*
X169072024Y-51455621D01*
X169074128Y-51458407D01*
X169231698Y-51602052D01*
X169412981Y-51714298D01*
X169611802Y-51791321D01*
X169821390Y-51830500D01*
X170034609Y-51830500D01*
X170034610Y-51830500D01*
X170244198Y-51791321D01*
X170443019Y-51714298D01*
X170624302Y-51602052D01*
X170781872Y-51458407D01*
X170910366Y-51288255D01*
X170910365Y-51288255D01*
X170910367Y-51288254D01*
X171005405Y-51097389D01*
X171063756Y-50892309D01*
X171070065Y-50824218D01*
X171083429Y-50680000D01*
X171083429Y-50679999D01*
X171312570Y-50679999D01*
X171332243Y-50892309D01*
X171390594Y-51097389D01*
X171485632Y-51288254D01*
X171612024Y-51455621D01*
X171614128Y-51458407D01*
X171771698Y-51602052D01*
X171952981Y-51714298D01*
X172151802Y-51791321D01*
X172361390Y-51830500D01*
X172574609Y-51830500D01*
X172574610Y-51830500D01*
X172784198Y-51791321D01*
X172983019Y-51714298D01*
X173164302Y-51602052D01*
X173321872Y-51458407D01*
X173450366Y-51288255D01*
X173450365Y-51288255D01*
X173450367Y-51288254D01*
X173545405Y-51097389D01*
X173603756Y-50892309D01*
X173610065Y-50824218D01*
X173623429Y-50680000D01*
X173623429Y-50679999D01*
X173852570Y-50679999D01*
X173872243Y-50892309D01*
X173930594Y-51097389D01*
X174025632Y-51288254D01*
X174152024Y-51455621D01*
X174154128Y-51458407D01*
X174311698Y-51602052D01*
X174492981Y-51714298D01*
X174691802Y-51791321D01*
X174901390Y-51830500D01*
X175114609Y-51830500D01*
X175114610Y-51830500D01*
X175324198Y-51791321D01*
X175523019Y-51714298D01*
X175704302Y-51602052D01*
X175861872Y-51458407D01*
X175990366Y-51288255D01*
X175990365Y-51288255D01*
X175990367Y-51288254D01*
X176085405Y-51097389D01*
X176143756Y-50892309D01*
X176150065Y-50824218D01*
X176163429Y-50680000D01*
X176143756Y-50467690D01*
X176110825Y-50351950D01*
X176085405Y-50262610D01*
X175990367Y-50071745D01*
X175888832Y-49937294D01*
X175861872Y-49901593D01*
X175704302Y-49757948D01*
X175523019Y-49645702D01*
X175324198Y-49568679D01*
X175114610Y-49529500D01*
X174901390Y-49529500D01*
X174796595Y-49549089D01*
X174691801Y-49568679D01*
X174492980Y-49645702D01*
X174383611Y-49713421D01*
X174311698Y-49757948D01*
X174154128Y-49901593D01*
X174154125Y-49901596D01*
X174025632Y-50071745D01*
X173930594Y-50262610D01*
X173872243Y-50467690D01*
X173852570Y-50679999D01*
X173623429Y-50679999D01*
X173603756Y-50467690D01*
X173570825Y-50351950D01*
X173545405Y-50262610D01*
X173450367Y-50071745D01*
X173348832Y-49937294D01*
X173321872Y-49901593D01*
X173164302Y-49757948D01*
X172983019Y-49645702D01*
X172784198Y-49568679D01*
X172574610Y-49529500D01*
X172361390Y-49529500D01*
X172256595Y-49549089D01*
X172151801Y-49568679D01*
X171952980Y-49645702D01*
X171843611Y-49713421D01*
X171771698Y-49757948D01*
X171614128Y-49901593D01*
X171614125Y-49901596D01*
X171485632Y-50071745D01*
X171390594Y-50262610D01*
X171332243Y-50467690D01*
X171312570Y-50679999D01*
X171083429Y-50679999D01*
X171063756Y-50467690D01*
X171030825Y-50351950D01*
X171005405Y-50262610D01*
X170910367Y-50071745D01*
X170808832Y-49937294D01*
X170781872Y-49901593D01*
X170624302Y-49757948D01*
X170443019Y-49645702D01*
X170244198Y-49568679D01*
X170034610Y-49529500D01*
X169821390Y-49529500D01*
X169716595Y-49549089D01*
X169611801Y-49568679D01*
X169412980Y-49645702D01*
X169303611Y-49713421D01*
X169231698Y-49757948D01*
X169074128Y-49901593D01*
X169074125Y-49901596D01*
X168945632Y-50071745D01*
X168850594Y-50262610D01*
X168792243Y-50467690D01*
X168772570Y-50679999D01*
X168543429Y-50679999D01*
X168523756Y-50467690D01*
X168490825Y-50351950D01*
X168465405Y-50262610D01*
X168370367Y-50071745D01*
X168268832Y-49937294D01*
X168241872Y-49901593D01*
X168084302Y-49757948D01*
X167903019Y-49645702D01*
X167704198Y-49568679D01*
X167494610Y-49529500D01*
X167281390Y-49529500D01*
X167176595Y-49549089D01*
X167071801Y-49568679D01*
X166872980Y-49645702D01*
X166763611Y-49713421D01*
X166691698Y-49757948D01*
X166534128Y-49901593D01*
X166534125Y-49901596D01*
X166405632Y-50071745D01*
X166310594Y-50262610D01*
X166252243Y-50467690D01*
X166232570Y-50679999D01*
X166003429Y-50679999D01*
X165983756Y-50467690D01*
X165950825Y-50351950D01*
X165925405Y-50262610D01*
X165830367Y-50071745D01*
X165728832Y-49937294D01*
X165701872Y-49901593D01*
X165544302Y-49757948D01*
X165363019Y-49645702D01*
X165164198Y-49568679D01*
X164954610Y-49529500D01*
X164741390Y-49529500D01*
X164636595Y-49549089D01*
X164531801Y-49568679D01*
X164332980Y-49645702D01*
X164223611Y-49713421D01*
X164151698Y-49757948D01*
X163994128Y-49901593D01*
X163994125Y-49901596D01*
X163865632Y-50071745D01*
X163770594Y-50262610D01*
X163712243Y-50467690D01*
X163692570Y-50679999D01*
X163463429Y-50679999D01*
X163443756Y-50467690D01*
X163410825Y-50351950D01*
X163385405Y-50262610D01*
X163290367Y-50071745D01*
X163188832Y-49937294D01*
X163161872Y-49901593D01*
X163004302Y-49757948D01*
X162823019Y-49645702D01*
X162624198Y-49568679D01*
X162414610Y-49529500D01*
X162201390Y-49529500D01*
X162096595Y-49549089D01*
X161991801Y-49568679D01*
X161792980Y-49645702D01*
X161683611Y-49713421D01*
X161611698Y-49757948D01*
X161454128Y-49901593D01*
X161454125Y-49901596D01*
X161325632Y-50071745D01*
X161230594Y-50262610D01*
X161172243Y-50467690D01*
X161152570Y-50679999D01*
X160923429Y-50679999D01*
X160903756Y-50467690D01*
X160870825Y-50351950D01*
X160845405Y-50262610D01*
X160750367Y-50071745D01*
X160648832Y-49937294D01*
X160621872Y-49901593D01*
X160464302Y-49757948D01*
X160283019Y-49645702D01*
X160084198Y-49568679D01*
X159874610Y-49529500D01*
X159661390Y-49529500D01*
X159556595Y-49549089D01*
X159451801Y-49568679D01*
X159252980Y-49645702D01*
X159143611Y-49713421D01*
X159071698Y-49757948D01*
X158914128Y-49901593D01*
X158914125Y-49901596D01*
X158785632Y-50071745D01*
X158690594Y-50262610D01*
X158632243Y-50467690D01*
X158612570Y-50679999D01*
X158378499Y-50679999D01*
X158378499Y-49785136D01*
X158375585Y-49760009D01*
X158330206Y-49657235D01*
X158250765Y-49577794D01*
X158205384Y-49557756D01*
X158147990Y-49532414D01*
X158122865Y-49529500D01*
X156333134Y-49529500D01*
X156308010Y-49532414D01*
X156205235Y-49577794D01*
X156125794Y-49657235D01*
X156080414Y-49760009D01*
X156077500Y-49785134D01*
X156077500Y-51574865D01*
X153890125Y-51574865D01*
X154017872Y-51458407D01*
X154146366Y-51288255D01*
X154146365Y-51288255D01*
X154146367Y-51288254D01*
X154241405Y-51097389D01*
X154299756Y-50892309D01*
X154306065Y-50824218D01*
X154319429Y-50680000D01*
X154299756Y-50467690D01*
X154266825Y-50351950D01*
X154241405Y-50262610D01*
X154146367Y-50071745D01*
X154044832Y-49937294D01*
X154017872Y-49901593D01*
X153860302Y-49757948D01*
X153679019Y-49645702D01*
X153480198Y-49568679D01*
X153270610Y-49529500D01*
X153057390Y-49529500D01*
X152952595Y-49549089D01*
X152847801Y-49568679D01*
X152648980Y-49645702D01*
X152539611Y-49713421D01*
X152467698Y-49757948D01*
X152310128Y-49901593D01*
X152310125Y-49901596D01*
X152181632Y-50071745D01*
X152086594Y-50262610D01*
X152028243Y-50467690D01*
X152008570Y-50679999D01*
X151779429Y-50679999D01*
X151759756Y-50467690D01*
X151726825Y-50351950D01*
X151701405Y-50262610D01*
X151606367Y-50071745D01*
X151504832Y-49937294D01*
X151477872Y-49901593D01*
X151320302Y-49757948D01*
X151139019Y-49645702D01*
X150940198Y-49568679D01*
X150730610Y-49529500D01*
X150517390Y-49529500D01*
X150412595Y-49549089D01*
X150307801Y-49568679D01*
X150108980Y-49645702D01*
X149999611Y-49713421D01*
X149927698Y-49757948D01*
X149770128Y-49901593D01*
X149770125Y-49901596D01*
X149641632Y-50071745D01*
X149546594Y-50262610D01*
X149488243Y-50467690D01*
X149468570Y-50679999D01*
X149239429Y-50679999D01*
X149219756Y-50467690D01*
X149186825Y-50351950D01*
X149161405Y-50262610D01*
X149066367Y-50071745D01*
X148964832Y-49937294D01*
X148937872Y-49901593D01*
X148780302Y-49757948D01*
X148599019Y-49645702D01*
X148400198Y-49568679D01*
X148190610Y-49529500D01*
X147977390Y-49529500D01*
X147872595Y-49549089D01*
X147767801Y-49568679D01*
X147568980Y-49645702D01*
X147459611Y-49713421D01*
X147387698Y-49757948D01*
X147230128Y-49901593D01*
X147230125Y-49901596D01*
X147101632Y-50071745D01*
X147006594Y-50262610D01*
X146948243Y-50467690D01*
X146928570Y-50679999D01*
X146699429Y-50679999D01*
X146679756Y-50467690D01*
X146646825Y-50351950D01*
X146621405Y-50262610D01*
X146526367Y-50071745D01*
X146424832Y-49937294D01*
X146397872Y-49901593D01*
X146240302Y-49757948D01*
X146059019Y-49645702D01*
X145860198Y-49568679D01*
X145650610Y-49529500D01*
X145437390Y-49529500D01*
X145332595Y-49549089D01*
X145227801Y-49568679D01*
X145028980Y-49645702D01*
X144919611Y-49713421D01*
X144847698Y-49757948D01*
X144690128Y-49901593D01*
X144690125Y-49901596D01*
X144561632Y-50071745D01*
X144466594Y-50262610D01*
X144408243Y-50467690D01*
X144388570Y-50679999D01*
X144159429Y-50679999D01*
X144139756Y-50467690D01*
X144106825Y-50351950D01*
X144081405Y-50262610D01*
X143986367Y-50071745D01*
X143884832Y-49937294D01*
X143857872Y-49901593D01*
X143700302Y-49757948D01*
X143519019Y-49645702D01*
X143320198Y-49568679D01*
X143110610Y-49529500D01*
X142897390Y-49529500D01*
X142792595Y-49549089D01*
X142687801Y-49568679D01*
X142488980Y-49645702D01*
X142379611Y-49713421D01*
X142307698Y-49757948D01*
X142150128Y-49901593D01*
X142150125Y-49901596D01*
X142021632Y-50071745D01*
X141926594Y-50262610D01*
X141868243Y-50467690D01*
X141848570Y-50679999D01*
X141619429Y-50679999D01*
X141599756Y-50467690D01*
X141566825Y-50351950D01*
X141541405Y-50262610D01*
X141446367Y-50071745D01*
X141344832Y-49937294D01*
X141317872Y-49901593D01*
X141160302Y-49757948D01*
X140979019Y-49645702D01*
X140780198Y-49568679D01*
X140570610Y-49529500D01*
X140357390Y-49529500D01*
X140252595Y-49549089D01*
X140147801Y-49568679D01*
X139948980Y-49645702D01*
X139839611Y-49713421D01*
X139767698Y-49757948D01*
X139610128Y-49901593D01*
X139610125Y-49901596D01*
X139481632Y-50071745D01*
X139386594Y-50262610D01*
X139328243Y-50467690D01*
X139308570Y-50679999D01*
X136539429Y-50679999D01*
X136519756Y-50467690D01*
X136516145Y-50455000D01*
X136792375Y-50455000D01*
X137699000Y-50455000D01*
X137699000Y-49552141D01*
X137698999Y-49552140D01*
X138149000Y-49552140D01*
X138149000Y-50455000D01*
X139055625Y-50455000D01*
X139000937Y-50262790D01*
X138905940Y-50072009D01*
X138777503Y-49901934D01*
X138619995Y-49758346D01*
X138438795Y-49646152D01*
X138240060Y-49569161D01*
X138149000Y-49552140D01*
X137698999Y-49552140D01*
X137607939Y-49569161D01*
X137409204Y-49646152D01*
X137228004Y-49758346D01*
X137070496Y-49901934D01*
X136942059Y-50072009D01*
X136847062Y-50262790D01*
X136792375Y-50455000D01*
X136516145Y-50455000D01*
X136486825Y-50351950D01*
X136461405Y-50262610D01*
X136366367Y-50071745D01*
X136264832Y-49937294D01*
X136237872Y-49901593D01*
X136080302Y-49757948D01*
X135899019Y-49645702D01*
X135700198Y-49568679D01*
X135490610Y-49529500D01*
X135277390Y-49529500D01*
X135172595Y-49549089D01*
X135067801Y-49568679D01*
X134868980Y-49645702D01*
X134759611Y-49713421D01*
X134687698Y-49757948D01*
X134530128Y-49901593D01*
X134530125Y-49901596D01*
X134401632Y-50071745D01*
X134306594Y-50262610D01*
X134248243Y-50467690D01*
X134228570Y-50679999D01*
X133999429Y-50679999D01*
X133979756Y-50467690D01*
X133946825Y-50351950D01*
X133921405Y-50262610D01*
X133826367Y-50071745D01*
X133724832Y-49937294D01*
X133697872Y-49901593D01*
X133540302Y-49757948D01*
X133359019Y-49645702D01*
X133160198Y-49568679D01*
X132950610Y-49529500D01*
X132737390Y-49529500D01*
X132632595Y-49549089D01*
X132527801Y-49568679D01*
X132328980Y-49645702D01*
X132219611Y-49713421D01*
X132147698Y-49757948D01*
X131990128Y-49901593D01*
X131990125Y-49901596D01*
X131861632Y-50071745D01*
X131766594Y-50262610D01*
X131708243Y-50467690D01*
X131688570Y-50679999D01*
X131454499Y-50679999D01*
X131454499Y-49785136D01*
X131451585Y-49760009D01*
X131406206Y-49657235D01*
X131326765Y-49577794D01*
X131281384Y-49557756D01*
X131223990Y-49532414D01*
X131198865Y-49529500D01*
X129409134Y-49529500D01*
X129384010Y-49532414D01*
X129281235Y-49577794D01*
X129201794Y-49657235D01*
X129156414Y-49760009D01*
X129153500Y-49785134D01*
X129153500Y-51574865D01*
X128368670Y-51574865D01*
X128455656Y-51405675D01*
X128543118Y-51149305D01*
X128592319Y-50882933D01*
X128602212Y-50612235D01*
X128572586Y-50342982D01*
X128504072Y-50080912D01*
X128398130Y-49831610D01*
X128257018Y-49600390D01*
X128083745Y-49392180D01*
X127882002Y-49211418D01*
X127656090Y-49061956D01*
X127656088Y-49061955D01*
X127410821Y-48946978D01*
X127151431Y-48868939D01*
X126883442Y-48829500D01*
X126883439Y-48829500D01*
X126680369Y-48829500D01*
X126477844Y-48844322D01*
X126477844Y-48844323D01*
X126213443Y-48903221D01*
X125960445Y-48999984D01*
X125724222Y-49132559D01*
X125509820Y-49298114D01*
X125321814Y-49493118D01*
X125164200Y-49713421D01*
X125040345Y-49954321D01*
X124952881Y-50210698D01*
X124903681Y-50477064D01*
X124893788Y-50747768D01*
X111907684Y-50747768D01*
X111908469Y-48970590D01*
X111908500Y-48970386D01*
X111908500Y-48906851D01*
X111909133Y-48897192D01*
X111909232Y-48896432D01*
X111919546Y-48818091D01*
X111924546Y-48799436D01*
X111953204Y-48730249D01*
X111962857Y-48713528D01*
X112008454Y-48654104D01*
X112022104Y-48640454D01*
X112081528Y-48594857D01*
X112098245Y-48585205D01*
X112167438Y-48556545D01*
X112186091Y-48551546D01*
X112265191Y-48541133D01*
X112274851Y-48540500D01*
X112327583Y-48540500D01*
X174811455Y-48540500D01*
X174839774Y-48546133D01*
G37*
%TD.AperFunction*%
%TD*%
M02*
