%TF.GenerationSoftware,KiCad,Pcbnew,7.0.1*%
%TF.CreationDate,2023-05-12T19:52:32+02:00*%
%TF.ProjectId,UFO-FPGA,55464f2d-4650-4474-912e-6b696361645f,V0.8*%
%TF.SameCoordinates,Original*%
%TF.FileFunction,Paste,Top*%
%TF.FilePolarity,Positive*%
%FSLAX46Y46*%
G04 Gerber Fmt 4.6, Leading zero omitted, Abs format (unit mm)*
G04 Created by KiCad (PCBNEW 7.0.1) date 2023-05-12 19:52:32*
%MOMM*%
%LPD*%
G01*
G04 APERTURE LIST*
G04 Aperture macros list*
%AMRoundRect*
0 Rectangle with rounded corners*
0 $1 Rounding radius*
0 $2 $3 $4 $5 $6 $7 $8 $9 X,Y pos of 4 corners*
0 Add a 4 corners polygon primitive as box body*
4,1,4,$2,$3,$4,$5,$6,$7,$8,$9,$2,$3,0*
0 Add four circle primitives for the rounded corners*
1,1,$1+$1,$2,$3*
1,1,$1+$1,$4,$5*
1,1,$1+$1,$6,$7*
1,1,$1+$1,$8,$9*
0 Add four rect primitives between the rounded corners*
20,1,$1+$1,$2,$3,$4,$5,0*
20,1,$1+$1,$4,$5,$6,$7,0*
20,1,$1+$1,$6,$7,$8,$9,0*
20,1,$1+$1,$8,$9,$2,$3,0*%
G04 Aperture macros list end*
%ADD10RoundRect,0.250000X0.450000X-0.350000X0.450000X0.350000X-0.450000X0.350000X-0.450000X-0.350000X0*%
%ADD11RoundRect,0.237500X-0.237500X0.300000X-0.237500X-0.300000X0.237500X-0.300000X0.237500X0.300000X0*%
%ADD12RoundRect,0.250000X0.450000X-0.325000X0.450000X0.325000X-0.450000X0.325000X-0.450000X-0.325000X0*%
%ADD13RoundRect,0.237500X0.237500X-0.250000X0.237500X0.250000X-0.237500X0.250000X-0.237500X-0.250000X0*%
%ADD14RoundRect,0.250000X0.337500X0.475000X-0.337500X0.475000X-0.337500X-0.475000X0.337500X-0.475000X0*%
%ADD15RoundRect,0.237500X0.300000X0.237500X-0.300000X0.237500X-0.300000X-0.237500X0.300000X-0.237500X0*%
%ADD16RoundRect,0.250000X0.475000X-0.337500X0.475000X0.337500X-0.475000X0.337500X-0.475000X-0.337500X0*%
%ADD17R,1.000000X0.900000*%
%ADD18RoundRect,0.250000X0.325000X0.450000X-0.325000X0.450000X-0.325000X-0.450000X0.325000X-0.450000X0*%
%ADD19RoundRect,0.237500X-0.300000X-0.237500X0.300000X-0.237500X0.300000X0.237500X-0.300000X0.237500X0*%
%ADD20R,1.400000X0.400000*%
%ADD21R,1.450000X1.150000*%
%ADD22R,1.900000X1.750000*%
%ADD23RoundRect,0.250000X-0.350000X-0.450000X0.350000X-0.450000X0.350000X0.450000X-0.350000X0.450000X0*%
%ADD24RoundRect,0.237500X-0.250000X-0.237500X0.250000X-0.237500X0.250000X0.237500X-0.250000X0.237500X0*%
%ADD25RoundRect,0.250000X-0.450000X0.350000X-0.450000X-0.350000X0.450000X-0.350000X0.450000X0.350000X0*%
%ADD26RoundRect,0.075000X-0.700000X-0.075000X0.700000X-0.075000X0.700000X0.075000X-0.700000X0.075000X0*%
%ADD27RoundRect,0.075000X-0.075000X-0.700000X0.075000X-0.700000X0.075000X0.700000X-0.075000X0.700000X0*%
%ADD28R,0.650000X1.560000*%
%ADD29R,0.630000X0.820000*%
%ADD30R,0.350000X0.650000*%
%ADD31RoundRect,0.237500X0.250000X0.237500X-0.250000X0.237500X-0.250000X-0.237500X0.250000X-0.237500X0*%
%ADD32RoundRect,0.250000X0.700000X-0.362500X0.700000X0.362500X-0.700000X0.362500X-0.700000X-0.362500X0*%
%ADD33RoundRect,0.150000X-0.150000X0.712500X-0.150000X-0.712500X0.150000X-0.712500X0.150000X0.712500X0*%
%ADD34RoundRect,0.250000X-0.337500X-0.475000X0.337500X-0.475000X0.337500X0.475000X-0.337500X0.475000X0*%
%ADD35RoundRect,0.075000X-0.075000X0.662500X-0.075000X-0.662500X0.075000X-0.662500X0.075000X0.662500X0*%
%ADD36RoundRect,0.075000X-0.662500X0.075000X-0.662500X-0.075000X0.662500X-0.075000X0.662500X0.075000X0*%
%ADD37RoundRect,0.237500X0.237500X-0.300000X0.237500X0.300000X-0.237500X0.300000X-0.237500X-0.300000X0*%
%ADD38RoundRect,0.237500X-0.237500X0.250000X-0.237500X-0.250000X0.237500X-0.250000X0.237500X0.250000X0*%
%ADD39RoundRect,0.150000X-0.587500X-0.150000X0.587500X-0.150000X0.587500X0.150000X-0.587500X0.150000X0*%
%ADD40RoundRect,0.100000X0.712500X0.100000X-0.712500X0.100000X-0.712500X-0.100000X0.712500X-0.100000X0*%
%ADD41RoundRect,0.250000X0.350000X0.450000X-0.350000X0.450000X-0.350000X-0.450000X0.350000X-0.450000X0*%
G04 APERTURE END LIST*
D10*
%TO.C,R4*%
X126075000Y-61000000D03*
X126075000Y-59000000D03*
%TD*%
%TO.C,R34*%
X135150000Y-56940000D03*
X135150000Y-54940000D03*
%TD*%
D11*
%TO.C,C3*%
X119075000Y-54837500D03*
X119075000Y-56562500D03*
%TD*%
D12*
%TO.C,RXLED1*%
X138650000Y-60690000D03*
X138650000Y-58640000D03*
%TD*%
D11*
%TO.C,C8*%
X125250000Y-79723752D03*
X125250000Y-81448752D03*
%TD*%
D13*
%TO.C,R11*%
X135050000Y-79137500D03*
X135050000Y-77312500D03*
%TD*%
D12*
%TO.C,TXLED1*%
X135150000Y-60690000D03*
X135150000Y-58640000D03*
%TD*%
D11*
%TO.C,C4*%
X117575000Y-54837500D03*
X117575000Y-56562500D03*
%TD*%
D14*
%TO.C,C10*%
X126900000Y-70950000D03*
X124825000Y-70950000D03*
%TD*%
D15*
%TO.C,C7*%
X126725000Y-73000000D03*
X125000000Y-73000000D03*
%TD*%
D16*
%TO.C,C5*%
X118160000Y-93147500D03*
X118160000Y-91072500D03*
%TD*%
D17*
%TO.C,U3*%
X145820000Y-73212500D03*
X144170000Y-73212500D03*
X144165000Y-74462500D03*
X145815000Y-74462500D03*
%TD*%
D15*
%TO.C,C30*%
X166540000Y-91536000D03*
X164815000Y-91536000D03*
%TD*%
D18*
%TO.C,D1*%
X174902500Y-91790000D03*
X172852500Y-91790000D03*
%TD*%
D14*
%TO.C,C44*%
X143417500Y-56260000D03*
X141342500Y-56260000D03*
%TD*%
D19*
%TO.C,C23*%
X161675000Y-66725000D03*
X163400000Y-66725000D03*
%TD*%
D15*
%TO.C,C16*%
X155954900Y-89052400D03*
X154229900Y-89052400D03*
%TD*%
D16*
%TO.C,C9*%
X123250000Y-81623752D03*
X123250000Y-79548752D03*
%TD*%
D10*
%TO.C,R3*%
X128700000Y-61000000D03*
X128700000Y-59000000D03*
%TD*%
D20*
%TO.C,J5*%
X115620000Y-69780000D03*
X115620000Y-70430000D03*
X115620000Y-71080000D03*
X115620000Y-71730000D03*
X115620000Y-72380000D03*
D21*
X115200000Y-68760000D03*
D22*
X112970000Y-69955000D03*
X112970000Y-72205000D03*
D21*
X115200000Y-73400000D03*
%TD*%
D23*
%TO.C,R2*%
X128000000Y-54750000D03*
X130000000Y-54750000D03*
%TD*%
D24*
%TO.C,R19*%
X148015000Y-61450000D03*
X149840000Y-61450000D03*
%TD*%
D25*
%TO.C,R36*%
X114930000Y-92510000D03*
X114930000Y-94510000D03*
%TD*%
D13*
%TO.C,R9*%
X132080000Y-79144500D03*
X132080000Y-77319500D03*
%TD*%
%TO.C,R12*%
X136528600Y-79137500D03*
X136528600Y-77312500D03*
%TD*%
D26*
%TO.C,U2*%
X130975000Y-65915000D03*
X130975000Y-66415000D03*
X130975000Y-66915000D03*
X130975000Y-67415000D03*
X130975000Y-67915000D03*
X130975000Y-68415000D03*
X130975000Y-68915000D03*
X130975000Y-69415000D03*
X130975000Y-69915000D03*
X130975000Y-70415000D03*
X130975000Y-70915000D03*
X130975000Y-71415000D03*
X130975000Y-71915000D03*
X130975000Y-72415000D03*
X130975000Y-72915000D03*
X130975000Y-73415000D03*
D27*
X132900000Y-75340000D03*
X133400000Y-75340000D03*
X133900000Y-75340000D03*
X134400000Y-75340000D03*
X134900000Y-75340000D03*
X135400000Y-75340000D03*
X135900000Y-75340000D03*
X136400000Y-75340000D03*
X136900000Y-75340000D03*
X137400000Y-75340000D03*
X137900000Y-75340000D03*
X138400000Y-75340000D03*
X138900000Y-75340000D03*
X139400000Y-75340000D03*
X139900000Y-75340000D03*
X140400000Y-75340000D03*
D26*
X142325000Y-73415000D03*
X142325000Y-72915000D03*
X142325000Y-72415000D03*
X142325000Y-71915000D03*
X142325000Y-71415000D03*
X142325000Y-70915000D03*
X142325000Y-70415000D03*
X142325000Y-69915000D03*
X142325000Y-69415000D03*
X142325000Y-68915000D03*
X142325000Y-68415000D03*
X142325000Y-67915000D03*
X142325000Y-67415000D03*
X142325000Y-66915000D03*
X142325000Y-66415000D03*
X142325000Y-65915000D03*
D27*
X140400000Y-63990000D03*
X139900000Y-63990000D03*
X139400000Y-63990000D03*
X138900000Y-63990000D03*
X138400000Y-63990000D03*
X137900000Y-63990000D03*
X137400000Y-63990000D03*
X136900000Y-63990000D03*
X136400000Y-63990000D03*
X135900000Y-63990000D03*
X135400000Y-63990000D03*
X134900000Y-63990000D03*
X134400000Y-63990000D03*
X133900000Y-63990000D03*
X133400000Y-63990000D03*
X132900000Y-63990000D03*
%TD*%
D28*
%TO.C,U12*%
X169250000Y-95450000D03*
X170200000Y-95450000D03*
X171150000Y-95450000D03*
X171150000Y-92750000D03*
X170200000Y-92750000D03*
X169250000Y-92750000D03*
%TD*%
D29*
%TO.C,U6*%
X122400000Y-92490000D03*
X123200000Y-92490000D03*
D30*
X122150000Y-93540000D03*
X122800000Y-93540000D03*
X123450000Y-93540000D03*
X123450000Y-91440000D03*
X122800000Y-91440000D03*
X122150000Y-91440000D03*
%TD*%
D31*
%TO.C,R23*%
X149212500Y-74800000D03*
X147387500Y-74800000D03*
%TD*%
D19*
%TO.C,C24*%
X161665000Y-65256000D03*
X163390000Y-65256000D03*
%TD*%
D32*
%TO.C,FB1*%
X119425000Y-72175000D03*
X119425000Y-68850000D03*
%TD*%
D14*
%TO.C,C11*%
X128787500Y-65550000D03*
X126712500Y-65550000D03*
%TD*%
D19*
%TO.C,C13*%
X147445000Y-73290000D03*
X149170000Y-73290000D03*
%TD*%
D12*
%TO.C,PWR1*%
X114930000Y-98292500D03*
X114930000Y-96242500D03*
%TD*%
D13*
%TO.C,R13*%
X138001800Y-79137500D03*
X138001800Y-77312500D03*
%TD*%
D33*
%TO.C,U9*%
X148971000Y-76651500D03*
X147701000Y-76651500D03*
X146431000Y-76651500D03*
X145161000Y-76651500D03*
X145161000Y-83876500D03*
X146431000Y-83876500D03*
X147701000Y-83876500D03*
X148971000Y-83876500D03*
%TD*%
D34*
%TO.C,C25*%
X122942500Y-89720000D03*
X125017500Y-89720000D03*
%TD*%
D23*
%TO.C,R30*%
X123050000Y-95820000D03*
X125050000Y-95820000D03*
%TD*%
D25*
%TO.C,R28*%
X141360000Y-77270000D03*
X141360000Y-79270000D03*
%TD*%
D15*
%TO.C,C62*%
X143512500Y-60990000D03*
X141787500Y-60990000D03*
%TD*%
D31*
%TO.C,R15*%
X149840000Y-67640000D03*
X148015000Y-67640000D03*
%TD*%
D35*
%TO.C,U4*%
X175750000Y-68478500D03*
X175250000Y-68478500D03*
X174750000Y-68478500D03*
X174250000Y-68478500D03*
X173750000Y-68478500D03*
X173250000Y-68478500D03*
X172750000Y-68478500D03*
X172250000Y-68478500D03*
X171750000Y-68478500D03*
X171250000Y-68478500D03*
X170750000Y-68478500D03*
X170250000Y-68478500D03*
X169750000Y-68478500D03*
X169250000Y-68478500D03*
X168750000Y-68478500D03*
X168250000Y-68478500D03*
X167750000Y-68478500D03*
X167250000Y-68478500D03*
X166750000Y-68478500D03*
X166250000Y-68478500D03*
X165750000Y-68478500D03*
X165250000Y-68478500D03*
X164750000Y-68478500D03*
X164250000Y-68478500D03*
X163750000Y-68478500D03*
X163250000Y-68478500D03*
X162750000Y-68478500D03*
X162250000Y-68478500D03*
X161750000Y-68478500D03*
X161250000Y-68478500D03*
X160750000Y-68478500D03*
X160250000Y-68478500D03*
X159750000Y-68478500D03*
X159250000Y-68478500D03*
X158750000Y-68478500D03*
X158250000Y-68478500D03*
D36*
X156337500Y-70391000D03*
X156337500Y-70891000D03*
X156337500Y-71391000D03*
X156337500Y-71891000D03*
X156337500Y-72391000D03*
X156337500Y-72891000D03*
X156337500Y-73391000D03*
X156337500Y-73891000D03*
X156337500Y-74391000D03*
X156337500Y-74891000D03*
X156337500Y-75391000D03*
X156337500Y-75891000D03*
X156337500Y-76391000D03*
X156337500Y-76891000D03*
X156337500Y-77391000D03*
X156337500Y-77891000D03*
X156337500Y-78391000D03*
X156337500Y-78891000D03*
X156337500Y-79391000D03*
X156337500Y-79891000D03*
X156337500Y-80391000D03*
X156337500Y-80891000D03*
X156337500Y-81391000D03*
X156337500Y-81891000D03*
X156337500Y-82391000D03*
X156337500Y-82891000D03*
X156337500Y-83391000D03*
X156337500Y-83891000D03*
X156337500Y-84391000D03*
X156337500Y-84891000D03*
X156337500Y-85391000D03*
X156337500Y-85891000D03*
X156337500Y-86391000D03*
X156337500Y-86891000D03*
X156337500Y-87391000D03*
X156337500Y-87891000D03*
D35*
X158250000Y-89803500D03*
X158750000Y-89803500D03*
X159250000Y-89803500D03*
X159750000Y-89803500D03*
X160250000Y-89803500D03*
X160750000Y-89803500D03*
X161250000Y-89803500D03*
X161750000Y-89803500D03*
X162250000Y-89803500D03*
X162750000Y-89803500D03*
X163250000Y-89803500D03*
X163750000Y-89803500D03*
X164250000Y-89803500D03*
X164750000Y-89803500D03*
X165250000Y-89803500D03*
X165750000Y-89803500D03*
X166250000Y-89803500D03*
X166750000Y-89803500D03*
X167250000Y-89803500D03*
X167750000Y-89803500D03*
X168250000Y-89803500D03*
X168750000Y-89803500D03*
X169250000Y-89803500D03*
X169750000Y-89803500D03*
X170250000Y-89803500D03*
X170750000Y-89803500D03*
X171250000Y-89803500D03*
X171750000Y-89803500D03*
X172250000Y-89803500D03*
X172750000Y-89803500D03*
X173250000Y-89803500D03*
X173750000Y-89803500D03*
X174250000Y-89803500D03*
X174750000Y-89803500D03*
X175250000Y-89803500D03*
X175750000Y-89803500D03*
D36*
X177662500Y-87891000D03*
X177662500Y-87391000D03*
X177662500Y-86891000D03*
X177662500Y-86391000D03*
X177662500Y-85891000D03*
X177662500Y-85391000D03*
X177662500Y-84891000D03*
X177662500Y-84391000D03*
X177662500Y-83891000D03*
X177662500Y-83391000D03*
X177662500Y-82891000D03*
X177662500Y-82391000D03*
X177662500Y-81891000D03*
X177662500Y-81391000D03*
X177662500Y-80891000D03*
X177662500Y-80391000D03*
X177662500Y-79891000D03*
X177662500Y-79391000D03*
X177662500Y-78891000D03*
X177662500Y-78391000D03*
X177662500Y-77891000D03*
X177662500Y-77391000D03*
X177662500Y-76891000D03*
X177662500Y-76391000D03*
X177662500Y-75891000D03*
X177662500Y-75391000D03*
X177662500Y-74891000D03*
X177662500Y-74391000D03*
X177662500Y-73891000D03*
X177662500Y-73391000D03*
X177662500Y-72891000D03*
X177662500Y-72391000D03*
X177662500Y-71891000D03*
X177662500Y-71391000D03*
X177662500Y-70891000D03*
X177662500Y-70391000D03*
%TD*%
D11*
%TO.C,C2*%
X120550000Y-54837500D03*
X120550000Y-56562500D03*
%TD*%
D10*
%TO.C,R5*%
X128825000Y-72800000D03*
X128825000Y-70800000D03*
%TD*%
D24*
%TO.C,R7*%
X147337500Y-71240000D03*
X149162500Y-71240000D03*
%TD*%
D23*
%TO.C,R32*%
X135330000Y-92770000D03*
X137330000Y-92770000D03*
%TD*%
D24*
%TO.C,R20*%
X147995000Y-59920000D03*
X149820000Y-59920000D03*
%TD*%
D31*
%TO.C,R18*%
X149830000Y-63010000D03*
X148005000Y-63010000D03*
%TD*%
D37*
%TO.C,C1*%
X114075000Y-61975000D03*
X114075000Y-60250000D03*
%TD*%
D15*
%TO.C,C29*%
X166540000Y-93060000D03*
X164815000Y-93060000D03*
%TD*%
%TO.C,C64*%
X143472500Y-57970000D03*
X141747500Y-57970000D03*
%TD*%
D25*
%TO.C,R31*%
X130210000Y-91280000D03*
X130210000Y-93280000D03*
%TD*%
D11*
%TO.C,C22*%
X153060400Y-74931100D03*
X153060400Y-76656100D03*
%TD*%
D25*
%TO.C,R29*%
X141060000Y-94300000D03*
X141060000Y-96300000D03*
%TD*%
D38*
%TO.C,R27*%
X139475000Y-77312500D03*
X139475000Y-79137500D03*
%TD*%
D24*
%TO.C,R17*%
X148005000Y-64540000D03*
X149830000Y-64540000D03*
%TD*%
D18*
%TO.C,D2*%
X142475000Y-81190000D03*
X140425000Y-81190000D03*
%TD*%
D12*
%TO.C,D3*%
X130210000Y-97095000D03*
X130210000Y-95045000D03*
%TD*%
D38*
%TO.C,R21*%
X129145800Y-77319500D03*
X129145800Y-79144500D03*
%TD*%
D31*
%TO.C,R14*%
X149840000Y-69200000D03*
X148015000Y-69200000D03*
%TD*%
D15*
%TO.C,C60*%
X143512500Y-59470000D03*
X141787500Y-59470000D03*
%TD*%
D13*
%TO.C,R10*%
X133565400Y-79144500D03*
X133565400Y-77319500D03*
%TD*%
D10*
%TO.C,R33*%
X138650000Y-56940000D03*
X138650000Y-54940000D03*
%TD*%
D24*
%TO.C,R16*%
X147995000Y-66080000D03*
X149820000Y-66080000D03*
%TD*%
D13*
%TO.C,R8*%
X130619000Y-79144500D03*
X130619000Y-77319500D03*
%TD*%
D23*
%TO.C,R40*%
X135350000Y-96700000D03*
X137350000Y-96700000D03*
%TD*%
D14*
%TO.C,C14*%
X137387500Y-94750000D03*
X135312500Y-94750000D03*
%TD*%
D11*
%TO.C,C40*%
X113090000Y-94497500D03*
X113090000Y-96222500D03*
%TD*%
D39*
%TO.C,Q1*%
X126252500Y-91480000D03*
X126252500Y-93380000D03*
X128127500Y-92430000D03*
%TD*%
D14*
%TO.C,C6*%
X138687500Y-90520000D03*
X136612500Y-90520000D03*
%TD*%
D29*
%TO.C,U1*%
X140470000Y-91450000D03*
X141270000Y-91450000D03*
D30*
X140220000Y-92500000D03*
X140870000Y-92500000D03*
X141520000Y-92500000D03*
X141520000Y-90400000D03*
X140870000Y-90400000D03*
X140220000Y-90400000D03*
%TD*%
D38*
%TO.C,R24*%
X150723600Y-74879200D03*
X150723600Y-76704200D03*
%TD*%
D11*
%TO.C,C21*%
X154584400Y-74931100D03*
X154584400Y-76656100D03*
%TD*%
D15*
%TO.C,C12*%
X128540000Y-63820000D03*
X126815000Y-63820000D03*
%TD*%
D40*
%TO.C,U5*%
X122012500Y-62125000D03*
X122012500Y-61475000D03*
X122012500Y-60825000D03*
X122012500Y-60175000D03*
X117787500Y-60175000D03*
X117787500Y-60825000D03*
X117787500Y-61475000D03*
X117787500Y-62125000D03*
%TD*%
D25*
%TO.C,R1*%
X131225000Y-58975000D03*
X131225000Y-60975000D03*
%TD*%
D31*
%TO.C,R22*%
X149787500Y-85725000D03*
X147962500Y-85725000D03*
%TD*%
D41*
%TO.C,R6*%
X127800000Y-67650000D03*
X125800000Y-67650000D03*
%TD*%
D19*
%TO.C,C59*%
X141797500Y-87320000D03*
X143522500Y-87320000D03*
%TD*%
M02*
