M48
; DRILL file {KiCad 7.0.1} date Fri May 12 19:55:30 2023
; FORMAT={-:-/ absolute / inch / decimal}
; #@! TF.CreationDate,2023-05-12T19:55:30+02:00
; #@! TF.GenerationSoftware,Kicad,Pcbnew,7.0.1
; #@! TF.FileFunction,Plated,1,4,PTH
FMAT,2
INCH
; #@! TA.AperFunction,Plated,PTH,ViaDrill
T1C0.0079
; #@! TA.AperFunction,Plated,PTH,ViaDrill
T2C0.0098
; #@! TA.AperFunction,Plated,PTH,ViaDrill
T3C0.0157
; #@! TA.AperFunction,Plated,PTH,ComponentDrill
T4C0.0177
; #@! TA.AperFunction,Plated,PTH,ViaDrill
T5C0.0197
; #@! TA.AperFunction,Plated,PTH,ViaDrill
T6C0.0315
; #@! TA.AperFunction,Plated,PTH,ComponentDrill
T7C0.0315
; #@! TA.AperFunction,Plated,PTH,ComponentDrill
T8C0.0394
%
G90
G05
T1
X6.0811Y-2.8854
T2
X4.8671Y-2.3159
X5.0167Y-2.439
X5.2884Y-3.1654
X5.3435Y-3.1969
X5.4341Y-3.1654
X5.437Y-3.2244
X5.4911Y-2.0758
X5.6447Y-3.0817
X5.6949Y-3.2394
X5.7776Y-2.5138
X5.7854Y-2.0915
X5.7854Y-2.1909
X5.8583Y-3.2343
X5.8622Y-2.1693
X5.9248Y-3.4539
X5.9478Y-2.6368
X5.9488Y-2.6978
X5.9547Y-3.3888
X6.0148Y-3.1555
X6.0354Y-3.3553
X6.1033Y-3.2047
X6.1358Y-3.6939
X6.1713Y-3.7382
X6.2087Y-3.061
X6.2175Y-3.3524
X6.2205Y-3.311
X6.487Y-2.7535
X6.5263Y-2.7527
X6.5325Y-3.8484
X6.5656Y-2.7552
X6.605Y-2.7555
X6.6823Y-2.5311
T3
X4.4472Y-3.0484
X4.4555Y-3.5299
X4.4555Y-3.8575
X4.5102Y-2.522
X4.5531Y-2.0669
X4.565Y-2.4469
X4.5669Y-2.3691
X4.5679Y-2.1585
X4.5679Y-2.2293
X4.5803Y-3.5866
X4.6122Y-2.8799
X4.622Y-2.8425
X4.6236Y-3.0134
X4.6268Y-3.7421
X4.6827Y-3.7413
X4.7118Y-2.5445
X4.7366Y-3.7445
X4.7594Y-3.5488
X4.7614Y-3.5051
X4.7894Y-3.4665
X4.7913Y-3.1309
X4.8159Y-2.1594
X4.8159Y-2.2283
X4.8335Y-2.8173
X4.8496Y-2.8933
X4.8524Y-3.2657
X4.8528Y-2.9736
X4.8787Y-2.6331
X4.8815Y-2.5579
X4.8976Y-3.6398
X4.9071Y-3.6827
X4.9311Y-3.0925
X4.9339Y-2.0957
X4.9898Y-2.9795
X4.9902Y-3.2136
X5.0051Y-3.3961
X5.0118Y-2.2313
X5.0138Y-2.3219
X5.0325Y-3.0443
X5.06Y-3.5374
X5.0724Y-3.3043
X5.0949Y-2.6679
X5.1575Y-2.5571
X5.1811Y-2.1555
X5.189Y-2.0988
X5.2189Y-2.6539
X5.2224Y-2.7825
X5.2248Y-2.8705
X5.2307Y-3.8563
X5.2313Y-3.7726
X5.2323Y-3.6894
X5.2539Y-2.5748
X5.2575Y-3.5512
X5.2598Y-2.753
X5.2844Y-3.2618
X5.2913Y-2.9124
X5.2945Y-3.411
X5.3138Y-3.3327
X5.3287Y-3.8634
X5.3888Y-2.8012
X5.3898Y-2.6181
X5.3898Y-2.9075
X5.3913Y-2.2307
X5.3921Y-2.1634
X5.4205Y-3.4626
X5.4236Y-3.4244
X5.4736Y-3.5008
X5.4744Y-3.622
X5.4803Y-3.7441
X5.4803Y-3.8071
X5.4823Y-3.6831
X5.4921Y-2.9075
X5.4941Y-2.6142
X5.5079Y-2.4547
X5.5236Y-2.1409
X5.5256Y-2.5748
X5.5266Y-2.7904
X5.5472Y-2.8514
X5.6154Y-3.5594
X5.6228Y-2.5217
X5.6407Y-3.001
X5.6508Y-2.4465
X5.6545Y-3.7382
X5.6594Y-3.3319
X5.6697Y-2.8209
X5.6949Y-3.5522
X5.6984Y-2.215
X5.7406Y-2.4429
X5.7884Y-3.6309
X5.7894Y-3.7077
X5.7972Y-3.2431
X5.8691Y-3.0807
X5.8776Y-2.0898
X5.9055Y-3.689
X5.934Y-3.11
X5.9409Y-2.8583
X5.9618Y-2.7657
X5.9803Y-2.9488
X5.9811Y-3.0181
X5.9846Y-3.4437
X5.9921Y-3.1205
X6.0098Y-3.7146
X6.026Y-2.3862
X6.0276Y-2.4508
X6.0287Y-2.5106
X6.0484Y-2.0882
X6.0724Y-3.087
X6.1008Y-2.6146
X6.1142Y-3.6073
X6.1551Y-2.3079
X6.156Y-3.552
X6.2039Y-3.2051
X6.212Y-3.104
X6.2146Y-2.8304
X6.2244Y-3.8055
X6.2378Y-3.4012
X6.2937Y-2.4307
X6.302Y-3.2555
X6.3378Y-3.8055
X6.3567Y-3.1539
X6.365Y-2.5189
X6.3701Y-2.1232
X6.385Y-2.785
X6.4323Y-2.5217
X6.4339Y-3.6091
X6.4835Y-2.2449
X6.5059Y-2.7929
X6.5126Y-3.1504
X6.5457Y-2.7929
X6.5516Y-3.7091
X6.5579Y-2.8945
X6.5697Y-2.1008
X6.5858Y-2.7929
X6.5937Y-2.3516
X6.6039Y-3.4142
X6.6132Y-3.6988
X6.6417Y-3.0728
X6.6591Y-2.085
X6.6736Y-2.7661
X6.715Y-2.2445
X6.7508Y-2.1791
X6.7618Y-3.4636
X6.772Y-3.8346
X6.82Y-2.755
X6.8209Y-3.4756
X6.828Y-3.4122
X6.8307Y-2.6112
X6.8311Y-2.185
X6.8472Y-2.0874
X6.8474Y-3.7461
X6.8484Y-2.8902
X6.9193Y-3.8022
X6.9201Y-2.8508
X6.925Y-3.03
X6.9307Y-3.0874
X6.9327Y-3.2098
X6.9346Y-3.1476
X6.948Y-2.1449
X6.9516Y-2.422
X6.9528Y-3.9104
X7.0541Y-3.0079
T5
X4.7571Y-3.6406
X5.6122Y-3.6
T6
X4.7012Y-2.9193
T7
X5.902Y-3.5445
X5.9689Y-3.2039
X5.9689Y-3.2827
X5.9807Y-3.5445
X6.0476Y-3.2039
X6.0476Y-3.2827
T8
X5.1301Y-1.9953
X5.2301Y-1.9953
X5.3301Y-1.9953
X5.4301Y-1.9953
X5.5102Y-3.9173
X5.5301Y-1.9953
X5.6102Y-3.9173
X5.6301Y-1.9953
X5.7102Y-3.9173
X5.7301Y-1.9953
X5.8102Y-3.9173
X5.8301Y-1.9953
X5.9102Y-3.9173
X5.9301Y-1.9953
X6.0102Y-3.9173
X6.0301Y-1.9953
X6.1102Y-3.9173
X6.1901Y-1.9953
X6.2102Y-3.9173
X6.2901Y-1.9953
X6.3665Y-3.9173
X6.3901Y-1.9953
X6.4665Y-3.9173
X6.4901Y-1.9953
X6.5665Y-3.9173
X6.5901Y-1.9953
X6.6665Y-3.9173
X6.6901Y-1.9953
X6.7665Y-3.9173
X6.7901Y-1.9953
X6.8665Y-3.9173
X6.8901Y-1.9953
T4
G00X4.4319Y-2.6577
M15
G01X4.4634Y-2.6577
M16
G05
G00X4.4634Y-2.9392
M15
G01X4.4319Y-2.9392
M16
G05
T0
M30
