%TF.GenerationSoftware,KiCad,Pcbnew,7.0.1*%
%TF.CreationDate,2023-05-12T19:52:32+02:00*%
%TF.ProjectId,UFO-FPGA,55464f2d-4650-4474-912e-6b696361645f,V0.8*%
%TF.SameCoordinates,Original*%
%TF.FileFunction,Soldermask,Bot*%
%TF.FilePolarity,Negative*%
%FSLAX46Y46*%
G04 Gerber Fmt 4.6, Leading zero omitted, Abs format (unit mm)*
G04 Created by KiCad (PCBNEW 7.0.1) date 2023-05-12 19:52:32*
%MOMM*%
%LPD*%
G01*
G04 APERTURE LIST*
G04 Aperture macros list*
%AMRoundRect*
0 Rectangle with rounded corners*
0 $1 Rounding radius*
0 $2 $3 $4 $5 $6 $7 $8 $9 X,Y pos of 4 corners*
0 Add a 4 corners polygon primitive as box body*
4,1,4,$2,$3,$4,$5,$6,$7,$8,$9,$2,$3,0*
0 Add four circle primitives for the rounded corners*
1,1,$1+$1,$2,$3*
1,1,$1+$1,$4,$5*
1,1,$1+$1,$6,$7*
1,1,$1+$1,$8,$9*
0 Add four rect primitives between the rounded corners*
20,1,$1+$1,$2,$3,$4,$5,0*
20,1,$1+$1,$4,$5,$6,$7,0*
20,1,$1+$1,$6,$7,$8,$9,0*
20,1,$1+$1,$8,$9,$2,$3,0*%
G04 Aperture macros list end*
%ADD10R,1.700000X1.700000*%
%ADD11O,1.700000X1.700000*%
%ADD12C,3.200000*%
%ADD13O,1.900000X1.050000*%
%ADD14R,1.350000X1.350000*%
%ADD15O,1.350000X1.350000*%
%ADD16RoundRect,0.250000X-0.475000X0.337500X-0.475000X-0.337500X0.475000X-0.337500X0.475000X0.337500X0*%
%ADD17RoundRect,0.250000X-0.337500X-0.475000X0.337500X-0.475000X0.337500X0.475000X-0.337500X0.475000X0*%
%ADD18RoundRect,0.250000X-0.450000X0.350000X-0.450000X-0.350000X0.450000X-0.350000X0.450000X0.350000X0*%
%ADD19RoundRect,0.250000X0.475000X-0.337500X0.475000X0.337500X-0.475000X0.337500X-0.475000X-0.337500X0*%
%ADD20RoundRect,0.250000X0.337500X0.475000X-0.337500X0.475000X-0.337500X-0.475000X0.337500X-0.475000X0*%
%ADD21R,1.000000X1.000000*%
%ADD22RoundRect,0.250000X-0.350000X-0.450000X0.350000X-0.450000X0.350000X0.450000X-0.350000X0.450000X0*%
G04 APERTURE END LIST*
D10*
%TO.C,J2*%
X161710000Y-99500000D03*
D11*
X164250000Y-99500000D03*
X166790000Y-99500000D03*
X169330000Y-99500000D03*
X171870000Y-99500000D03*
X174410000Y-99500000D03*
%TD*%
D12*
%TO.C,MH2*%
X125478000Y-98940000D03*
%TD*%
D10*
%TO.C,J3*%
X130304000Y-50680000D03*
D11*
X132844000Y-50680000D03*
X135384000Y-50680000D03*
X137924000Y-50680000D03*
X140464000Y-50680000D03*
X143004000Y-50680000D03*
X145544000Y-50680000D03*
X148084000Y-50680000D03*
X150624000Y-50680000D03*
X153164000Y-50680000D03*
%TD*%
D13*
%TO.C,J5*%
X112970000Y-67505000D03*
X112970000Y-74655000D03*
%TD*%
D10*
%TO.C,J4*%
X157228000Y-50680000D03*
D11*
X159768000Y-50680000D03*
X162308000Y-50680000D03*
X164848000Y-50680000D03*
X167388000Y-50680000D03*
X169928000Y-50680000D03*
X172468000Y-50680000D03*
X175008000Y-50680000D03*
%TD*%
D14*
%TO.C,J6*%
X151610000Y-81380000D03*
D15*
X153610000Y-81380000D03*
X151610000Y-83380000D03*
X153610000Y-83380000D03*
%TD*%
D14*
%TO.C,JP1*%
X151910000Y-90030000D03*
D15*
X149910000Y-90030000D03*
%TD*%
D10*
%TO.C,J1*%
X139960000Y-99500000D03*
D11*
X142500000Y-99500000D03*
X145040000Y-99500000D03*
X147580000Y-99500000D03*
X150120000Y-99500000D03*
X152660000Y-99500000D03*
X155200000Y-99500000D03*
X157740000Y-99500000D03*
%TD*%
D12*
%TO.C,MH1*%
X126748000Y-50680000D03*
%TD*%
%TO.C,MH3*%
X177548000Y-65920000D03*
%TD*%
%TO.C,MH4*%
X177548000Y-93860000D03*
%TD*%
D16*
%TO.C,C31*%
X172420000Y-81772500D03*
X172420000Y-83847500D03*
%TD*%
D17*
%TO.C,C17*%
X159605200Y-74755800D03*
X161680200Y-74755800D03*
%TD*%
D18*
%TO.C,R26*%
X170460000Y-78040000D03*
X170460000Y-80040000D03*
%TD*%
D19*
%TO.C,C20*%
X174400000Y-80087500D03*
X174400000Y-78012500D03*
%TD*%
D20*
%TO.C,C15*%
X148662500Y-81050000D03*
X146587500Y-81050000D03*
%TD*%
D16*
%TO.C,C69*%
X164510000Y-81622500D03*
X164510000Y-83697500D03*
%TD*%
%TO.C,C67*%
X166490000Y-81612500D03*
X166490000Y-83687500D03*
%TD*%
%TO.C,C43*%
X168478100Y-81639700D03*
X168478100Y-83714700D03*
%TD*%
D21*
%TO.C,TP6*%
X168470000Y-79760000D03*
%TD*%
D22*
%TO.C,R25*%
X159630000Y-78670000D03*
X161630000Y-78670000D03*
%TD*%
D17*
%TO.C,C18*%
X159614000Y-76739600D03*
X161689000Y-76739600D03*
%TD*%
D16*
%TO.C,C61*%
X162520000Y-81612500D03*
X162520000Y-83687500D03*
%TD*%
%TO.C,C32*%
X174420000Y-81812500D03*
X174420000Y-83887500D03*
%TD*%
D19*
%TO.C,C19*%
X172430000Y-80077500D03*
X172430000Y-78002500D03*
%TD*%
D21*
%TO.C,TP3*%
X156500000Y-86440000D03*
%TD*%
%TO.C,TP5*%
X159830000Y-72480000D03*
%TD*%
M02*
