%TF.GenerationSoftware,KiCad,Pcbnew,7.0.1*%
%TF.CreationDate,2023-05-12T19:52:32+02:00*%
%TF.ProjectId,UFO-FPGA,55464f2d-4650-4474-912e-6b696361645f,V0.8*%
%TF.SameCoordinates,Original*%
%TF.FileFunction,Copper,L3,Inr*%
%TF.FilePolarity,Positive*%
%FSLAX46Y46*%
G04 Gerber Fmt 4.6, Leading zero omitted, Abs format (unit mm)*
G04 Created by KiCad (PCBNEW 7.0.1) date 2023-05-12 19:52:32*
%MOMM*%
%LPD*%
G01*
G04 APERTURE LIST*
%TA.AperFunction,ComponentPad*%
%ADD10R,1.700000X1.700000*%
%TD*%
%TA.AperFunction,ComponentPad*%
%ADD11O,1.700000X1.700000*%
%TD*%
%TA.AperFunction,ComponentPad*%
%ADD12O,1.900000X1.050000*%
%TD*%
%TA.AperFunction,ComponentPad*%
%ADD13R,1.350000X1.350000*%
%TD*%
%TA.AperFunction,ComponentPad*%
%ADD14O,1.350000X1.350000*%
%TD*%
%TA.AperFunction,ViaPad*%
%ADD15C,0.800000*%
%TD*%
%TA.AperFunction,ViaPad*%
%ADD16C,0.650000*%
%TD*%
%TA.AperFunction,ViaPad*%
%ADD17C,1.400000*%
%TD*%
%TA.AperFunction,ViaPad*%
%ADD18C,0.900000*%
%TD*%
%TA.AperFunction,ViaPad*%
%ADD19C,1.000000*%
%TD*%
%TA.AperFunction,ViaPad*%
%ADD20C,0.600000*%
%TD*%
%TA.AperFunction,Conductor*%
%ADD21C,0.250000*%
%TD*%
G04 APERTURE END LIST*
D10*
%TO.N,PIN-22*%
%TO.C,J2*%
X161710000Y-99500000D03*
D11*
%TO.N,PIN-21*%
X164250000Y-99500000D03*
%TO.N,PIN-20*%
X166790000Y-99500000D03*
%TO.N,PIN-19*%
X169330000Y-99500000D03*
%TO.N,PIN-18*%
X171870000Y-99500000D03*
%TO.N,AIN1*%
X174410000Y-99500000D03*
%TD*%
D10*
%TO.N,PIN-1*%
%TO.C,J3*%
X130304000Y-50680000D03*
D11*
%TO.N,PIN-2*%
X132844000Y-50680000D03*
%TO.N,PIN-3*%
X135384000Y-50680000D03*
%TO.N,GND*%
X137924000Y-50680000D03*
%TO.N,PIN-4*%
X140464000Y-50680000D03*
%TO.N,PIN-5*%
X143004000Y-50680000D03*
%TO.N,PIN-6*%
X145544000Y-50680000D03*
%TO.N,PIN-7*%
X148084000Y-50680000D03*
%TO.N,PIN-8*%
X150624000Y-50680000D03*
%TO.N,PIN-9*%
X153164000Y-50680000D03*
%TD*%
D12*
%TO.N,unconnected-(J5-Shield-Pad6)*%
%TO.C,J5*%
X112970000Y-67505000D03*
X112970000Y-74655000D03*
%TD*%
D10*
%TO.N,PIN-10*%
%TO.C,J4*%
X157228000Y-50680000D03*
D11*
%TO.N,PIN-11*%
X159768000Y-50680000D03*
%TO.N,PIN-12*%
X162308000Y-50680000D03*
%TO.N,PIN-13*%
X164848000Y-50680000D03*
%TO.N,PIN-14*%
X167388000Y-50680000D03*
%TO.N,PIN-15*%
X169928000Y-50680000D03*
%TO.N,PIN-16*%
X172468000Y-50680000D03*
%TO.N,PIN-17*%
X175008000Y-50680000D03*
%TD*%
D13*
%TO.N,Flash-MISO*%
%TO.C,J6*%
X151610000Y-81380000D03*
D14*
%TO.N,/BANK 4 - SPI Programming/ICE_MISO*%
X153610000Y-81380000D03*
%TO.N,/BANK 4 - SPI Programming/ICE_MOSI*%
X151610000Y-83380000D03*
%TO.N,Flash-MOSI*%
X153610000Y-83380000D03*
%TD*%
D13*
%TO.N,ICE_SS_B*%
%TO.C,JP1*%
X151910000Y-90030000D03*
D14*
%TO.N,/BANK 4 - SPI Programming/N25-CS*%
X149910000Y-90030000D03*
%TD*%
D10*
%TO.N,PIN-25*%
%TO.C,J1*%
X139960000Y-99500000D03*
D11*
%TO.N,PIN-24*%
X142500000Y-99500000D03*
%TO.N,PIN-23*%
X145040000Y-99500000D03*
%TO.N,+3V3*%
X147580000Y-99500000D03*
%TO.N,+5V*%
X150120000Y-99500000D03*
%TO.N,GND*%
X152660000Y-99500000D03*
X155200000Y-99500000D03*
%TO.N,unconnected-(J1-Pin_8-Pad8)*%
X157740000Y-99500000D03*
%TD*%
D15*
%TO.N,+3V3*%
X127825000Y-77325000D03*
X173228000Y-69977000D03*
X143530000Y-62140000D03*
X150000000Y-93700000D03*
X120890000Y-90140000D03*
X121650000Y-88050000D03*
X132560000Y-67410000D03*
X176090000Y-81530000D03*
X139900000Y-62350000D03*
X133600000Y-69925000D03*
X151900000Y-74900000D03*
X131600000Y-54750000D03*
X175895000Y-76962000D03*
D16*
X148800000Y-82150000D03*
D15*
X116025000Y-54825000D03*
X156362400Y-90220800D03*
X161670000Y-63980000D03*
X166410000Y-94210000D03*
X128525000Y-89850000D03*
X115950000Y-62150000D03*
X136900000Y-66500000D03*
X171750000Y-87975000D03*
X125250000Y-78550000D03*
X139500000Y-73850000D03*
X123250000Y-82950000D03*
X152200000Y-79260000D03*
X144740000Y-56260000D03*
X127350000Y-58975000D03*
X122325000Y-54850000D03*
X120940000Y-89030000D03*
X136960000Y-54950000D03*
X134400000Y-73975000D03*
%TO.N,+5V*%
X139200000Y-95100000D03*
D17*
X119410000Y-74150000D03*
D15*
X139250000Y-93550000D03*
X117520000Y-95050000D03*
X120310000Y-95110000D03*
X118940000Y-95030000D03*
X139200000Y-96700000D03*
%TO.N,GND*%
X164680000Y-57020000D03*
X123990000Y-64970000D03*
X127130000Y-86260000D03*
D16*
X155850000Y-93825000D03*
X146950000Y-55650000D03*
D15*
X116025000Y-56625000D03*
X134480000Y-86640000D03*
X158100000Y-96660000D03*
X134225000Y-82850000D03*
X166570000Y-73520000D03*
X121700000Y-79525000D03*
D16*
X139475000Y-52725000D03*
D15*
X136940000Y-56660000D03*
X122325000Y-56600000D03*
X179175000Y-76400000D03*
X117440000Y-76540000D03*
D16*
X165925000Y-97750000D03*
D15*
X158440000Y-86390000D03*
X132875000Y-95825000D03*
X129410000Y-67765500D03*
X143275000Y-76225000D03*
X165250000Y-70940000D03*
X147025000Y-92225000D03*
X123920000Y-66880000D03*
X124640000Y-93540000D03*
X140300000Y-54380000D03*
X176480000Y-54480000D03*
X161800000Y-53930000D03*
X160980000Y-96660000D03*
X150900000Y-72600000D03*
X173925000Y-95150000D03*
X139550000Y-66400000D03*
X155300000Y-91625000D03*
X119680000Y-64630000D03*
X122770000Y-71560000D03*
X113170000Y-89660000D03*
X139050000Y-92000000D03*
X117400000Y-72200000D03*
X171470000Y-55350000D03*
X157580000Y-81410000D03*
X154240000Y-78410000D03*
X144010000Y-71650000D03*
D16*
X148900000Y-55100000D03*
D15*
X131800000Y-53310000D03*
X149075000Y-78250000D03*
X152650000Y-94350000D03*
X176040000Y-78420000D03*
X169140000Y-52960000D03*
X153630000Y-53040000D03*
X114560000Y-64060000D03*
X152010000Y-87470000D03*
X127300000Y-56675000D03*
D16*
X146750000Y-63850000D03*
D15*
X147050000Y-94175000D03*
X125320000Y-53230000D03*
X134970000Y-84650000D03*
X136900000Y-73850000D03*
X116000000Y-60175000D03*
X113170000Y-97980000D03*
X123260000Y-75530000D03*
D16*
X151250000Y-86075000D03*
D15*
X153100000Y-62250000D03*
X131000000Y-64950000D03*
D16*
X152775000Y-80150000D03*
D18*
X142550000Y-91440000D03*
D16*
X144650000Y-82280000D03*
D15*
X166260000Y-70940000D03*
X173510000Y-55500000D03*
X149290000Y-53080000D03*
X126750000Y-81625000D03*
X166870000Y-53360000D03*
X144650000Y-90225000D03*
X173950000Y-73410000D03*
X169510000Y-70260000D03*
X132710000Y-72910000D03*
X167480000Y-59730000D03*
X116340000Y-91100000D03*
X117150000Y-73150000D03*
D19*
X120830000Y-92470000D03*
D15*
X173500000Y-66325000D03*
X151920000Y-76660000D03*
X167280000Y-70940000D03*
X128840000Y-83930000D03*
X163380000Y-64050000D03*
D16*
X127425000Y-61950000D03*
D15*
X167975000Y-93950000D03*
X151430000Y-70250000D03*
X159860000Y-61740000D03*
D16*
X153300000Y-85225000D03*
D15*
X163420000Y-91670000D03*
X172010000Y-97400000D03*
X156340000Y-58620000D03*
X140900000Y-72425000D03*
X176600000Y-99325000D03*
X143750000Y-84630000D03*
X112960000Y-77430000D03*
X154960000Y-66410000D03*
D16*
X138100000Y-81900000D03*
D15*
X153130000Y-63770000D03*
D16*
X151075000Y-66975000D03*
X151100000Y-68525000D03*
X155025000Y-81400000D03*
D15*
X126740000Y-75680000D03*
X173250000Y-88280000D03*
X175750000Y-96575000D03*
X175770000Y-72410000D03*
D16*
X123625000Y-58825000D03*
D15*
X123180000Y-73490000D03*
X173920000Y-53020000D03*
D16*
X146950000Y-53125000D03*
X156750000Y-94950000D03*
D15*
X132900000Y-93710000D03*
X145810000Y-62050000D03*
X132860000Y-97950000D03*
D16*
X134325000Y-80400000D03*
D15*
X160070000Y-82690000D03*
X132650000Y-70675000D03*
X170560000Y-57010000D03*
X133540000Y-90200000D03*
X143625000Y-94950000D03*
X124400000Y-92450000D03*
X153060000Y-60610000D03*
X176570000Y-61520000D03*
X115650000Y-52500000D03*
X142820000Y-64050000D03*
X147250000Y-82375000D03*
D16*
%TO.N,PIN-1*%
X164770000Y-69940000D03*
%TO.N,PIN-3*%
X165769290Y-69919396D03*
%TO.N,PIN-5*%
X166766810Y-69982322D03*
%TO.N,PIN-10*%
X169730000Y-64290000D03*
D15*
%TO.N,/POWER/PG1V2*%
X142630000Y-90410000D03*
X135350000Y-98130000D03*
%TO.N,/BANK 4 - SPI Programming/VCCPLL1*%
X176140000Y-79950000D03*
%TO.N,+1V2*%
X165420000Y-80020000D03*
X157852000Y-71891000D03*
X162179000Y-70739000D03*
X168700000Y-78050000D03*
X139030000Y-88920000D03*
X137680000Y-87950000D03*
X161460000Y-80110000D03*
X137760000Y-86980000D03*
X167740000Y-86720000D03*
X173430000Y-86670000D03*
D20*
%TO.N,ICE_CLK*%
X154460000Y-73290000D03*
D16*
X157700000Y-77750000D03*
D15*
%TO.N,/BANK 4 - SPI Programming/VCCPLL0*%
X157784800Y-78841600D03*
D16*
%TO.N,ICE_CDONE*%
X143375000Y-78275000D03*
X158000000Y-84100000D03*
%TO.N,ICE_SS_B*%
X135725000Y-81200000D03*
%TO.N,ICE_CREST*%
X157925000Y-85150000D03*
X138025000Y-80400000D03*
D15*
%TO.N,+1V8*%
X140350000Y-65400000D03*
X133450000Y-65400000D03*
X136875000Y-71150000D03*
X140375000Y-70875000D03*
%TO.N,/BANK 4 - SPI Programming/N25-CS*%
X150723600Y-78994000D03*
D16*
X150490000Y-87730000D03*
%TO.N,PIN-7*%
X167766283Y-69990049D03*
%TD*%
D21*
%TO.N,+1V8*%
X136875000Y-71150000D02*
X137150000Y-70875000D01*
X140376000Y-65426000D02*
X140376000Y-70874000D01*
X133450000Y-65400000D02*
X140350000Y-65400000D01*
X137150000Y-70875000D02*
X140375000Y-70875000D01*
%TD*%
%TA.AperFunction,Conductor*%
%TO.N,+5V*%
G36*
X116137875Y-73278477D02*
G01*
X116197996Y-73291689D01*
X116247647Y-73328076D01*
X116278352Y-73381427D01*
X116322820Y-73518283D01*
X116417467Y-73682216D01*
X116521901Y-73798202D01*
X116544129Y-73822888D01*
X116697270Y-73934151D01*
X116870197Y-74011144D01*
X117055354Y-74050500D01*
X117244645Y-74050500D01*
X117244646Y-74050500D01*
X117429803Y-74011144D01*
X117602730Y-73934151D01*
X117755871Y-73822888D01*
X117882533Y-73682216D01*
X117977179Y-73518284D01*
X117997151Y-73456816D01*
X118016230Y-73398099D01*
X118047483Y-73344138D01*
X118098083Y-73307693D01*
X118159162Y-73295147D01*
X119880885Y-73309347D01*
X119950616Y-73327325D01*
X120003773Y-73375906D01*
X120825063Y-74612455D01*
X120843615Y-74651922D01*
X120849945Y-74695070D01*
X120844499Y-79220457D01*
X120837207Y-79266320D01*
X120814326Y-79336743D01*
X120794539Y-79524999D01*
X120814326Y-79713256D01*
X120836476Y-79781430D01*
X120843768Y-79827651D01*
X120840110Y-82868112D01*
X120830048Y-82921759D01*
X120801342Y-82968182D01*
X120757844Y-83001153D01*
X119020023Y-83871673D01*
X118962914Y-83887142D01*
X118338740Y-83927544D01*
X118300899Y-83929994D01*
X117616692Y-83974281D01*
X117494464Y-83994909D01*
X117445773Y-84008370D01*
X117330289Y-84053467D01*
X117226417Y-84121137D01*
X117187136Y-84152899D01*
X117099223Y-84240306D01*
X116019791Y-85559614D01*
X115958933Y-85649314D01*
X115937495Y-85687959D01*
X115893602Y-85787079D01*
X115868089Y-85892424D01*
X115861568Y-85936165D01*
X115855245Y-86044349D01*
X115861985Y-86259994D01*
X115861985Y-86259995D01*
X115862503Y-86276574D01*
X115862503Y-86276586D01*
X115979260Y-90012824D01*
X115993529Y-90125917D01*
X115995924Y-90136640D01*
X115995324Y-90204169D01*
X115964975Y-90264498D01*
X115911112Y-90305233D01*
X115887273Y-90315847D01*
X115887270Y-90315848D01*
X115887270Y-90315849D01*
X115863818Y-90332888D01*
X115734127Y-90427113D01*
X115607467Y-90567783D01*
X115512820Y-90731717D01*
X115454326Y-90911742D01*
X115434539Y-91100000D01*
X115454326Y-91288257D01*
X115506714Y-91449491D01*
X115512821Y-91468284D01*
X115541590Y-91518113D01*
X115607467Y-91632216D01*
X115711214Y-91747439D01*
X115734129Y-91772888D01*
X115887270Y-91884151D01*
X116060197Y-91961144D01*
X116245354Y-92000500D01*
X116434645Y-92000500D01*
X116434646Y-92000500D01*
X116619803Y-91961144D01*
X116792730Y-91884151D01*
X116945871Y-91772888D01*
X117072533Y-91632216D01*
X117138399Y-91518131D01*
X117181492Y-91470917D01*
X117240403Y-91446104D01*
X117304291Y-91448261D01*
X117361395Y-91476990D01*
X118149981Y-92117716D01*
X118328243Y-92262554D01*
X118354136Y-92280089D01*
X118415416Y-92321589D01*
X118452949Y-92342495D01*
X118549027Y-92385536D01*
X118651116Y-92411285D01*
X118693526Y-92418130D01*
X118798529Y-92425806D01*
X118798531Y-92425805D01*
X118798532Y-92425806D01*
X119523102Y-92415600D01*
X119569838Y-92422429D01*
X119612091Y-92443547D01*
X119783259Y-92566441D01*
X119825428Y-92613032D01*
X119838122Y-92652572D01*
X119839716Y-92652089D01*
X119901186Y-92854728D01*
X119994087Y-93028534D01*
X119994089Y-93028537D01*
X119994090Y-93028538D01*
X120119117Y-93180883D01*
X120271462Y-93305910D01*
X120271463Y-93305910D01*
X120271465Y-93305912D01*
X120445271Y-93398813D01*
X120445273Y-93398814D01*
X120633868Y-93456024D01*
X120830000Y-93475341D01*
X121026132Y-93456024D01*
X121214727Y-93398814D01*
X121388538Y-93305910D01*
X121540883Y-93180883D01*
X121665910Y-93028538D01*
X121758814Y-92854727D01*
X121811878Y-92679797D01*
X121842036Y-92625269D01*
X121891863Y-92587841D01*
X121952632Y-92574066D01*
X123377736Y-92556655D01*
X123439046Y-92569037D01*
X123489874Y-92605493D01*
X123521260Y-92659600D01*
X123572819Y-92818282D01*
X123667467Y-92982216D01*
X123761959Y-93087160D01*
X123796975Y-93155882D01*
X123792939Y-93232904D01*
X123754325Y-93351745D01*
X123734539Y-93540000D01*
X123754326Y-93728257D01*
X123812820Y-93908282D01*
X123907467Y-94072216D01*
X124018899Y-94195974D01*
X124034129Y-94212888D01*
X124187270Y-94324151D01*
X124360197Y-94401144D01*
X124545354Y-94440500D01*
X124734645Y-94440500D01*
X124734646Y-94440500D01*
X124919803Y-94401144D01*
X125092730Y-94324151D01*
X125245871Y-94212888D01*
X125372533Y-94072216D01*
X125467179Y-93908284D01*
X125525674Y-93728256D01*
X125527593Y-93710000D01*
X131994539Y-93710000D01*
X132014326Y-93898257D01*
X132056298Y-94027434D01*
X132072821Y-94078284D01*
X132123376Y-94165848D01*
X132167467Y-94242216D01*
X132292812Y-94381426D01*
X132294129Y-94382888D01*
X132447270Y-94494151D01*
X132620197Y-94571144D01*
X132805354Y-94610500D01*
X132994645Y-94610500D01*
X132994646Y-94610500D01*
X133179803Y-94571144D01*
X133352730Y-94494151D01*
X133505871Y-94382888D01*
X133632533Y-94242216D01*
X133727179Y-94078284D01*
X133785674Y-93898256D01*
X133805460Y-93710000D01*
X133785674Y-93521744D01*
X133727179Y-93341716D01*
X133632533Y-93177784D01*
X133505871Y-93037112D01*
X133352730Y-92925849D01*
X133179803Y-92848856D01*
X132994646Y-92809500D01*
X132805354Y-92809500D01*
X132761154Y-92818895D01*
X132620196Y-92848856D01*
X132447271Y-92925848D01*
X132294127Y-93037113D01*
X132167467Y-93177783D01*
X132072820Y-93341717D01*
X132014326Y-93521742D01*
X131994539Y-93710000D01*
X125527593Y-93710000D01*
X125545460Y-93540000D01*
X125525674Y-93351744D01*
X125467179Y-93171716D01*
X125372533Y-93007784D01*
X125355405Y-92988761D01*
X125278039Y-92902837D01*
X125250617Y-92858953D01*
X125239859Y-92808336D01*
X125247061Y-92757093D01*
X125255962Y-92729701D01*
X125285674Y-92638256D01*
X125285673Y-92638256D01*
X125286873Y-92634566D01*
X125317447Y-92581361D01*
X125366870Y-92544990D01*
X125426756Y-92531621D01*
X136199099Y-92400011D01*
X136200920Y-92400000D01*
X138155107Y-92400000D01*
X138229607Y-92419962D01*
X138284144Y-92474499D01*
X138317123Y-92531621D01*
X138317468Y-92532217D01*
X138409623Y-92634566D01*
X138444129Y-92672888D01*
X138597270Y-92784151D01*
X138770197Y-92861144D01*
X138955354Y-92900500D01*
X139144645Y-92900500D01*
X139144646Y-92900500D01*
X139329803Y-92861144D01*
X139502730Y-92784151D01*
X139655871Y-92672888D01*
X139782533Y-92532216D01*
X139815855Y-92474499D01*
X139870393Y-92419962D01*
X139944893Y-92400000D01*
X139999997Y-92400000D01*
X140000000Y-92400000D01*
X142168312Y-92325820D01*
X142216647Y-92332148D01*
X142363669Y-92376747D01*
X142550000Y-92395099D01*
X142736331Y-92376747D01*
X142915501Y-92322396D01*
X142929210Y-92315067D01*
X142994351Y-92297561D01*
X143756605Y-92271484D01*
X143798470Y-92276007D01*
X143837399Y-92292062D01*
X145118193Y-93047639D01*
X145171218Y-93100945D01*
X145191462Y-93173357D01*
X145219999Y-94799998D01*
X145220000Y-94800000D01*
X149105682Y-95825000D01*
X149373578Y-95895668D01*
X149405028Y-95907918D01*
X152100934Y-97328342D01*
X152142936Y-97361279D01*
X152170636Y-97406906D01*
X152180477Y-97459367D01*
X152184096Y-98136083D01*
X152173766Y-98191397D01*
X152143660Y-98238936D01*
X152098070Y-98271919D01*
X151982169Y-98325965D01*
X151788600Y-98461503D01*
X151621505Y-98628598D01*
X151485964Y-98822172D01*
X151386097Y-99036336D01*
X151324936Y-99264592D01*
X151304341Y-99499999D01*
X151324936Y-99735407D01*
X151386097Y-99963663D01*
X151485965Y-100177830D01*
X151621505Y-100371401D01*
X151788599Y-100538495D01*
X151982170Y-100674035D01*
X152112684Y-100734895D01*
X152157908Y-100767490D01*
X152187988Y-100814427D01*
X152198711Y-100869134D01*
X152199036Y-100929700D01*
X152187924Y-100986965D01*
X152155679Y-101035576D01*
X152107242Y-101068081D01*
X152050038Y-101079500D01*
X148034926Y-101079500D01*
X147966125Y-101062665D01*
X147912872Y-101015963D01*
X147887201Y-100949948D01*
X147894912Y-100879539D01*
X147934263Y-100820645D01*
X147996363Y-100786577D01*
X148013848Y-100781891D01*
X148043663Y-100773903D01*
X148257830Y-100674035D01*
X148451401Y-100538495D01*
X148618495Y-100371401D01*
X148754035Y-100177830D01*
X148853903Y-99963663D01*
X148915063Y-99735408D01*
X148935659Y-99500000D01*
X148915063Y-99264592D01*
X148853903Y-99036337D01*
X148754035Y-98822171D01*
X148618495Y-98628599D01*
X148451401Y-98461505D01*
X148257830Y-98325965D01*
X148043663Y-98226097D01*
X147999729Y-98214325D01*
X147815407Y-98164936D01*
X147580000Y-98144341D01*
X147344592Y-98164936D01*
X147116336Y-98226097D01*
X146902172Y-98325964D01*
X146708598Y-98461505D01*
X146541505Y-98628598D01*
X146432054Y-98784911D01*
X146378800Y-98831613D01*
X146310000Y-98848448D01*
X146241200Y-98831613D01*
X146187946Y-98784911D01*
X146078494Y-98628598D01*
X145911401Y-98461505D01*
X145911398Y-98461503D01*
X145717830Y-98325965D01*
X145503663Y-98226097D01*
X145459729Y-98214325D01*
X145275407Y-98164936D01*
X145040000Y-98144341D01*
X144804592Y-98164936D01*
X144576336Y-98226097D01*
X144362172Y-98325964D01*
X144168598Y-98461505D01*
X144001505Y-98628598D01*
X143892054Y-98784911D01*
X143838800Y-98831613D01*
X143770000Y-98848448D01*
X143701200Y-98831613D01*
X143647946Y-98784911D01*
X143538494Y-98628598D01*
X143371401Y-98461505D01*
X143371398Y-98461503D01*
X143177830Y-98325965D01*
X142963663Y-98226097D01*
X142919729Y-98214325D01*
X142735407Y-98164936D01*
X142500000Y-98144341D01*
X142264592Y-98164936D01*
X142036336Y-98226097D01*
X141822172Y-98325964D01*
X141628594Y-98461508D01*
X141534179Y-98555923D01*
X141470798Y-98593529D01*
X141397148Y-98596159D01*
X141331246Y-98563170D01*
X141289215Y-98502633D01*
X141277303Y-98470695D01*
X141253796Y-98407669D01*
X141167546Y-98292454D01*
X141052331Y-98206204D01*
X140917483Y-98155909D01*
X140917482Y-98155908D01*
X140917480Y-98155908D01*
X140857876Y-98149500D01*
X139062123Y-98149500D01*
X139002518Y-98155908D01*
X138867670Y-98206203D01*
X138752454Y-98292454D01*
X138666204Y-98407669D01*
X138615908Y-98542519D01*
X138609500Y-98602123D01*
X138609500Y-100397876D01*
X138615908Y-100457481D01*
X138627082Y-100487441D01*
X138666204Y-100592331D01*
X138752454Y-100707546D01*
X138865421Y-100792113D01*
X138884820Y-100806635D01*
X138884362Y-100807246D01*
X138916871Y-100828968D01*
X138950783Y-100888521D01*
X138954452Y-100956955D01*
X138927100Y-101019792D01*
X138874514Y-101063740D01*
X138807819Y-101079500D01*
X125674039Y-101079500D01*
X125601116Y-101060435D01*
X125546854Y-101008120D01*
X125525138Y-100935942D01*
X125541527Y-100862371D01*
X125591825Y-100806234D01*
X125663162Y-100781898D01*
X125725969Y-100777300D01*
X125748156Y-100775677D01*
X126012553Y-100716780D01*
X126096887Y-100684524D01*
X126265554Y-100620016D01*
X126265558Y-100620014D01*
X126501777Y-100487441D01*
X126716177Y-100321888D01*
X126904186Y-100126881D01*
X127061799Y-99906579D01*
X127185656Y-99665675D01*
X127273118Y-99409305D01*
X127322319Y-99142933D01*
X127332212Y-98872235D01*
X127302586Y-98602982D01*
X127234072Y-98340912D01*
X127224455Y-98318282D01*
X127128130Y-98091610D01*
X127041706Y-97949999D01*
X131954539Y-97949999D01*
X131974326Y-98138257D01*
X131996403Y-98206204D01*
X132032821Y-98318284D01*
X132084427Y-98407669D01*
X132127467Y-98482216D01*
X132236205Y-98602982D01*
X132254129Y-98622888D01*
X132407270Y-98734151D01*
X132580197Y-98811144D01*
X132765354Y-98850500D01*
X132954645Y-98850500D01*
X132954646Y-98850500D01*
X133139803Y-98811144D01*
X133312730Y-98734151D01*
X133465871Y-98622888D01*
X133592533Y-98482216D01*
X133687179Y-98318284D01*
X133745674Y-98138256D01*
X133746542Y-98129999D01*
X134444539Y-98129999D01*
X134464326Y-98318257D01*
X134513856Y-98470695D01*
X134522821Y-98498284D01*
X134617467Y-98662216D01*
X134744129Y-98802888D01*
X134897270Y-98914151D01*
X135070197Y-98991144D01*
X135255354Y-99030500D01*
X135444645Y-99030500D01*
X135444646Y-99030500D01*
X135629803Y-98991144D01*
X135802730Y-98914151D01*
X135955871Y-98802888D01*
X136082533Y-98662216D01*
X136177179Y-98498284D01*
X136235674Y-98318256D01*
X136255460Y-98130000D01*
X136235674Y-97941744D01*
X136177179Y-97761716D01*
X136082533Y-97597784D01*
X135968752Y-97471418D01*
X135955872Y-97457113D01*
X135943032Y-97447784D01*
X135802730Y-97345849D01*
X135629803Y-97268856D01*
X135444646Y-97229500D01*
X135255354Y-97229500D01*
X135162775Y-97249178D01*
X135070196Y-97268856D01*
X134897271Y-97345848D01*
X134744127Y-97457113D01*
X134617467Y-97597783D01*
X134522820Y-97761717D01*
X134464326Y-97941742D01*
X134444539Y-98129999D01*
X133746542Y-98129999D01*
X133765460Y-97950000D01*
X133745674Y-97761744D01*
X133687179Y-97581716D01*
X133592533Y-97417784D01*
X133465871Y-97277112D01*
X133312730Y-97165849D01*
X133139803Y-97088856D01*
X132954646Y-97049500D01*
X132765354Y-97049500D01*
X132672775Y-97069177D01*
X132580196Y-97088856D01*
X132407271Y-97165848D01*
X132254127Y-97277113D01*
X132127467Y-97417783D01*
X132032820Y-97581717D01*
X131974326Y-97761742D01*
X131954539Y-97949999D01*
X127041706Y-97949999D01*
X126987020Y-97860393D01*
X126929890Y-97791744D01*
X126813745Y-97652180D01*
X126612002Y-97471418D01*
X126386090Y-97321956D01*
X126386086Y-97321954D01*
X126140826Y-97206980D01*
X125995372Y-97163220D01*
X125881431Y-97128940D01*
X125881427Y-97128939D01*
X125881426Y-97128939D01*
X125613439Y-97089500D01*
X125410369Y-97089500D01*
X125410363Y-97089500D01*
X125207844Y-97104322D01*
X124943444Y-97163220D01*
X124690445Y-97259983D01*
X124454219Y-97392561D01*
X124239827Y-97558108D01*
X124051812Y-97753121D01*
X123894200Y-97973420D01*
X123770343Y-98214325D01*
X123682882Y-98470691D01*
X123633681Y-98737066D01*
X123633681Y-98737067D01*
X123624396Y-98991144D01*
X123623788Y-99007768D01*
X123653414Y-99277017D01*
X123721928Y-99539090D01*
X123827869Y-99788389D01*
X123968979Y-100019606D01*
X124100651Y-100177828D01*
X124142255Y-100227820D01*
X124343998Y-100408582D01*
X124569910Y-100558044D01*
X124643047Y-100592329D01*
X124815173Y-100673019D01*
X124815175Y-100673019D01*
X124815176Y-100673020D01*
X125074569Y-100751060D01*
X125284111Y-100781898D01*
X125292197Y-100783088D01*
X125360124Y-100811467D01*
X125406174Y-100868903D01*
X125419105Y-100941376D01*
X125395760Y-101011194D01*
X125341838Y-101061314D01*
X125270502Y-101079500D01*
X112279765Y-101079500D01*
X112260316Y-101078225D01*
X112246989Y-101076470D01*
X112195884Y-101069742D01*
X112158314Y-101059675D01*
X112107372Y-101038574D01*
X112073687Y-101019126D01*
X112029942Y-100985559D01*
X112002440Y-100958057D01*
X111985470Y-100935942D01*
X111968871Y-100914310D01*
X111949425Y-100880627D01*
X111928323Y-100829682D01*
X111918257Y-100792113D01*
X111915015Y-100767490D01*
X111909775Y-100727683D01*
X111908500Y-100708235D01*
X111908500Y-100638227D01*
X111908479Y-100638094D01*
X111907848Y-97979999D01*
X112264539Y-97979999D01*
X112284326Y-98168257D01*
X112340425Y-98340912D01*
X112342821Y-98348284D01*
X112437467Y-98512216D01*
X112564129Y-98652888D01*
X112717270Y-98764151D01*
X112890197Y-98841144D01*
X113075354Y-98880500D01*
X113264645Y-98880500D01*
X113264646Y-98880500D01*
X113449803Y-98841144D01*
X113622730Y-98764151D01*
X113775871Y-98652888D01*
X113902533Y-98512216D01*
X113997179Y-98348284D01*
X114055674Y-98168256D01*
X114075460Y-97980000D01*
X114074768Y-97973420D01*
X114062889Y-97860393D01*
X114055674Y-97791744D01*
X113997179Y-97611716D01*
X113902533Y-97447784D01*
X113775871Y-97307112D01*
X113622730Y-97195849D01*
X113555347Y-97165848D01*
X113449803Y-97118856D01*
X113381425Y-97104322D01*
X113264646Y-97079500D01*
X113075354Y-97079500D01*
X112982775Y-97099177D01*
X112890196Y-97118856D01*
X112717271Y-97195848D01*
X112564127Y-97307113D01*
X112437467Y-97447783D01*
X112342820Y-97611717D01*
X112284326Y-97791742D01*
X112264539Y-97979999D01*
X111907848Y-97979999D01*
X111907336Y-95825000D01*
X131969539Y-95825000D01*
X131989326Y-96013256D01*
X132047821Y-96193284D01*
X132142467Y-96357216D01*
X132269129Y-96497888D01*
X132422270Y-96609151D01*
X132595197Y-96686144D01*
X132780354Y-96725500D01*
X132969645Y-96725500D01*
X132969646Y-96725500D01*
X133154803Y-96686144D01*
X133327730Y-96609151D01*
X133480871Y-96497888D01*
X133607533Y-96357216D01*
X133702179Y-96193284D01*
X133760674Y-96013256D01*
X133780460Y-95825000D01*
X133760674Y-95636744D01*
X133702179Y-95456716D01*
X133607533Y-95292784D01*
X133480871Y-95152112D01*
X133327730Y-95040849D01*
X133154803Y-94963856D01*
X133089610Y-94949999D01*
X142719539Y-94949999D01*
X142739326Y-95138257D01*
X142782429Y-95270915D01*
X142797821Y-95318284D01*
X142892467Y-95482216D01*
X143019129Y-95622888D01*
X143172270Y-95734151D01*
X143345197Y-95811144D01*
X143530354Y-95850500D01*
X143719645Y-95850500D01*
X143719646Y-95850500D01*
X143904803Y-95811144D01*
X144077730Y-95734151D01*
X144230871Y-95622888D01*
X144357533Y-95482216D01*
X144452179Y-95318284D01*
X144510674Y-95138256D01*
X144530460Y-94950000D01*
X144510674Y-94761744D01*
X144452179Y-94581716D01*
X144357533Y-94417784D01*
X144230871Y-94277112D01*
X144077730Y-94165849D01*
X143904803Y-94088856D01*
X143719646Y-94049500D01*
X143530354Y-94049500D01*
X143461600Y-94064114D01*
X143345196Y-94088856D01*
X143172271Y-94165848D01*
X143019127Y-94277113D01*
X142892467Y-94417783D01*
X142797820Y-94581717D01*
X142739326Y-94761742D01*
X142719539Y-94949999D01*
X133089610Y-94949999D01*
X132969646Y-94924500D01*
X132780354Y-94924500D01*
X132724030Y-94936472D01*
X132595196Y-94963856D01*
X132422271Y-95040848D01*
X132269127Y-95152113D01*
X132142467Y-95292783D01*
X132047820Y-95456717D01*
X131989326Y-95636742D01*
X131969539Y-95825000D01*
X111907336Y-95825000D01*
X111905873Y-89659999D01*
X112264539Y-89659999D01*
X112284326Y-89848257D01*
X112342820Y-90028282D01*
X112437467Y-90192216D01*
X112560570Y-90328936D01*
X112564129Y-90332888D01*
X112717270Y-90444151D01*
X112890197Y-90521144D01*
X113075354Y-90560500D01*
X113264645Y-90560500D01*
X113264646Y-90560500D01*
X113449803Y-90521144D01*
X113622730Y-90444151D01*
X113775871Y-90332888D01*
X113902533Y-90192216D01*
X113997179Y-90028284D01*
X114055674Y-89848256D01*
X114075460Y-89660000D01*
X114055674Y-89471744D01*
X113997179Y-89291716D01*
X113902533Y-89127784D01*
X113775871Y-88987112D01*
X113622730Y-88875849D01*
X113449803Y-88798856D01*
X113264646Y-88759500D01*
X113075354Y-88759500D01*
X112982775Y-88779178D01*
X112890196Y-88798856D01*
X112717271Y-88875848D01*
X112564127Y-88987113D01*
X112437467Y-89127783D01*
X112342820Y-89291717D01*
X112284326Y-89471742D01*
X112264539Y-89659999D01*
X111905873Y-89659999D01*
X111903095Y-77956493D01*
X111917043Y-77893520D01*
X111956302Y-77842338D01*
X112013514Y-77812545D01*
X112077957Y-77809725D01*
X112137553Y-77834406D01*
X112181133Y-77881963D01*
X112227467Y-77962216D01*
X112282276Y-78023088D01*
X112354129Y-78102888D01*
X112507270Y-78214151D01*
X112680197Y-78291144D01*
X112865354Y-78330500D01*
X113054645Y-78330500D01*
X113054646Y-78330500D01*
X113239803Y-78291144D01*
X113412730Y-78214151D01*
X113565871Y-78102888D01*
X113692533Y-77962216D01*
X113787179Y-77798284D01*
X113845674Y-77618256D01*
X113865460Y-77430000D01*
X113845674Y-77241744D01*
X113787179Y-77061716D01*
X113692533Y-76897784D01*
X113565871Y-76757112D01*
X113412730Y-76645849D01*
X113239803Y-76568856D01*
X113104040Y-76539999D01*
X116534539Y-76539999D01*
X116554326Y-76728257D01*
X116611430Y-76904005D01*
X116612821Y-76908284D01*
X116707467Y-77072216D01*
X116834129Y-77212888D01*
X116987270Y-77324151D01*
X117160197Y-77401144D01*
X117345354Y-77440500D01*
X117534645Y-77440500D01*
X117534646Y-77440500D01*
X117719803Y-77401144D01*
X117892730Y-77324151D01*
X118045871Y-77212888D01*
X118172533Y-77072216D01*
X118267179Y-76908284D01*
X118325674Y-76728256D01*
X118345460Y-76540000D01*
X118325674Y-76351744D01*
X118267179Y-76171716D01*
X118172533Y-76007784D01*
X118045871Y-75867112D01*
X117892730Y-75755849D01*
X117719803Y-75678856D01*
X117534646Y-75639500D01*
X117345354Y-75639500D01*
X117252775Y-75659178D01*
X117160196Y-75678856D01*
X116987271Y-75755848D01*
X116834127Y-75867113D01*
X116707467Y-76007783D01*
X116612820Y-76171717D01*
X116554326Y-76351742D01*
X116534539Y-76539999D01*
X113104040Y-76539999D01*
X113054646Y-76529500D01*
X112865354Y-76529500D01*
X112815960Y-76539999D01*
X112680196Y-76568856D01*
X112507271Y-76645848D01*
X112354127Y-76757113D01*
X112227467Y-76897783D01*
X112180883Y-76978469D01*
X112126351Y-77033003D01*
X112051859Y-77052969D01*
X111977363Y-77033017D01*
X111922821Y-76978494D01*
X111902846Y-76904009D01*
X111902763Y-76556130D01*
X111914907Y-76497180D01*
X111949389Y-76447839D01*
X112000575Y-76416170D01*
X114150000Y-75630000D01*
X115071891Y-73363684D01*
X115104392Y-73314627D01*
X115153353Y-73281979D01*
X115211136Y-73270834D01*
X116137875Y-73278477D01*
G37*
%TD.AperFunction*%
%TD*%
%TA.AperFunction,Conductor*%
%TO.N,+1V2*%
G36*
X162796239Y-67153241D02*
G01*
X162803128Y-67153388D01*
X162805941Y-67153432D01*
X162812787Y-67153500D01*
X167537458Y-67173976D01*
X167591033Y-67186405D01*
X167633964Y-67220782D01*
X169231172Y-69228700D01*
X169255248Y-69279317D01*
X169254576Y-69335365D01*
X169229293Y-69385391D01*
X169184565Y-69419172D01*
X169057269Y-69475848D01*
X168904129Y-69587110D01*
X168777467Y-69727782D01*
X168770560Y-69739747D01*
X168731793Y-69781029D01*
X168678713Y-69800768D01*
X168622393Y-69794848D01*
X168574578Y-69764504D01*
X168545242Y-69716063D01*
X168524569Y-69652438D01*
X168437805Y-69502160D01*
X168437804Y-69502159D01*
X168321693Y-69373204D01*
X168211103Y-69292855D01*
X168181306Y-69271206D01*
X168022779Y-69200625D01*
X167853049Y-69164549D01*
X167853047Y-69164549D01*
X167679519Y-69164549D01*
X167679517Y-69164549D01*
X167509784Y-69200626D01*
X167351258Y-69271207D01*
X167344745Y-69275939D01*
X167297641Y-69296909D01*
X167246080Y-69296908D01*
X167198977Y-69275935D01*
X167181834Y-69263479D01*
X167023306Y-69192898D01*
X166853576Y-69156822D01*
X166853574Y-69156822D01*
X166680046Y-69156822D01*
X166680044Y-69156822D01*
X166510313Y-69192898D01*
X166367050Y-69256684D01*
X166303653Y-69266725D01*
X166243729Y-69243722D01*
X166239093Y-69240354D01*
X166210231Y-69219384D01*
X166184313Y-69200553D01*
X166025786Y-69129972D01*
X165856056Y-69093896D01*
X165856054Y-69093896D01*
X165682526Y-69093896D01*
X165682524Y-69093896D01*
X165512791Y-69129973D01*
X165354268Y-69200553D01*
X165328348Y-69219384D01*
X165281245Y-69240355D01*
X165229685Y-69240354D01*
X165197185Y-69225885D01*
X165196930Y-69226459D01*
X165181039Y-69219384D01*
X165138911Y-69200627D01*
X165026498Y-69150577D01*
X164856766Y-69114500D01*
X164856764Y-69114500D01*
X164683236Y-69114500D01*
X164683234Y-69114500D01*
X164513505Y-69150576D01*
X164354975Y-69221158D01*
X164214589Y-69323156D01*
X164098477Y-69452111D01*
X164011713Y-69602389D01*
X163958093Y-69767420D01*
X163958092Y-69767424D01*
X163939953Y-69940000D01*
X163958092Y-70112576D01*
X163958093Y-70112579D01*
X164011713Y-70277610D01*
X164011714Y-70277611D01*
X164098478Y-70427889D01*
X164214590Y-70556845D01*
X164314817Y-70629665D01*
X164355210Y-70679546D01*
X164365251Y-70742942D01*
X164363895Y-70755849D01*
X164344540Y-70940000D01*
X164354432Y-71034127D01*
X164364326Y-71128257D01*
X164422820Y-71308284D01*
X164517466Y-71472216D01*
X164644129Y-71612889D01*
X164797269Y-71724151D01*
X164970197Y-71801144D01*
X165155352Y-71840500D01*
X165155354Y-71840500D01*
X165344646Y-71840500D01*
X165344648Y-71840500D01*
X165468083Y-71814262D01*
X165529803Y-71801144D01*
X165702730Y-71724151D01*
X165702731Y-71724149D01*
X165704564Y-71723334D01*
X165755000Y-71712613D01*
X165805436Y-71723334D01*
X165807268Y-71724149D01*
X165807270Y-71724151D01*
X165933855Y-71780511D01*
X165980197Y-71801144D01*
X166165352Y-71840500D01*
X166165354Y-71840500D01*
X166354646Y-71840500D01*
X166354648Y-71840500D01*
X166478083Y-71814262D01*
X166539803Y-71801144D01*
X166702648Y-71728640D01*
X166719563Y-71721109D01*
X166769999Y-71710388D01*
X166820435Y-71721108D01*
X166827270Y-71724151D01*
X167000197Y-71801144D01*
X167000200Y-71801144D01*
X167000201Y-71801145D01*
X167185352Y-71840500D01*
X167185354Y-71840500D01*
X167374646Y-71840500D01*
X167374648Y-71840500D01*
X167498083Y-71814262D01*
X167559803Y-71801144D01*
X167732730Y-71724151D01*
X167829515Y-71653833D01*
X167885870Y-71612889D01*
X168012533Y-71472216D01*
X168107179Y-71308284D01*
X168132621Y-71229981D01*
X168165674Y-71128256D01*
X168185460Y-70940000D01*
X168170081Y-70793679D01*
X168180122Y-70730286D01*
X168220514Y-70680405D01*
X168321693Y-70606894D01*
X168437805Y-70477938D01*
X168437804Y-70477938D01*
X168438241Y-70477454D01*
X168492073Y-70442495D01*
X168556172Y-70439136D01*
X168613363Y-70468276D01*
X168648322Y-70522108D01*
X168682820Y-70628284D01*
X168777466Y-70792216D01*
X168904129Y-70932889D01*
X169057269Y-71044151D01*
X169230197Y-71121144D01*
X169415352Y-71160500D01*
X169415354Y-71160500D01*
X169604646Y-71160500D01*
X169604648Y-71160500D01*
X169728083Y-71134262D01*
X169789803Y-71121144D01*
X169962730Y-71044151D01*
X170115871Y-70932888D01*
X170242533Y-70792216D01*
X170249189Y-70780686D01*
X170290637Y-70737671D01*
X170347387Y-70719025D01*
X170406269Y-70729076D01*
X170453620Y-70765491D01*
X170736526Y-71121144D01*
X170758556Y-71148838D01*
X170778499Y-71184915D01*
X170785513Y-71225537D01*
X170791104Y-72628827D01*
X170794216Y-73410004D01*
X170794226Y-73412412D01*
X170794226Y-73412433D01*
X170814176Y-78420004D01*
X170814186Y-78422412D01*
X170814186Y-78422433D01*
X170817976Y-79373816D01*
X170824424Y-80992223D01*
X170828626Y-81041715D01*
X170832683Y-81089509D01*
X170839246Y-81128822D01*
X170863033Y-81223511D01*
X171838996Y-84102602D01*
X171891389Y-84216650D01*
X171891390Y-84216651D01*
X171917433Y-84260647D01*
X171992209Y-84361438D01*
X172086157Y-84444648D01*
X172086164Y-84444653D01*
X172127733Y-84474396D01*
X172127737Y-84474398D01*
X172236831Y-84536459D01*
X174287766Y-85436131D01*
X174329074Y-85465585D01*
X174355129Y-85509118D01*
X174361569Y-85559442D01*
X174288947Y-86479653D01*
X174268026Y-86539393D01*
X174220345Y-86581025D01*
X174013491Y-86683429D01*
X174013487Y-86683431D01*
X173941391Y-86729201D01*
X173905341Y-86752088D01*
X173864511Y-86784545D01*
X173773233Y-86874408D01*
X173718405Y-86941217D01*
X173701218Y-86958404D01*
X173652739Y-86998190D01*
X173594933Y-87052332D01*
X173544682Y-87113563D01*
X173507299Y-87165732D01*
X173428075Y-87313953D01*
X173382465Y-87361858D01*
X173318716Y-87379500D01*
X173187472Y-87379500D01*
X173121001Y-87360179D01*
X173075245Y-87308237D01*
X173044172Y-87242111D01*
X173022598Y-87196200D01*
X173022596Y-87196197D01*
X173022595Y-87196195D01*
X172955997Y-87104280D01*
X172910500Y-87052502D01*
X172827902Y-86974621D01*
X172732235Y-86913535D01*
X172626829Y-86871373D01*
X172560721Y-86851888D01*
X172477519Y-86833611D01*
X172392554Y-86827192D01*
X168520336Y-86807799D01*
X168416042Y-86816319D01*
X168373940Y-86823460D01*
X168272657Y-86849816D01*
X168177416Y-86893220D01*
X168140249Y-86914213D01*
X168053895Y-86973379D01*
X167969951Y-87042271D01*
X167949741Y-87055775D01*
X167902661Y-87080940D01*
X167880203Y-87090242D01*
X167829117Y-87105739D01*
X167805273Y-87110482D01*
X167752151Y-87115713D01*
X167727847Y-87115713D01*
X167674725Y-87110482D01*
X167650881Y-87105739D01*
X167599795Y-87090242D01*
X167577337Y-87080940D01*
X167530257Y-87055775D01*
X167510046Y-87042270D01*
X167416566Y-86965553D01*
X167331548Y-86907146D01*
X167327066Y-86904600D01*
X167294948Y-86886352D01*
X167269003Y-86874409D01*
X167201253Y-86843222D01*
X167101608Y-86816624D01*
X167060157Y-86809271D01*
X166957423Y-86799971D01*
X159435923Y-86762301D01*
X159379834Y-86748575D01*
X159336043Y-86710936D01*
X159314046Y-86657546D01*
X159318612Y-86599988D01*
X159325674Y-86578256D01*
X159345460Y-86390000D01*
X159325674Y-86201744D01*
X159274533Y-86044348D01*
X159267179Y-86021715D01*
X159172533Y-85857783D01*
X159045870Y-85717110D01*
X158892730Y-85605848D01*
X158778189Y-85554850D01*
X158730911Y-85517912D01*
X158706509Y-85463103D01*
X158710693Y-85403256D01*
X158736908Y-85322576D01*
X158755047Y-85150000D01*
X158736908Y-84977424D01*
X158683286Y-84812389D01*
X158644760Y-84745660D01*
X158628826Y-84696622D01*
X158634216Y-84645341D01*
X158659997Y-84600688D01*
X158671522Y-84587889D01*
X158758286Y-84437611D01*
X158811908Y-84272576D01*
X158830047Y-84100000D01*
X158811908Y-83927424D01*
X158758286Y-83762389D01*
X158671522Y-83612111D01*
X158555410Y-83483155D01*
X158415024Y-83381158D01*
X158415023Y-83381157D01*
X158256496Y-83310576D01*
X158086766Y-83274500D01*
X158086764Y-83274500D01*
X157913236Y-83274500D01*
X157913234Y-83274500D01*
X157743505Y-83310576D01*
X157584975Y-83381158D01*
X157444589Y-83483156D01*
X157328477Y-83612111D01*
X157241713Y-83762389D01*
X157188133Y-83927298D01*
X157188092Y-83927424D01*
X157169953Y-84100000D01*
X157188092Y-84272576D01*
X157188093Y-84272579D01*
X157241713Y-84437610D01*
X157280239Y-84504339D01*
X157296173Y-84553377D01*
X157290783Y-84604656D01*
X157265003Y-84649310D01*
X157253477Y-84662110D01*
X157166713Y-84812389D01*
X157113093Y-84977420D01*
X157113092Y-84977424D01*
X157094953Y-85150000D01*
X157113092Y-85322576D01*
X157113093Y-85322579D01*
X157166713Y-85487610D01*
X157234978Y-85605848D01*
X157253478Y-85637889D01*
X157369590Y-85766845D01*
X157472815Y-85841843D01*
X157509977Y-85868843D01*
X157541218Y-85882752D01*
X157588497Y-85919689D01*
X157612900Y-85974499D01*
X157608715Y-86034350D01*
X157554326Y-86201742D01*
X157540065Y-86337431D01*
X157534540Y-86390000D01*
X157540180Y-86443662D01*
X157554326Y-86578258D01*
X157558138Y-86589989D01*
X157562655Y-86647858D01*
X157540340Y-86701442D01*
X157496085Y-86739000D01*
X157439585Y-86752302D01*
X153142632Y-86730782D01*
X153058412Y-86736242D01*
X153058407Y-86736242D01*
X153058407Y-86736243D01*
X152975760Y-86753362D01*
X152975755Y-86753363D01*
X152975747Y-86753365D01*
X152910012Y-86771841D01*
X152805037Y-86812195D01*
X152780224Y-86827512D01*
X152726166Y-86845499D01*
X152669771Y-86837415D01*
X152622943Y-86804966D01*
X152615870Y-86797110D01*
X152462730Y-86685848D01*
X152289802Y-86608855D01*
X152101534Y-86568838D01*
X152041178Y-86536746D01*
X152006998Y-86477547D01*
X152009383Y-86409231D01*
X152061908Y-86247576D01*
X152080047Y-86075000D01*
X152061908Y-85902424D01*
X152008286Y-85737389D01*
X151921522Y-85587111D01*
X151805410Y-85458155D01*
X151665024Y-85356158D01*
X151665023Y-85356157D01*
X151506496Y-85285576D01*
X151336766Y-85249500D01*
X151336764Y-85249500D01*
X151163236Y-85249500D01*
X151163234Y-85249500D01*
X150993505Y-85285576D01*
X150834975Y-85356158D01*
X150694589Y-85458156D01*
X150578477Y-85587111D01*
X150491713Y-85737389D01*
X150438093Y-85902420D01*
X150438092Y-85902424D01*
X150419953Y-86075000D01*
X150438092Y-86247576D01*
X150438093Y-86247579D01*
X150491713Y-86412610D01*
X150578477Y-86562888D01*
X150592314Y-86578255D01*
X150694590Y-86691845D01*
X150694591Y-86691846D01*
X150703311Y-86701530D01*
X150700349Y-86704196D01*
X150726510Y-86737186D01*
X150734882Y-86803356D01*
X150707763Y-86864292D01*
X150652998Y-86902362D01*
X150586432Y-86906554D01*
X150576767Y-86904500D01*
X150576764Y-86904500D01*
X150403236Y-86904500D01*
X150403234Y-86904500D01*
X150233505Y-86940576D01*
X150074975Y-87011158D01*
X149978930Y-87080940D01*
X149934590Y-87113155D01*
X149881412Y-87172216D01*
X149863400Y-87192220D01*
X149823999Y-87221469D01*
X149776337Y-87233144D01*
X149727879Y-87225416D01*
X149654339Y-87197960D01*
X149544267Y-87178780D01*
X149476620Y-87173348D01*
X149476617Y-87173348D01*
X149428736Y-87173935D01*
X149364892Y-87174718D01*
X149255329Y-87196592D01*
X149151646Y-87238226D01*
X149091269Y-87269217D01*
X149019501Y-87312583D01*
X148954414Y-87365447D01*
X147386082Y-88830696D01*
X147304551Y-88924277D01*
X147275425Y-88965592D01*
X147214698Y-89073803D01*
X147177305Y-89192124D01*
X147167090Y-89241633D01*
X147154601Y-89365121D01*
X147155854Y-90029997D01*
X147157872Y-91102508D01*
X147144015Y-91159702D01*
X147105349Y-91204067D01*
X147050584Y-91225610D01*
X143633855Y-91690347D01*
X143578625Y-91685344D01*
X143531099Y-91656767D01*
X143500783Y-91610331D01*
X143493740Y-91555325D01*
X143505099Y-91440000D01*
X143486747Y-91253669D01*
X143432396Y-91074499D01*
X143394578Y-91003747D01*
X143379954Y-90943267D01*
X143396549Y-90883298D01*
X143457179Y-90778284D01*
X143515674Y-90598256D01*
X143530160Y-90460418D01*
X143554711Y-90398412D01*
X143607833Y-90358090D01*
X143674160Y-90351118D01*
X143734505Y-90379515D01*
X143771412Y-90435064D01*
X143822820Y-90593284D01*
X143917466Y-90757216D01*
X144044129Y-90897889D01*
X144197269Y-91009151D01*
X144370197Y-91086144D01*
X144555352Y-91125500D01*
X144555354Y-91125500D01*
X144744646Y-91125500D01*
X144744648Y-91125500D01*
X144868084Y-91099262D01*
X144929803Y-91086144D01*
X145102730Y-91009151D01*
X145194051Y-90942803D01*
X145255870Y-90897889D01*
X145382533Y-90757216D01*
X145477179Y-90593284D01*
X145528588Y-90435064D01*
X145535674Y-90413256D01*
X145555460Y-90225000D01*
X145535674Y-90036744D01*
X145505332Y-89943363D01*
X145477179Y-89856715D01*
X145382533Y-89692783D01*
X145255870Y-89552110D01*
X145102730Y-89440848D01*
X144929802Y-89363855D01*
X144744648Y-89324500D01*
X144744646Y-89324500D01*
X144555354Y-89324500D01*
X144555352Y-89324500D01*
X144370197Y-89363855D01*
X144197269Y-89440848D01*
X144044129Y-89552110D01*
X143917466Y-89692783D01*
X143822820Y-89856715D01*
X143764326Y-90036742D01*
X143749839Y-90174579D01*
X143725287Y-90236588D01*
X143672165Y-90276909D01*
X143605838Y-90283880D01*
X143545493Y-90255484D01*
X143508588Y-90199937D01*
X143457179Y-90041716D01*
X143457179Y-90041715D01*
X143362533Y-89877783D01*
X143235870Y-89737110D01*
X143082730Y-89625848D01*
X142909802Y-89548855D01*
X142724648Y-89509500D01*
X142724646Y-89509500D01*
X142535354Y-89509500D01*
X142535352Y-89509500D01*
X142350197Y-89548855D01*
X142177269Y-89625848D01*
X142024129Y-89737110D01*
X141897466Y-89877783D01*
X141802820Y-90041715D01*
X141744326Y-90221742D01*
X141724540Y-90409999D01*
X141744326Y-90598257D01*
X141799048Y-90766673D01*
X141802966Y-90827986D01*
X141776972Y-90883654D01*
X141755863Y-90909375D01*
X141667603Y-91074499D01*
X141613253Y-91253667D01*
X141598534Y-91403116D01*
X141594901Y-91440000D01*
X141606259Y-91555323D01*
X141606508Y-91557846D01*
X141594317Y-91624844D01*
X141548585Y-91675301D01*
X141483105Y-91694000D01*
X139984730Y-91694000D01*
X139922730Y-91677387D01*
X139877343Y-91632000D01*
X139782533Y-91467783D01*
X139655870Y-91327110D01*
X139502730Y-91215848D01*
X139329802Y-91138855D01*
X139144648Y-91099500D01*
X139144646Y-91099500D01*
X138955354Y-91099500D01*
X138955352Y-91099500D01*
X138770197Y-91138855D01*
X138597269Y-91215848D01*
X138444129Y-91327110D01*
X138317466Y-91467783D01*
X138222657Y-91632000D01*
X138177270Y-91677387D01*
X138115270Y-91694000D01*
X132351295Y-91694000D01*
X132307105Y-91685859D01*
X132268718Y-91662505D01*
X132262290Y-91656767D01*
X131639146Y-91100500D01*
X130761569Y-90317107D01*
X130730908Y-90275131D01*
X130720146Y-90224277D01*
X130720210Y-90200000D01*
X132634540Y-90200000D01*
X132654326Y-90388257D01*
X132712820Y-90568284D01*
X132807466Y-90732216D01*
X132934129Y-90872889D01*
X133087269Y-90984151D01*
X133260197Y-91061144D01*
X133445352Y-91100500D01*
X133445354Y-91100500D01*
X133634646Y-91100500D01*
X133634648Y-91100500D01*
X133758084Y-91074262D01*
X133819803Y-91061144D01*
X133992730Y-90984151D01*
X134050449Y-90942216D01*
X134145870Y-90872889D01*
X134272533Y-90732216D01*
X134367179Y-90568284D01*
X134410465Y-90435064D01*
X134425674Y-90388256D01*
X134445460Y-90200000D01*
X134425674Y-90011744D01*
X134395332Y-89918363D01*
X134367179Y-89831715D01*
X134272533Y-89667783D01*
X134145870Y-89527110D01*
X133992730Y-89415848D01*
X133819802Y-89338855D01*
X133634648Y-89299500D01*
X133634646Y-89299500D01*
X133445354Y-89299500D01*
X133445352Y-89299500D01*
X133260197Y-89338855D01*
X133087269Y-89415848D01*
X132934129Y-89527110D01*
X132807466Y-89667783D01*
X132712820Y-89831715D01*
X132654326Y-90011742D01*
X132634540Y-90200000D01*
X130720210Y-90200000D01*
X130720210Y-90199935D01*
X130729553Y-86640000D01*
X133574540Y-86640000D01*
X133584081Y-86730782D01*
X133594326Y-86828257D01*
X133652820Y-87008284D01*
X133747466Y-87172216D01*
X133874129Y-87312889D01*
X134027269Y-87424151D01*
X134200197Y-87501144D01*
X134385352Y-87540500D01*
X134385354Y-87540500D01*
X134574646Y-87540500D01*
X134574648Y-87540500D01*
X134698084Y-87514262D01*
X134759803Y-87501144D01*
X134932730Y-87424151D01*
X134932730Y-87424150D01*
X135085870Y-87312889D01*
X135092855Y-87305132D01*
X135212533Y-87172216D01*
X135307179Y-87008284D01*
X135365674Y-86828256D01*
X135385460Y-86640000D01*
X135365674Y-86451744D01*
X135307179Y-86271716D01*
X135307179Y-86271715D01*
X135212533Y-86107783D01*
X135085870Y-85967110D01*
X134932730Y-85855848D01*
X134750577Y-85774747D01*
X134703299Y-85737809D01*
X134702694Y-85736451D01*
X134683165Y-85747727D01*
X134623205Y-85749821D01*
X134574648Y-85739500D01*
X134574646Y-85739500D01*
X134385354Y-85739500D01*
X134385352Y-85739500D01*
X134200197Y-85778855D01*
X134027269Y-85855848D01*
X133874129Y-85967110D01*
X133747466Y-86107783D01*
X133652820Y-86271715D01*
X133594326Y-86451742D01*
X133582644Y-86562889D01*
X133574540Y-86640000D01*
X130729553Y-86640000D01*
X130729922Y-86499547D01*
X130743395Y-86443662D01*
X131414151Y-85124857D01*
X131440872Y-85089684D01*
X132409468Y-84201804D01*
X132447836Y-84177831D01*
X132492250Y-84169218D01*
X133267707Y-84162965D01*
X133421274Y-84141885D01*
X133482045Y-84125408D01*
X133625226Y-84066031D01*
X133742238Y-83977112D01*
X133748639Y-83972248D01*
X133749273Y-83971622D01*
X133793483Y-83928048D01*
X133889041Y-83806006D01*
X133891011Y-83801444D01*
X133924434Y-83756208D01*
X133974402Y-83730391D01*
X134030633Y-83729304D01*
X134084806Y-83740818D01*
X134130353Y-83750500D01*
X134294401Y-83750500D01*
X134354139Y-83765838D01*
X134399098Y-83808058D01*
X134418156Y-83866715D01*
X134406599Y-83927298D01*
X134367285Y-83974819D01*
X134364128Y-83977112D01*
X134237466Y-84117783D01*
X134142820Y-84281715D01*
X134084326Y-84461742D01*
X134064540Y-84649999D01*
X134084326Y-84838257D01*
X134142820Y-85018284D01*
X134237466Y-85182216D01*
X134364129Y-85322889D01*
X134517269Y-85434151D01*
X134699422Y-85515252D01*
X134746700Y-85552189D01*
X134747304Y-85553546D01*
X134766835Y-85542271D01*
X134826792Y-85540178D01*
X134875354Y-85550500D01*
X135064646Y-85550500D01*
X135064648Y-85550500D01*
X135188083Y-85524262D01*
X135249803Y-85511144D01*
X135422730Y-85434151D01*
X135575871Y-85322888D01*
X135702533Y-85182216D01*
X135797179Y-85018284D01*
X135855674Y-84838256D01*
X135875460Y-84650000D01*
X135855674Y-84461744D01*
X135804380Y-84303878D01*
X135799799Y-84246409D01*
X135821700Y-84193080D01*
X135865349Y-84155418D01*
X135921310Y-84141564D01*
X142808487Y-84086022D01*
X142870820Y-84102250D01*
X142916605Y-84147557D01*
X142933485Y-84209719D01*
X142923247Y-84248151D01*
X142926848Y-84249321D01*
X142864326Y-84441742D01*
X142844540Y-84630000D01*
X142864326Y-84818257D01*
X142922820Y-84998284D01*
X143017466Y-85162216D01*
X143144129Y-85302889D01*
X143297269Y-85414151D01*
X143470197Y-85491144D01*
X143655352Y-85530500D01*
X143655354Y-85530500D01*
X143844646Y-85530500D01*
X143844648Y-85530500D01*
X143968083Y-85504262D01*
X144029803Y-85491144D01*
X144202730Y-85414151D01*
X144217730Y-85403253D01*
X144355870Y-85302889D01*
X144482533Y-85162216D01*
X144577179Y-84998284D01*
X144629175Y-84838257D01*
X144635674Y-84818256D01*
X144655460Y-84630000D01*
X144635674Y-84441744D01*
X144577179Y-84261716D01*
X144574410Y-84256921D01*
X144557797Y-84195172D01*
X144574160Y-84133355D01*
X144619148Y-84087910D01*
X144680796Y-84070924D01*
X146648824Y-84055053D01*
X146728555Y-84049132D01*
X146806810Y-84032757D01*
X146869200Y-84015333D01*
X146968890Y-83977762D01*
X146971901Y-83975971D01*
X147060451Y-83923301D01*
X147072434Y-83912943D01*
X147141051Y-83853633D01*
X147175072Y-83818543D01*
X147230942Y-83785373D01*
X147295918Y-83785010D01*
X147352153Y-83817553D01*
X147383649Y-83849321D01*
X147465569Y-83918468D01*
X147558399Y-83972086D01*
X147659229Y-84008492D01*
X147659231Y-84008492D01*
X147659238Y-84008495D01*
X147722247Y-84025112D01*
X147754259Y-84031314D01*
X147801228Y-84040414D01*
X147881540Y-84045111D01*
X147921345Y-84044790D01*
X148012173Y-84037198D01*
X148048929Y-84031314D01*
X148137582Y-84010176D01*
X148222059Y-83975971D01*
X148255412Y-83959444D01*
X148333802Y-83912944D01*
X150455475Y-82427772D01*
X150502804Y-82407660D01*
X150554225Y-82408480D01*
X150600892Y-82430092D01*
X150663104Y-82476664D01*
X150702850Y-82527278D01*
X150711874Y-82590997D01*
X150687747Y-82650657D01*
X150606288Y-82758525D01*
X150509181Y-82953542D01*
X150449564Y-83163074D01*
X150429464Y-83380000D01*
X150449564Y-83596925D01*
X150509181Y-83806457D01*
X150606287Y-84001471D01*
X150737573Y-84175323D01*
X150885493Y-84310169D01*
X150898568Y-84322088D01*
X150962121Y-84361438D01*
X151083791Y-84436773D01*
X151238692Y-84496782D01*
X151286931Y-84515470D01*
X151501074Y-84555500D01*
X151718924Y-84555500D01*
X151718926Y-84555500D01*
X151933069Y-84515470D01*
X152123376Y-84441744D01*
X152136208Y-84436773D01*
X152138138Y-84435578D01*
X152321432Y-84322088D01*
X152482427Y-84175322D01*
X152511045Y-84137424D01*
X152554728Y-84101150D01*
X152610000Y-84088150D01*
X152665272Y-84101150D01*
X152708955Y-84137425D01*
X152737572Y-84175322D01*
X152892450Y-84316511D01*
X152923691Y-84361225D01*
X152932722Y-84415018D01*
X152917795Y-84467482D01*
X152881799Y-84508465D01*
X152744590Y-84608155D01*
X152628477Y-84737111D01*
X152541713Y-84887389D01*
X152488093Y-85052420D01*
X152488092Y-85052424D01*
X152469953Y-85225000D01*
X152488092Y-85397576D01*
X152488093Y-85397579D01*
X152541713Y-85562610D01*
X152614089Y-85687968D01*
X152628478Y-85712889D01*
X152744590Y-85841845D01*
X152865894Y-85929978D01*
X152884976Y-85943842D01*
X153043503Y-86014423D01*
X153213234Y-86050500D01*
X153213236Y-86050500D01*
X153386764Y-86050500D01*
X153386766Y-86050500D01*
X153556496Y-86014423D01*
X153556497Y-86014422D01*
X153556499Y-86014422D01*
X153715024Y-85943842D01*
X153855410Y-85841845D01*
X153971522Y-85712889D01*
X154058286Y-85562611D01*
X154111908Y-85397576D01*
X154130047Y-85225000D01*
X154111908Y-85052424D01*
X154058286Y-84887389D01*
X154058285Y-84887388D01*
X153971522Y-84737110D01*
X153933949Y-84695381D01*
X153905938Y-84643024D01*
X153905481Y-84583647D01*
X153932682Y-84530866D01*
X153981301Y-84496784D01*
X154136210Y-84436772D01*
X154321432Y-84322088D01*
X154482427Y-84175322D01*
X154613712Y-84001472D01*
X154710817Y-83806459D01*
X154710946Y-83806006D01*
X154770435Y-83596925D01*
X154775643Y-83540716D01*
X154790536Y-83380000D01*
X154770435Y-83163077D01*
X154770435Y-83163074D01*
X154710818Y-82953542D01*
X154613712Y-82758528D01*
X154561962Y-82690000D01*
X159164540Y-82690000D01*
X159184326Y-82878257D01*
X159242820Y-83058284D01*
X159337466Y-83222216D01*
X159464129Y-83362889D01*
X159617269Y-83474151D01*
X159790197Y-83551144D01*
X159975352Y-83590500D01*
X159975354Y-83590500D01*
X160164646Y-83590500D01*
X160164648Y-83590500D01*
X160292618Y-83563299D01*
X160349803Y-83551144D01*
X160522730Y-83474151D01*
X160522730Y-83474150D01*
X160675870Y-83362889D01*
X160802533Y-83222216D01*
X160897179Y-83058284D01*
X160931212Y-82953541D01*
X160955674Y-82878256D01*
X160975460Y-82690000D01*
X160955674Y-82501744D01*
X160897179Y-82321716D01*
X160897179Y-82321715D01*
X160802533Y-82157783D01*
X160675870Y-82017110D01*
X160522730Y-81905848D01*
X160349802Y-81828855D01*
X160164648Y-81789500D01*
X160164646Y-81789500D01*
X159975354Y-81789500D01*
X159975352Y-81789500D01*
X159790197Y-81828855D01*
X159617269Y-81905848D01*
X159464129Y-82017110D01*
X159337466Y-82157783D01*
X159242820Y-82321715D01*
X159184326Y-82501742D01*
X159164540Y-82690000D01*
X154561962Y-82690000D01*
X154482426Y-82584676D01*
X154358427Y-82471637D01*
X154322699Y-82413934D01*
X154322699Y-82346066D01*
X154358427Y-82288363D01*
X154427384Y-82225500D01*
X154482427Y-82175322D01*
X154487061Y-82169184D01*
X154529153Y-82133716D01*
X154582452Y-82119960D01*
X154636451Y-82130629D01*
X154768500Y-82189421D01*
X154768501Y-82189422D01*
X154938234Y-82225500D01*
X154938236Y-82225500D01*
X155111764Y-82225500D01*
X155111766Y-82225500D01*
X155281496Y-82189423D01*
X155281497Y-82189422D01*
X155281499Y-82189422D01*
X155440024Y-82118842D01*
X155580410Y-82016845D01*
X155696522Y-81887889D01*
X155783286Y-81737611D01*
X155836908Y-81572576D01*
X155853996Y-81410000D01*
X156674540Y-81410000D01*
X156694326Y-81598257D01*
X156752820Y-81778284D01*
X156847466Y-81942216D01*
X156974129Y-82082889D01*
X157127269Y-82194151D01*
X157300197Y-82271144D01*
X157485352Y-82310500D01*
X157485354Y-82310500D01*
X157674646Y-82310500D01*
X157674648Y-82310500D01*
X157798083Y-82284262D01*
X157859803Y-82271144D01*
X158032730Y-82194151D01*
X158082785Y-82157784D01*
X158185870Y-82082889D01*
X158312533Y-81942216D01*
X158407179Y-81778284D01*
X158407634Y-81776885D01*
X158465674Y-81598256D01*
X158485460Y-81410000D01*
X158465674Y-81221744D01*
X158407179Y-81041716D01*
X158407179Y-81041715D01*
X158312533Y-80877783D01*
X158185870Y-80737110D01*
X158032730Y-80625848D01*
X157859802Y-80548855D01*
X157674648Y-80509500D01*
X157674646Y-80509500D01*
X157485354Y-80509500D01*
X157485352Y-80509500D01*
X157300197Y-80548855D01*
X157127269Y-80625848D01*
X156974129Y-80737110D01*
X156847466Y-80877783D01*
X156752820Y-81041715D01*
X156694326Y-81221742D01*
X156674540Y-81410000D01*
X155853996Y-81410000D01*
X155855047Y-81400000D01*
X155836908Y-81227424D01*
X155783286Y-81062389D01*
X155696522Y-80912111D01*
X155580410Y-80783155D01*
X155440024Y-80681158D01*
X155440023Y-80681157D01*
X155281496Y-80610576D01*
X155111766Y-80574500D01*
X155111764Y-80574500D01*
X154938236Y-80574500D01*
X154938234Y-80574500D01*
X154768503Y-80610576D01*
X154659058Y-80659305D01*
X154605059Y-80669974D01*
X154551762Y-80656219D01*
X154509669Y-80620752D01*
X154482426Y-80584676D01*
X154321432Y-80437912D01*
X154136208Y-80323226D01*
X153933073Y-80244531D01*
X153933070Y-80244530D01*
X153933069Y-80244530D01*
X153718926Y-80204500D01*
X153718924Y-80204500D01*
X153707631Y-80202389D01*
X153707912Y-80200881D01*
X153664211Y-80189986D01*
X153619625Y-80149840D01*
X153599104Y-80093462D01*
X153586908Y-79977424D01*
X153533286Y-79812389D01*
X153494674Y-79745511D01*
X153467856Y-79699061D01*
X153452234Y-79652709D01*
X153455753Y-79603922D01*
X153477863Y-79560294D01*
X153498431Y-79534205D01*
X153569437Y-79420017D01*
X153613492Y-79292973D01*
X153616364Y-79280279D01*
X153639674Y-79231197D01*
X153681733Y-79196792D01*
X153734465Y-79183674D01*
X153787743Y-79194362D01*
X153960197Y-79271144D01*
X154145352Y-79310500D01*
X154145354Y-79310500D01*
X154334646Y-79310500D01*
X154334648Y-79310500D01*
X154458083Y-79284262D01*
X154519803Y-79271144D01*
X154692730Y-79194151D01*
X154845871Y-79082888D01*
X154972533Y-78942216D01*
X155067179Y-78778284D01*
X155125674Y-78598256D01*
X155145460Y-78410000D01*
X155125674Y-78221744D01*
X155095332Y-78128363D01*
X155067179Y-78041715D01*
X154972533Y-77877783D01*
X154857476Y-77750000D01*
X156869953Y-77750000D01*
X156888092Y-77922576D01*
X156888093Y-77922579D01*
X156941712Y-78087607D01*
X156941713Y-78087609D01*
X156941714Y-78087611D01*
X157019157Y-78221744D01*
X157025215Y-78232237D01*
X157041828Y-78294237D01*
X157025215Y-78356238D01*
X156957620Y-78473315D01*
X156899126Y-78653342D01*
X156884540Y-78792124D01*
X156879340Y-78841600D01*
X156881192Y-78859224D01*
X156899126Y-79029857D01*
X156957620Y-79209884D01*
X157052266Y-79373816D01*
X157178929Y-79514489D01*
X157332069Y-79625751D01*
X157504997Y-79702744D01*
X157690152Y-79742100D01*
X157690154Y-79742100D01*
X157879446Y-79742100D01*
X157879448Y-79742100D01*
X158002884Y-79715862D01*
X158064603Y-79702744D01*
X158237530Y-79625751D01*
X158375253Y-79525690D01*
X158390670Y-79514489D01*
X158517333Y-79373816D01*
X158611979Y-79209884D01*
X158628740Y-79158299D01*
X158670474Y-79029856D01*
X158690260Y-78841600D01*
X158670474Y-78653344D01*
X158636971Y-78550232D01*
X158611979Y-78473315D01*
X158517333Y-78309383D01*
X158463622Y-78249731D01*
X158437840Y-78205075D01*
X158432452Y-78153794D01*
X158448388Y-78104754D01*
X158456918Y-78089981D01*
X158458286Y-78087611D01*
X158458288Y-78087607D01*
X158476772Y-78030716D01*
X158511908Y-77922576D01*
X158530047Y-77750000D01*
X158511908Y-77577424D01*
X158458286Y-77412389D01*
X158371522Y-77262111D01*
X158255410Y-77133155D01*
X158145168Y-77053059D01*
X158115023Y-77031157D01*
X157956496Y-76960576D01*
X157786766Y-76924500D01*
X157786764Y-76924500D01*
X157613236Y-76924500D01*
X157613234Y-76924500D01*
X157443505Y-76960576D01*
X157284975Y-77031158D01*
X157144589Y-77133156D01*
X157028477Y-77262111D01*
X156941713Y-77412389D01*
X156897374Y-77548855D01*
X156888092Y-77577424D01*
X156869953Y-77750000D01*
X154857476Y-77750000D01*
X154845870Y-77737110D01*
X154692730Y-77625848D01*
X154519802Y-77548855D01*
X154334648Y-77509500D01*
X154334646Y-77509500D01*
X154145354Y-77509500D01*
X154145352Y-77509500D01*
X153960201Y-77548854D01*
X153814936Y-77613531D01*
X153754771Y-77623869D01*
X153696965Y-77604246D01*
X153655527Y-77559419D01*
X153640500Y-77500251D01*
X153640500Y-77191435D01*
X153636632Y-77133155D01*
X153635190Y-77111418D01*
X153619352Y-77032806D01*
X153602331Y-76970104D01*
X153565344Y-76869845D01*
X153511307Y-76777650D01*
X153479604Y-76740531D01*
X153453320Y-76688948D01*
X153453320Y-76631052D01*
X153479604Y-76579468D01*
X153511307Y-76542350D01*
X153565344Y-76450155D01*
X153602331Y-76349896D01*
X153619352Y-76287194D01*
X153635190Y-76208582D01*
X153640500Y-76128567D01*
X153640500Y-73901941D01*
X153654015Y-73845646D01*
X153691615Y-73801623D01*
X153745102Y-73779468D01*
X153802818Y-73784010D01*
X153852181Y-73814260D01*
X153957735Y-73919814D01*
X153957737Y-73919815D01*
X153957738Y-73919816D01*
X154110478Y-74015789D01*
X154280745Y-74075368D01*
X154460000Y-74095565D01*
X154639255Y-74075368D01*
X154809522Y-74015789D01*
X154962262Y-73919816D01*
X155089816Y-73792262D01*
X155185789Y-73639522D01*
X155227612Y-73520000D01*
X165664540Y-73520000D01*
X165684326Y-73708257D01*
X165742820Y-73888284D01*
X165837466Y-74052216D01*
X165964129Y-74192889D01*
X166117269Y-74304151D01*
X166290197Y-74381144D01*
X166475352Y-74420500D01*
X166475354Y-74420500D01*
X166664646Y-74420500D01*
X166664648Y-74420500D01*
X166788084Y-74394262D01*
X166849803Y-74381144D01*
X167022730Y-74304151D01*
X167175871Y-74192888D01*
X167302533Y-74052216D01*
X167397179Y-73888284D01*
X167455674Y-73708256D01*
X167475460Y-73520000D01*
X167455674Y-73331744D01*
X167413178Y-73200955D01*
X167397179Y-73151715D01*
X167302533Y-72987783D01*
X167175870Y-72847110D01*
X167022730Y-72735848D01*
X166849802Y-72658855D01*
X166664648Y-72619500D01*
X166664646Y-72619500D01*
X166475354Y-72619500D01*
X166475352Y-72619500D01*
X166290197Y-72658855D01*
X166117269Y-72735848D01*
X165964129Y-72847110D01*
X165837466Y-72987783D01*
X165742820Y-73151715D01*
X165684326Y-73331742D01*
X165664540Y-73520000D01*
X155227612Y-73520000D01*
X155245368Y-73469255D01*
X155265565Y-73290000D01*
X155245368Y-73110745D01*
X155185789Y-72940478D01*
X155089816Y-72787738D01*
X155089815Y-72787737D01*
X155089814Y-72787735D01*
X154962264Y-72660185D01*
X154897514Y-72619500D01*
X154809522Y-72564211D01*
X154639255Y-72504632D01*
X154639253Y-72504631D01*
X154639251Y-72504631D01*
X154460000Y-72484434D01*
X154280748Y-72504631D01*
X154280745Y-72504631D01*
X154280745Y-72504632D01*
X154110478Y-72564211D01*
X154110476Y-72564211D01*
X154110476Y-72564212D01*
X153957735Y-72660185D01*
X153852181Y-72765740D01*
X153802818Y-72795990D01*
X153745102Y-72800532D01*
X153691615Y-72778377D01*
X153654015Y-72734354D01*
X153640500Y-72678059D01*
X153640500Y-69646333D01*
X153657762Y-69583222D01*
X153704742Y-69537682D01*
X154142511Y-69296909D01*
X158233383Y-67046927D01*
X158296483Y-67031625D01*
X162796239Y-67153241D01*
G37*
%TD.AperFunction*%
%TD*%
%TA.AperFunction,Conductor*%
%TO.N,+3V3*%
G36*
X128791066Y-50987531D02*
G01*
X128836762Y-51032951D01*
X128853500Y-51095168D01*
X128853500Y-51569362D01*
X128868955Y-51686760D01*
X128929464Y-51832841D01*
X129025717Y-51958282D01*
X129125630Y-52034947D01*
X129151159Y-52054536D01*
X129297238Y-52115044D01*
X129414639Y-52130500D01*
X131193360Y-52130499D01*
X131193362Y-52130499D01*
X131252060Y-52122771D01*
X131310762Y-52115044D01*
X131456841Y-52054536D01*
X131582282Y-51958282D01*
X131678536Y-51832841D01*
X131685750Y-51815422D01*
X131718712Y-51769506D01*
X131768630Y-51742990D01*
X131825130Y-51741383D01*
X131876473Y-51765019D01*
X132047933Y-51898472D01*
X132259344Y-52012882D01*
X132486703Y-52090934D01*
X132723808Y-52130500D01*
X132964191Y-52130500D01*
X132964192Y-52130500D01*
X133201297Y-52090934D01*
X133428656Y-52012882D01*
X133640067Y-51898472D01*
X133829764Y-51750825D01*
X133992571Y-51573969D01*
X134010192Y-51546997D01*
X134054982Y-51505765D01*
X134114000Y-51490820D01*
X134173018Y-51505765D01*
X134217807Y-51546997D01*
X134235429Y-51573969D01*
X134398236Y-51750825D01*
X134447434Y-51789117D01*
X134587927Y-51898468D01*
X134587929Y-51898469D01*
X134587933Y-51898472D01*
X134799344Y-52012882D01*
X135026703Y-52090934D01*
X135263808Y-52130500D01*
X135504191Y-52130500D01*
X135504192Y-52130500D01*
X135741297Y-52090934D01*
X135968656Y-52012882D01*
X136180067Y-51898472D01*
X136369764Y-51750825D01*
X136532571Y-51573969D01*
X136550192Y-51546997D01*
X136594982Y-51505765D01*
X136654000Y-51490820D01*
X136713018Y-51505765D01*
X136757807Y-51546997D01*
X136775429Y-51573969D01*
X136938236Y-51750825D01*
X136987434Y-51789117D01*
X137127927Y-51898468D01*
X137127929Y-51898469D01*
X137127933Y-51898472D01*
X137339344Y-52012882D01*
X137566703Y-52090934D01*
X137803808Y-52130500D01*
X138044191Y-52130500D01*
X138044192Y-52130500D01*
X138281297Y-52090934D01*
X138508656Y-52012882D01*
X138582936Y-51972683D01*
X138649873Y-51957991D01*
X138714393Y-51981098D01*
X138756785Y-52034947D01*
X138764100Y-52103088D01*
X138734104Y-52164708D01*
X138722129Y-52178007D01*
X138624855Y-52346492D01*
X138564739Y-52531514D01*
X138564738Y-52531518D01*
X138544402Y-52725000D01*
X138564738Y-52918482D01*
X138564739Y-52918485D01*
X138624855Y-53103507D01*
X138722129Y-53271992D01*
X138852308Y-53416570D01*
X139009699Y-53530921D01*
X139187431Y-53610052D01*
X139376013Y-53650136D01*
X139427476Y-53674424D01*
X139462671Y-53719144D01*
X139474184Y-53774874D01*
X139459590Y-53829879D01*
X139413607Y-53915910D01*
X139371184Y-53995277D01*
X139313976Y-54183866D01*
X139294659Y-54380000D01*
X139313976Y-54576133D01*
X139371185Y-54764726D01*
X139424546Y-54864557D01*
X139464090Y-54938538D01*
X139589117Y-55090883D01*
X139741462Y-55215910D01*
X139915273Y-55308814D01*
X140103868Y-55366024D01*
X140300000Y-55385341D01*
X140496132Y-55366024D01*
X140684727Y-55308814D01*
X140858538Y-55215910D01*
X141010883Y-55090883D01*
X141135910Y-54938538D01*
X141228814Y-54764727D01*
X141286024Y-54576132D01*
X141305341Y-54380000D01*
X141286024Y-54183868D01*
X141228814Y-53995273D01*
X141135910Y-53821462D01*
X141010883Y-53669117D01*
X140858538Y-53544090D01*
X140786042Y-53505340D01*
X140684726Y-53451185D01*
X140496133Y-53393976D01*
X140367057Y-53381263D01*
X140309479Y-53360395D01*
X140268911Y-53314516D01*
X140255248Y-53254816D01*
X140271822Y-53195863D01*
X140325144Y-53103508D01*
X140385262Y-52918482D01*
X140405598Y-52725000D01*
X140385262Y-52531518D01*
X140353392Y-52433431D01*
X140325145Y-52346493D01*
X140307828Y-52316499D01*
X140291216Y-52254499D01*
X140307829Y-52192500D01*
X140353216Y-52147113D01*
X140415216Y-52130500D01*
X140584191Y-52130500D01*
X140584192Y-52130500D01*
X140821297Y-52090934D01*
X140944831Y-52048524D01*
X141012165Y-52044799D01*
X145936810Y-53146817D01*
X145983329Y-53168029D01*
X146017337Y-53206207D01*
X146033051Y-53254861D01*
X146039738Y-53318482D01*
X146039739Y-53318485D01*
X146099855Y-53503507D01*
X146197129Y-53671992D01*
X146327308Y-53816570D01*
X146484699Y-53930921D01*
X146484700Y-53930921D01*
X146484701Y-53930922D01*
X146562008Y-53965341D01*
X146662431Y-54010052D01*
X146852724Y-54050500D01*
X146852726Y-54050500D01*
X147047274Y-54050500D01*
X147047276Y-54050500D01*
X147237568Y-54010052D01*
X147237569Y-54010051D01*
X147237571Y-54010051D01*
X147415299Y-53930922D01*
X147518544Y-53855910D01*
X147572691Y-53816570D01*
X147702870Y-53671992D01*
X147715278Y-53650500D01*
X147723768Y-53635794D01*
X147758628Y-53597216D01*
X147806241Y-53576322D01*
X147858231Y-53576785D01*
X148484377Y-53716902D01*
X148522306Y-53732316D01*
X148553149Y-53759242D01*
X148574156Y-53784838D01*
X148577192Y-53788538D01*
X148579118Y-53790884D01*
X148731462Y-53915910D01*
X148798435Y-53951708D01*
X148842903Y-53991906D01*
X148863320Y-54048266D01*
X148854912Y-54107617D01*
X148819646Y-54156090D01*
X148765763Y-54182356D01*
X148612431Y-54214947D01*
X148434699Y-54294078D01*
X148277308Y-54408429D01*
X148147129Y-54553007D01*
X148049855Y-54721492D01*
X147999552Y-54876312D01*
X147989738Y-54906518D01*
X147969402Y-55100000D01*
X147968040Y-55112962D01*
X147963967Y-55112533D01*
X147956980Y-55153706D01*
X147913389Y-55204161D01*
X147849969Y-55224745D01*
X147785056Y-55209506D01*
X147737421Y-55162851D01*
X147702871Y-55103009D01*
X147572691Y-54958429D01*
X147415300Y-54844078D01*
X147237568Y-54764947D01*
X147047276Y-54724500D01*
X147047274Y-54724500D01*
X146852726Y-54724500D01*
X146852724Y-54724500D01*
X146662431Y-54764947D01*
X146484699Y-54844078D01*
X146327308Y-54958429D01*
X146197129Y-55103007D01*
X146099855Y-55271492D01*
X146039739Y-55456514D01*
X146039738Y-55456518D01*
X146019402Y-55650000D01*
X146039738Y-55843482D01*
X146039739Y-55843485D01*
X146099855Y-56028507D01*
X146197129Y-56196992D01*
X146327308Y-56341570D01*
X146484699Y-56455921D01*
X146484700Y-56455921D01*
X146484701Y-56455922D01*
X146536239Y-56478868D01*
X146662431Y-56535052D01*
X146852724Y-56575500D01*
X146852726Y-56575500D01*
X147047274Y-56575500D01*
X147047276Y-56575500D01*
X147237568Y-56535052D01*
X147237569Y-56535051D01*
X147237571Y-56535051D01*
X147415299Y-56455922D01*
X147572692Y-56341569D01*
X147702870Y-56196992D01*
X147800144Y-56028508D01*
X147860262Y-55843482D01*
X147880598Y-55650000D01*
X147880597Y-55649997D01*
X147881960Y-55637038D01*
X147886042Y-55637467D01*
X147892976Y-55596386D01*
X147936546Y-55545881D01*
X147999979Y-55525257D01*
X148064920Y-55540480D01*
X148112578Y-55587147D01*
X148147129Y-55646992D01*
X148277308Y-55791570D01*
X148434699Y-55905921D01*
X148434700Y-55905921D01*
X148434701Y-55905922D01*
X148523564Y-55945486D01*
X148612431Y-55985052D01*
X148802724Y-56025500D01*
X148802726Y-56025500D01*
X148997274Y-56025500D01*
X148997276Y-56025500D01*
X149187568Y-55985052D01*
X149187569Y-55985051D01*
X149187571Y-55985051D01*
X149365299Y-55905922D01*
X149457285Y-55839090D01*
X149522691Y-55791570D01*
X149652870Y-55646992D01*
X149711246Y-55545881D01*
X149750144Y-55478508D01*
X149810262Y-55293482D01*
X149830598Y-55100000D01*
X149810262Y-54906518D01*
X149750144Y-54721492D01*
X149750143Y-54721491D01*
X149652870Y-54553007D01*
X149522691Y-54408429D01*
X149367222Y-54295475D01*
X149328967Y-54250146D01*
X149316141Y-54192236D01*
X149331680Y-54134993D01*
X149372028Y-54091517D01*
X149427953Y-54071754D01*
X149486132Y-54066024D01*
X149674727Y-54008814D01*
X149674730Y-54008812D01*
X149686414Y-54005268D01*
X149686751Y-54006380D01*
X149709514Y-53999008D01*
X149753333Y-54000864D01*
X154178000Y-54991000D01*
X161648909Y-54921178D01*
X161662205Y-54921769D01*
X161800000Y-54935341D01*
X161969251Y-54918671D01*
X161980195Y-54918082D01*
X167707354Y-54864557D01*
X167761219Y-54876312D01*
X167804664Y-54910254D01*
X169522599Y-57019999D01*
X169536602Y-57037195D01*
X169555100Y-57068259D01*
X169563851Y-57103337D01*
X169573976Y-57206133D01*
X169631185Y-57394726D01*
X169685269Y-57495910D01*
X169724090Y-57568538D01*
X169849117Y-57720883D01*
X170001462Y-57845910D01*
X170175273Y-57938814D01*
X170265868Y-57966295D01*
X170298955Y-57981984D01*
X170326019Y-58006655D01*
X175006000Y-63754000D01*
X177472144Y-63754000D01*
X177535597Y-63771465D01*
X177581175Y-63818939D01*
X177617739Y-63886442D01*
X177632681Y-63948027D01*
X177615242Y-64008953D01*
X177569976Y-64053306D01*
X177508707Y-64069500D01*
X177480366Y-64069500D01*
X177277843Y-64084322D01*
X177013449Y-64143219D01*
X176760441Y-64239986D01*
X176524223Y-64372559D01*
X176309825Y-64538109D01*
X176121813Y-64733120D01*
X175964201Y-64953420D01*
X175840342Y-65194329D01*
X175752881Y-65450695D01*
X175703680Y-65717066D01*
X175693787Y-65987764D01*
X175723413Y-66257016D01*
X175757998Y-66389305D01*
X175791928Y-66519088D01*
X175872941Y-66709727D01*
X175897871Y-66768392D01*
X176038982Y-66999611D01*
X176212253Y-67207818D01*
X176212255Y-67207820D01*
X176413998Y-67388582D01*
X176639910Y-67538044D01*
X176706726Y-67569366D01*
X176885177Y-67653021D01*
X177144562Y-67731058D01*
X177144569Y-67731060D01*
X177412561Y-67770500D01*
X177615631Y-67770500D01*
X177615634Y-67770500D01*
X177818156Y-67755677D01*
X177818156Y-67755676D01*
X178082553Y-67696780D01*
X178335558Y-67600014D01*
X178571777Y-67467441D01*
X178786177Y-67301888D01*
X178974186Y-67106881D01*
X178974264Y-67106770D01*
X178974400Y-67106656D01*
X178980484Y-67100347D01*
X178981150Y-67100989D01*
X179021530Y-67067092D01*
X179082074Y-67055111D01*
X179140894Y-67073801D01*
X179183418Y-67118531D01*
X179199113Y-67178219D01*
X179244599Y-75274719D01*
X179230177Y-75333459D01*
X179189685Y-75378389D01*
X179132755Y-75398819D01*
X178978866Y-75413976D01*
X178790273Y-75471185D01*
X178616463Y-75564089D01*
X178464117Y-75689117D01*
X178339089Y-75841463D01*
X178246185Y-76015273D01*
X178188976Y-76203866D01*
X178169659Y-76399999D01*
X178188976Y-76596133D01*
X178246185Y-76784726D01*
X178292547Y-76871462D01*
X178339090Y-76958538D01*
X178464117Y-77110883D01*
X178616462Y-77235910D01*
X178790273Y-77328814D01*
X178978868Y-77386024D01*
X179145399Y-77402425D01*
X179201941Y-77422597D01*
X179242382Y-77466965D01*
X179257242Y-77525131D01*
X179323980Y-89404534D01*
X179323825Y-89411465D01*
X179192648Y-92017388D01*
X179180351Y-92065315D01*
X179150294Y-92104618D01*
X178832394Y-92381786D01*
X178785555Y-92407382D01*
X178732297Y-92410918D01*
X178682486Y-92391738D01*
X178456087Y-92241954D01*
X178210822Y-92126978D01*
X177951437Y-92048941D01*
X177951431Y-92048940D01*
X177683439Y-92009500D01*
X177480369Y-92009500D01*
X177480366Y-92009500D01*
X177277843Y-92024322D01*
X177013449Y-92083219D01*
X176760441Y-92179986D01*
X176524223Y-92312559D01*
X176309825Y-92478109D01*
X176121813Y-92673120D01*
X175964201Y-92893420D01*
X175840342Y-93134329D01*
X175752881Y-93390695D01*
X175703680Y-93657066D01*
X175693787Y-93927764D01*
X175723413Y-94197016D01*
X175785074Y-94432874D01*
X175786681Y-94488643D01*
X175763676Y-94539471D01*
X175720716Y-94575069D01*
X175666499Y-94588230D01*
X174826054Y-94597673D01*
X174772275Y-94586072D01*
X174728808Y-94552346D01*
X174707206Y-94526024D01*
X174635883Y-94439117D01*
X174483538Y-94314090D01*
X174461091Y-94302091D01*
X174309726Y-94221185D01*
X174121133Y-94163976D01*
X174018482Y-94153866D01*
X173925000Y-94144659D01*
X173924999Y-94144659D01*
X173728866Y-94163976D01*
X173540273Y-94221185D01*
X173366463Y-94314089D01*
X173258116Y-94403008D01*
X173214117Y-94439117D01*
X173142794Y-94526024D01*
X173104445Y-94572752D01*
X173062237Y-94605881D01*
X173009985Y-94618078D01*
X168936163Y-94663851D01*
X168874562Y-94648261D01*
X168828771Y-94604204D01*
X168810816Y-94543250D01*
X168825412Y-94481406D01*
X168832143Y-94468814D01*
X168903814Y-94334727D01*
X168961024Y-94146132D01*
X168980341Y-93950000D01*
X168961024Y-93753868D01*
X168903814Y-93565273D01*
X168810910Y-93391462D01*
X168685883Y-93239117D01*
X168533538Y-93114090D01*
X168511091Y-93102091D01*
X168359726Y-93021185D01*
X168171133Y-92963976D01*
X167975000Y-92944659D01*
X167778866Y-92963976D01*
X167590273Y-93021185D01*
X167416463Y-93114089D01*
X167264117Y-93239117D01*
X167139089Y-93391463D01*
X167046185Y-93565273D01*
X166988976Y-93753866D01*
X166969659Y-93950000D01*
X166988976Y-94146133D01*
X167046185Y-94334726D01*
X167136047Y-94502845D01*
X167150660Y-94563993D01*
X167133404Y-94624448D01*
X167088715Y-94668670D01*
X167028082Y-94685290D01*
X157762433Y-94789399D01*
X157711454Y-94779061D01*
X157669201Y-94748724D01*
X157643109Y-94703725D01*
X157600144Y-94571491D01*
X157502870Y-94403007D01*
X157372691Y-94258429D01*
X157215300Y-94144078D01*
X157037568Y-94064947D01*
X156870755Y-94029490D01*
X156816830Y-94003189D01*
X156781565Y-93954651D01*
X156773215Y-93895240D01*
X156780598Y-93825000D01*
X156760262Y-93631518D01*
X156700144Y-93446492D01*
X156646668Y-93353868D01*
X156602870Y-93278007D01*
X156472691Y-93133429D01*
X156315300Y-93019078D01*
X156137568Y-92939947D01*
X155947276Y-92899500D01*
X155947274Y-92899500D01*
X155752726Y-92899500D01*
X155752724Y-92899500D01*
X155562431Y-92939947D01*
X155384699Y-93019078D01*
X155227308Y-93133429D01*
X155097129Y-93278007D01*
X154999855Y-93446492D01*
X154939739Y-93631514D01*
X154939738Y-93631518D01*
X154919402Y-93825000D01*
X154939738Y-94018482D01*
X154939739Y-94018485D01*
X154999855Y-94203507D01*
X155097129Y-94371992D01*
X155227306Y-94516568D01*
X155332770Y-94593192D01*
X155371964Y-94640462D01*
X155383673Y-94700740D01*
X155365026Y-94759245D01*
X155320596Y-94801631D01*
X155261277Y-94817502D01*
X153717026Y-94834853D01*
X153660816Y-94822087D01*
X153616452Y-94785286D01*
X153593519Y-94732403D01*
X153596973Y-94674865D01*
X153622273Y-94591462D01*
X153636024Y-94546132D01*
X153655341Y-94350000D01*
X153636024Y-94153868D01*
X153578814Y-93965273D01*
X153485910Y-93791462D01*
X153360883Y-93639117D01*
X153208538Y-93514090D01*
X153186091Y-93502092D01*
X153034726Y-93421185D01*
X152846133Y-93363976D01*
X152743502Y-93353868D01*
X152650000Y-93344659D01*
X152649999Y-93344659D01*
X152453866Y-93363976D01*
X152265273Y-93421185D01*
X152091463Y-93514089D01*
X151939117Y-93639117D01*
X151814089Y-93791463D01*
X151721185Y-93965273D01*
X151663976Y-94153866D01*
X151644659Y-94350000D01*
X151663975Y-94546130D01*
X151679489Y-94597271D01*
X151682805Y-94655571D01*
X151659072Y-94708924D01*
X151613551Y-94745499D01*
X151556338Y-94757185D01*
X148119370Y-94632657D01*
X148065120Y-94617943D01*
X148022941Y-94580789D01*
X148001498Y-94528829D01*
X148005199Y-94472745D01*
X148036024Y-94371132D01*
X148055341Y-94175000D01*
X148036024Y-93978868D01*
X147978814Y-93790273D01*
X147885910Y-93616462D01*
X147795901Y-93506786D01*
X147775043Y-93470008D01*
X147767755Y-93428361D01*
X147766841Y-92942754D01*
X147774050Y-92900863D01*
X147794984Y-92863867D01*
X147860910Y-92783538D01*
X147953814Y-92609727D01*
X148011024Y-92421132D01*
X148030341Y-92225000D01*
X148011024Y-92028868D01*
X147953814Y-91840273D01*
X147860910Y-91666462D01*
X147826883Y-91625000D01*
X154294659Y-91625000D01*
X154313976Y-91821133D01*
X154371185Y-92009726D01*
X154421906Y-92104618D01*
X154464090Y-92183538D01*
X154589117Y-92335883D01*
X154741462Y-92460910D01*
X154915273Y-92553814D01*
X155103868Y-92611024D01*
X155300000Y-92630341D01*
X155496132Y-92611024D01*
X155684727Y-92553814D01*
X155858538Y-92460910D01*
X156010883Y-92335883D01*
X156135910Y-92183538D01*
X156228814Y-92009727D01*
X156286024Y-91821132D01*
X156300909Y-91669999D01*
X162414659Y-91669999D01*
X162433976Y-91866133D01*
X162491185Y-92054726D01*
X162529805Y-92126978D01*
X162584090Y-92228538D01*
X162709117Y-92380883D01*
X162861462Y-92505910D01*
X163035273Y-92598814D01*
X163223868Y-92656024D01*
X163420000Y-92675341D01*
X163616132Y-92656024D01*
X163804727Y-92598814D01*
X163978538Y-92505910D01*
X164130883Y-92380883D01*
X164255910Y-92228538D01*
X164348814Y-92054727D01*
X164406024Y-91866132D01*
X164425341Y-91670000D01*
X164406024Y-91473868D01*
X164348814Y-91285273D01*
X164255910Y-91111462D01*
X164130883Y-90959117D01*
X163978538Y-90834090D01*
X163883962Y-90783538D01*
X163804726Y-90741185D01*
X163616133Y-90683976D01*
X163420000Y-90664659D01*
X163223866Y-90683976D01*
X163035273Y-90741185D01*
X162861463Y-90834089D01*
X162709117Y-90959117D01*
X162584089Y-91111463D01*
X162491185Y-91285273D01*
X162433976Y-91473866D01*
X162414659Y-91669999D01*
X156300909Y-91669999D01*
X156305341Y-91625000D01*
X156286024Y-91428868D01*
X156228814Y-91240273D01*
X156135910Y-91066462D01*
X156010883Y-90914117D01*
X155858538Y-90789090D01*
X155768916Y-90741186D01*
X155684726Y-90696185D01*
X155496133Y-90638976D01*
X155300000Y-90619659D01*
X155103866Y-90638976D01*
X154915273Y-90696185D01*
X154741463Y-90789089D01*
X154589117Y-90914117D01*
X154464089Y-91066463D01*
X154371185Y-91240273D01*
X154313976Y-91428866D01*
X154294659Y-91625000D01*
X147826883Y-91625000D01*
X147792276Y-91582832D01*
X147771419Y-91546055D01*
X147764132Y-91504412D01*
X147760101Y-89363981D01*
X147770316Y-89314468D01*
X147799446Y-89273146D01*
X149367780Y-87807895D01*
X149428153Y-87776905D01*
X149495801Y-87782337D01*
X149550457Y-87822567D01*
X149575750Y-87885540D01*
X149579738Y-87923482D01*
X149579739Y-87923485D01*
X149639855Y-88108507D01*
X149737129Y-88276992D01*
X149867308Y-88421570D01*
X150013077Y-88527477D01*
X150053295Y-88576964D01*
X150063600Y-88639895D01*
X150041269Y-88699625D01*
X149992205Y-88740359D01*
X149929387Y-88751323D01*
X149910001Y-88749627D01*
X149687668Y-88769079D01*
X149472085Y-88826844D01*
X149272312Y-88920000D01*
X149269814Y-88921165D01*
X149086993Y-89049178D01*
X149086989Y-89049181D01*
X148929181Y-89206989D01*
X148929178Y-89206992D01*
X148929178Y-89206993D01*
X148819178Y-89364090D01*
X148801164Y-89389816D01*
X148706844Y-89592085D01*
X148649079Y-89807668D01*
X148629627Y-90030000D01*
X148649079Y-90252331D01*
X148649080Y-90252334D01*
X148706844Y-90467913D01*
X148801165Y-90670186D01*
X148929178Y-90853007D01*
X149086993Y-91010822D01*
X149269814Y-91138835D01*
X149472087Y-91233156D01*
X149687666Y-91290920D01*
X149910000Y-91310372D01*
X150132334Y-91290920D01*
X150347913Y-91233156D01*
X150550186Y-91138835D01*
X150622594Y-91088133D01*
X150681114Y-91066351D01*
X150742831Y-91075850D01*
X150792092Y-91114221D01*
X150806718Y-91133282D01*
X150932159Y-91229536D01*
X151078238Y-91290044D01*
X151195639Y-91305500D01*
X152624360Y-91305499D01*
X152624362Y-91305499D01*
X152695515Y-91296132D01*
X152741762Y-91290044D01*
X152887841Y-91229536D01*
X153013282Y-91133282D01*
X153109536Y-91007841D01*
X153170044Y-90861762D01*
X153185500Y-90744361D01*
X153185499Y-89315640D01*
X153184062Y-89304727D01*
X153171436Y-89208814D01*
X153170044Y-89198238D01*
X153109536Y-89052159D01*
X153064640Y-88993649D01*
X153013282Y-88926717D01*
X152887840Y-88830463D01*
X152741762Y-88769956D01*
X152624362Y-88754500D01*
X151195637Y-88754500D01*
X151078239Y-88769955D01*
X150932160Y-88830463D01*
X150908211Y-88848840D01*
X150806720Y-88926717D01*
X150806717Y-88926719D01*
X150792091Y-88945780D01*
X150742829Y-88984151D01*
X150681113Y-88993649D01*
X150622596Y-88971867D01*
X150550186Y-88921165D01*
X150487387Y-88891881D01*
X150436992Y-88848840D01*
X150415963Y-88785990D01*
X150430308Y-88721285D01*
X150475928Y-88673211D01*
X150539793Y-88655500D01*
X150587276Y-88655500D01*
X150777568Y-88615052D01*
X150777569Y-88615051D01*
X150777571Y-88615051D01*
X150955299Y-88535922D01*
X151112692Y-88421569D01*
X151237280Y-88283199D01*
X151289316Y-88248840D01*
X151351495Y-88244151D01*
X151408093Y-88270318D01*
X151451462Y-88305910D01*
X151625273Y-88398814D01*
X151813868Y-88456024D01*
X152010000Y-88475341D01*
X152206132Y-88456024D01*
X152394727Y-88398814D01*
X152568538Y-88305910D01*
X152720883Y-88180883D01*
X152845910Y-88028538D01*
X152938814Y-87854727D01*
X152996024Y-87666132D01*
X153015341Y-87470000D01*
X153015340Y-87469999D01*
X153016538Y-87457846D01*
X153018216Y-87458011D01*
X153027858Y-87405249D01*
X153073850Y-87354755D01*
X153139599Y-87336275D01*
X158178251Y-87361510D01*
X158213611Y-87366845D01*
X158243868Y-87376024D01*
X158440000Y-87395341D01*
X158636132Y-87376024D01*
X158657859Y-87369433D01*
X158694468Y-87364095D01*
X166954396Y-87405464D01*
X166995840Y-87412816D01*
X167032438Y-87433609D01*
X167161821Y-87539791D01*
X167181462Y-87555910D01*
X167355273Y-87648814D01*
X167543868Y-87706024D01*
X167740000Y-87725341D01*
X167936132Y-87706024D01*
X168124727Y-87648814D01*
X168298538Y-87555910D01*
X168438026Y-87441433D01*
X168475206Y-87420433D01*
X168517303Y-87413292D01*
X172389535Y-87432685D01*
X172455642Y-87452170D01*
X172501136Y-87503946D01*
X172511957Y-87572015D01*
X172484763Y-87635346D01*
X172414089Y-87721463D01*
X172321185Y-87895273D01*
X172263976Y-88083866D01*
X172244659Y-88280000D01*
X172263976Y-88476133D01*
X172321185Y-88664726D01*
X172377432Y-88769956D01*
X172414090Y-88838538D01*
X172539117Y-88990883D01*
X172691462Y-89115910D01*
X172865273Y-89208814D01*
X173053868Y-89266024D01*
X173250000Y-89285341D01*
X173446132Y-89266024D01*
X173634727Y-89208814D01*
X173808538Y-89115910D01*
X173960883Y-88990883D01*
X174085910Y-88838538D01*
X174178814Y-88664727D01*
X174236024Y-88476132D01*
X174255341Y-88280000D01*
X174236024Y-88083868D01*
X174178814Y-87895273D01*
X174085910Y-87721462D01*
X174073239Y-87706023D01*
X174019681Y-87640762D01*
X173993190Y-87582296D01*
X173999482Y-87518418D01*
X174036866Y-87466247D01*
X174140883Y-87380883D01*
X174241292Y-87258534D01*
X174282123Y-87226077D01*
X174860000Y-86940000D01*
X175006000Y-85090000D01*
X173238650Y-84314726D01*
X172480069Y-83981963D01*
X172438489Y-83952213D01*
X172412446Y-83908217D01*
X172296440Y-83566000D01*
X171436481Y-81029120D01*
X171429919Y-80989811D01*
X171419681Y-78420000D01*
X175034659Y-78420000D01*
X175036170Y-78435341D01*
X175053976Y-78616133D01*
X175111185Y-78804726D01*
X175204089Y-78978537D01*
X175323448Y-79123976D01*
X175329117Y-79130883D01*
X175346095Y-79144816D01*
X175383482Y-79196989D01*
X175389774Y-79260867D01*
X175363284Y-79319333D01*
X175304089Y-79391463D01*
X175211185Y-79565273D01*
X175153976Y-79753866D01*
X175134659Y-79949999D01*
X175134659Y-79950000D01*
X175138940Y-79993463D01*
X175153976Y-80146133D01*
X175211185Y-80334726D01*
X175274839Y-80453814D01*
X175304090Y-80508538D01*
X175429117Y-80660883D01*
X175581462Y-80785910D01*
X175755273Y-80878814D01*
X175943868Y-80936024D01*
X176140000Y-80955341D01*
X176336132Y-80936024D01*
X176524727Y-80878814D01*
X176698538Y-80785910D01*
X176850883Y-80660883D01*
X176975910Y-80508538D01*
X177068814Y-80334727D01*
X177126024Y-80146132D01*
X177145341Y-79950000D01*
X177126024Y-79753868D01*
X177068814Y-79565273D01*
X176975910Y-79391462D01*
X176850883Y-79239117D01*
X176850882Y-79239116D01*
X176833903Y-79225181D01*
X176796516Y-79173006D01*
X176790225Y-79109128D01*
X176816715Y-79050666D01*
X176875910Y-78978538D01*
X176968814Y-78804727D01*
X177026024Y-78616132D01*
X177045341Y-78420000D01*
X177026024Y-78223868D01*
X176968814Y-78035273D01*
X176875910Y-77861462D01*
X176750883Y-77709117D01*
X176598538Y-77584090D01*
X176576091Y-77572092D01*
X176424726Y-77491185D01*
X176236133Y-77433976D01*
X176098493Y-77420420D01*
X176040000Y-77414659D01*
X176039999Y-77414659D01*
X175843866Y-77433976D01*
X175655273Y-77491185D01*
X175481463Y-77584089D01*
X175329117Y-77709117D01*
X175204089Y-77861463D01*
X175111185Y-78035273D01*
X175053976Y-78223866D01*
X175034659Y-78419999D01*
X175034659Y-78420000D01*
X171419681Y-78420000D01*
X171399721Y-73410000D01*
X172944659Y-73410000D01*
X172963976Y-73606133D01*
X173021185Y-73794726D01*
X173089914Y-73923308D01*
X173114090Y-73968538D01*
X173239117Y-74120883D01*
X173391462Y-74245910D01*
X173565273Y-74338814D01*
X173753868Y-74396024D01*
X173950000Y-74415341D01*
X174146132Y-74396024D01*
X174334727Y-74338814D01*
X174508538Y-74245910D01*
X174660883Y-74120883D01*
X174785910Y-73968538D01*
X174878814Y-73794727D01*
X174936024Y-73606132D01*
X174955341Y-73410000D01*
X174944578Y-73300721D01*
X174952510Y-73243375D01*
X174985614Y-73195878D01*
X175036673Y-73168587D01*
X175094556Y-73167450D01*
X175146644Y-73192715D01*
X175211462Y-73245910D01*
X175385273Y-73338814D01*
X175573868Y-73396024D01*
X175770000Y-73415341D01*
X175966132Y-73396024D01*
X176154727Y-73338814D01*
X176328538Y-73245910D01*
X176480883Y-73120883D01*
X176605910Y-72968538D01*
X176698814Y-72794727D01*
X176756024Y-72606132D01*
X176775341Y-72410000D01*
X176756024Y-72213868D01*
X176698814Y-72025273D01*
X176605910Y-71851462D01*
X176480883Y-71699117D01*
X176328538Y-71574090D01*
X176306091Y-71562091D01*
X176154726Y-71481185D01*
X175966133Y-71423976D01*
X175868066Y-71414317D01*
X175770000Y-71404659D01*
X175769999Y-71404659D01*
X175573866Y-71423976D01*
X175385273Y-71481185D01*
X175211463Y-71574089D01*
X175059117Y-71699117D01*
X174934089Y-71851463D01*
X174841185Y-72025273D01*
X174783976Y-72213866D01*
X174764658Y-72410000D01*
X174775421Y-72519277D01*
X174767488Y-72576625D01*
X174734385Y-72624122D01*
X174683326Y-72651412D01*
X174625443Y-72652549D01*
X174573354Y-72627283D01*
X174508538Y-72574090D01*
X174433490Y-72533976D01*
X174334726Y-72481185D01*
X174146133Y-72423976D01*
X173950000Y-72404659D01*
X173753866Y-72423976D01*
X173565273Y-72481185D01*
X173391463Y-72574089D01*
X173239117Y-72699117D01*
X173114089Y-72851463D01*
X173021185Y-73025273D01*
X172963976Y-73213866D01*
X172944659Y-73410000D01*
X171399721Y-73410000D01*
X171390000Y-70970000D01*
X167890000Y-66570000D01*
X167889999Y-66570000D01*
X167889999Y-66569999D01*
X162815411Y-66548006D01*
X162812598Y-66547962D01*
X159054518Y-66446392D01*
X158115000Y-66421000D01*
X158114999Y-66421000D01*
X153035000Y-69215000D01*
X153035000Y-76128567D01*
X153017979Y-76191269D01*
X152971589Y-76236756D01*
X152908565Y-76252543D01*
X152846210Y-76234294D01*
X152801642Y-76187020D01*
X152770398Y-76128567D01*
X152755910Y-76101462D01*
X152630883Y-75949117D01*
X152478538Y-75824090D01*
X152396987Y-75780500D01*
X152304726Y-75731185D01*
X152116133Y-75673976D01*
X151973569Y-75659935D01*
X151920000Y-75654659D01*
X151919999Y-75654659D01*
X151723866Y-75673976D01*
X151535273Y-75731185D01*
X151361463Y-75824089D01*
X151209117Y-75949117D01*
X151084089Y-76101463D01*
X150991185Y-76275273D01*
X150933976Y-76463866D01*
X150914659Y-76660000D01*
X150933976Y-76856133D01*
X150991185Y-77044726D01*
X151026547Y-77110883D01*
X151084090Y-77218538D01*
X151209117Y-77370883D01*
X151361462Y-77495910D01*
X151535273Y-77588814D01*
X151723868Y-77646024D01*
X151920000Y-77665341D01*
X152116132Y-77646024D01*
X152304727Y-77588814D01*
X152478538Y-77495910D01*
X152630883Y-77370883D01*
X152755910Y-77218538D01*
X152801641Y-77132980D01*
X152846210Y-77085706D01*
X152908565Y-77067457D01*
X152971589Y-77083244D01*
X153017979Y-77128731D01*
X153035000Y-77191433D01*
X153035000Y-79105961D01*
X153022921Y-79159344D01*
X152989036Y-79202327D01*
X152939948Y-79226535D01*
X152885221Y-79227251D01*
X152872274Y-79224500D01*
X152677726Y-79224500D01*
X152677724Y-79224500D01*
X152487431Y-79264947D01*
X152309699Y-79344078D01*
X152152308Y-79458429D01*
X152022129Y-79603007D01*
X151924855Y-79771492D01*
X151864738Y-79956514D01*
X151860855Y-79993463D01*
X151840334Y-80049841D01*
X151795748Y-80089986D01*
X151737534Y-80104500D01*
X151263450Y-80104500D01*
X151200748Y-80087479D01*
X151155260Y-80041089D01*
X151139474Y-79978065D01*
X151157723Y-79915709D01*
X151204994Y-79871143D01*
X151282138Y-79829910D01*
X151434483Y-79704883D01*
X151559510Y-79552538D01*
X151652414Y-79378727D01*
X151709624Y-79190132D01*
X151728941Y-78994000D01*
X151709624Y-78797868D01*
X151652414Y-78609273D01*
X151559510Y-78435462D01*
X151434483Y-78283117D01*
X151282138Y-78158090D01*
X151226794Y-78128508D01*
X151108326Y-78065185D01*
X150919733Y-78007976D01*
X150723600Y-77988659D01*
X150527466Y-78007976D01*
X150338873Y-78065185D01*
X150235997Y-78120174D01*
X150183628Y-78134667D01*
X150130091Y-78125377D01*
X150085666Y-78094089D01*
X150058884Y-78046812D01*
X150003814Y-77865273D01*
X149910910Y-77691462D01*
X149785883Y-77539117D01*
X149633538Y-77414090D01*
X149611091Y-77402091D01*
X149459726Y-77321185D01*
X149271133Y-77263976D01*
X149075000Y-77244659D01*
X148878866Y-77263976D01*
X148690273Y-77321185D01*
X148516463Y-77414089D01*
X148364117Y-77539117D01*
X148239089Y-77691463D01*
X148146185Y-77865273D01*
X148088976Y-78053866D01*
X148069659Y-78249999D01*
X148088976Y-78446133D01*
X148146185Y-78634726D01*
X148213618Y-78760883D01*
X148239090Y-78808538D01*
X148364117Y-78960883D01*
X148516462Y-79085910D01*
X148690273Y-79178814D01*
X148878868Y-79236024D01*
X149075000Y-79255341D01*
X149271132Y-79236024D01*
X149459727Y-79178814D01*
X149562607Y-79123823D01*
X149614970Y-79109332D01*
X149668507Y-79118622D01*
X149712932Y-79149909D01*
X149739715Y-79197187D01*
X149794785Y-79378726D01*
X149839009Y-79461462D01*
X149887690Y-79552538D01*
X150012717Y-79704883D01*
X150165062Y-79829910D01*
X150338873Y-79922814D01*
X150527468Y-79980024D01*
X150539473Y-79981206D01*
X150594854Y-80000612D01*
X150635111Y-80043311D01*
X150651225Y-80099739D01*
X150639589Y-80157258D01*
X150602808Y-80202984D01*
X150506718Y-80276716D01*
X150410463Y-80402159D01*
X150349956Y-80548237D01*
X150334500Y-80665638D01*
X150334500Y-81708788D01*
X150320485Y-81766052D01*
X150281609Y-81810373D01*
X147986571Y-83416899D01*
X147953218Y-83433426D01*
X147916462Y-83439310D01*
X147876657Y-83439631D01*
X147813638Y-83423011D01*
X147767752Y-83376729D01*
X147751674Y-83313569D01*
X147769847Y-83250980D01*
X147801281Y-83221319D01*
X147799097Y-83218658D01*
X147852903Y-83174500D01*
X147960883Y-83085883D01*
X148085910Y-82933538D01*
X148178814Y-82759727D01*
X148236024Y-82571132D01*
X148255341Y-82375000D01*
X148236024Y-82178868D01*
X148178814Y-81990273D01*
X148085910Y-81816462D01*
X147960883Y-81664117D01*
X147808538Y-81539090D01*
X147786091Y-81527091D01*
X147634726Y-81446185D01*
X147446133Y-81388976D01*
X147250000Y-81369659D01*
X147053866Y-81388976D01*
X146865273Y-81446185D01*
X146691463Y-81539089D01*
X146539117Y-81664117D01*
X146414089Y-81816463D01*
X146321185Y-81990273D01*
X146263976Y-82178866D01*
X146251526Y-82305273D01*
X146244659Y-82375000D01*
X146253120Y-82460910D01*
X146263976Y-82571133D01*
X146321185Y-82759726D01*
X146356342Y-82825500D01*
X146414090Y-82933538D01*
X146539117Y-83085883D01*
X146691462Y-83210910D01*
X146698401Y-83214619D01*
X146701394Y-83216219D01*
X146748564Y-83260617D01*
X146766909Y-83322743D01*
X146751422Y-83385642D01*
X146706331Y-83432149D01*
X146643941Y-83449573D01*
X135197514Y-83541882D01*
X135136048Y-83526144D01*
X135090413Y-83482063D01*
X135072558Y-83421178D01*
X135087154Y-83359437D01*
X135153814Y-83234727D01*
X135211024Y-83046132D01*
X135230341Y-82850000D01*
X135211024Y-82653868D01*
X135153814Y-82465273D01*
X135060910Y-82291462D01*
X134935883Y-82139117D01*
X134783538Y-82014090D01*
X134718108Y-81979117D01*
X134609726Y-81921185D01*
X134421133Y-81863976D01*
X134225000Y-81844659D01*
X134028866Y-81863976D01*
X133840273Y-81921185D01*
X133666463Y-82014089D01*
X133514117Y-82139117D01*
X133389089Y-82291463D01*
X133296185Y-82465273D01*
X133238976Y-82653866D01*
X133219659Y-82850000D01*
X133238976Y-83046133D01*
X133292118Y-83221319D01*
X133296186Y-83234727D01*
X133369273Y-83371463D01*
X133371183Y-83375036D01*
X133385793Y-83436283D01*
X133368438Y-83496809D01*
X133323595Y-83541008D01*
X133262824Y-83557485D01*
X132206999Y-83566000D01*
X129159000Y-86359999D01*
X129159000Y-90858389D01*
X129141627Y-90921687D01*
X129094378Y-90967248D01*
X127788944Y-91679303D01*
X127731312Y-91694432D01*
X125146916Y-91730831D01*
X125104219Y-91723886D01*
X125066505Y-91702696D01*
X124958537Y-91614089D01*
X124784726Y-91521185D01*
X124596133Y-91463976D01*
X124400000Y-91444659D01*
X124203866Y-91463976D01*
X124015273Y-91521185D01*
X123841462Y-91614089D01*
X123707471Y-91724053D01*
X123671401Y-91744654D01*
X123630552Y-91752188D01*
X121750474Y-91778669D01*
X121694237Y-91766066D01*
X121649772Y-91729405D01*
X121646764Y-91725421D01*
X121646760Y-91725417D01*
X121496041Y-91588018D01*
X121322638Y-91480652D01*
X121132457Y-91406976D01*
X121065629Y-91394483D01*
X120931976Y-91369500D01*
X120728024Y-91369500D01*
X120627784Y-91388237D01*
X120527542Y-91406976D01*
X120337361Y-91480652D01*
X120163958Y-91588018D01*
X120013236Y-91725420D01*
X119990471Y-91755566D01*
X119947568Y-91791447D01*
X119893263Y-91804827D01*
X118790005Y-91820366D01*
X118747595Y-91813521D01*
X118710067Y-91792617D01*
X117197085Y-90563319D01*
X117179427Y-90545747D01*
X117115550Y-90467914D01*
X117050883Y-90389117D01*
X116898538Y-90264090D01*
X116876544Y-90252334D01*
X116718302Y-90167751D01*
X116689074Y-90146074D01*
X116620724Y-90077724D01*
X116594599Y-90039279D01*
X116584466Y-89993916D01*
X116571909Y-89592085D01*
X116467781Y-86259999D01*
X126124659Y-86259999D01*
X126143976Y-86456133D01*
X126201185Y-86644726D01*
X126275558Y-86783868D01*
X126294090Y-86818538D01*
X126419117Y-86970883D01*
X126571462Y-87095910D01*
X126745273Y-87188814D01*
X126933868Y-87246024D01*
X127130000Y-87265341D01*
X127326132Y-87246024D01*
X127514727Y-87188814D01*
X127688538Y-87095910D01*
X127840883Y-86970883D01*
X127965910Y-86818538D01*
X128058814Y-86644727D01*
X128116024Y-86456132D01*
X128135341Y-86260000D01*
X128116024Y-86063868D01*
X128058814Y-85875273D01*
X127965910Y-85701462D01*
X127840883Y-85549117D01*
X127688538Y-85424090D01*
X127666091Y-85412092D01*
X127514726Y-85331185D01*
X127326133Y-85273976D01*
X127130000Y-85254659D01*
X126933866Y-85273976D01*
X126745273Y-85331185D01*
X126571463Y-85424089D01*
X126419117Y-85549117D01*
X126294089Y-85701463D01*
X126201185Y-85875273D01*
X126143976Y-86063866D01*
X126124659Y-86259999D01*
X116467781Y-86259999D01*
X116460451Y-86025436D01*
X116466970Y-85981706D01*
X116488419Y-85943043D01*
X117567855Y-84623732D01*
X117607128Y-84591976D01*
X117655809Y-84578517D01*
X120800000Y-84375000D01*
X121179879Y-83929999D01*
X127834659Y-83929999D01*
X127853976Y-84126133D01*
X127911185Y-84314726D01*
X127961799Y-84409418D01*
X128004090Y-84488538D01*
X128129117Y-84640883D01*
X128281462Y-84765910D01*
X128455273Y-84858814D01*
X128643868Y-84916024D01*
X128840000Y-84935341D01*
X129036132Y-84916024D01*
X129224727Y-84858814D01*
X129398538Y-84765910D01*
X129550883Y-84640883D01*
X129675910Y-84488538D01*
X129768814Y-84314727D01*
X129826024Y-84126132D01*
X129845341Y-83930000D01*
X129826024Y-83733868D01*
X129768814Y-83545273D01*
X129675910Y-83371462D01*
X129550883Y-83219117D01*
X129398538Y-83094090D01*
X129308815Y-83046132D01*
X129224726Y-83001185D01*
X129036133Y-82943976D01*
X128840000Y-82924659D01*
X128643866Y-82943976D01*
X128455273Y-83001185D01*
X128281463Y-83094089D01*
X128129117Y-83219117D01*
X128004089Y-83371463D01*
X127911185Y-83545273D01*
X127853976Y-83733866D01*
X127834659Y-83929999D01*
X121179879Y-83929999D01*
X121675000Y-83350000D01*
X121698061Y-81625000D01*
X125744659Y-81625000D01*
X125763976Y-81821133D01*
X125821185Y-82009726D01*
X125866423Y-82094360D01*
X125914090Y-82183538D01*
X126039117Y-82335883D01*
X126191462Y-82460910D01*
X126365273Y-82553814D01*
X126553868Y-82611024D01*
X126750000Y-82630341D01*
X126946132Y-82611024D01*
X127134727Y-82553814D01*
X127308538Y-82460910D01*
X127460883Y-82335883D01*
X127585910Y-82183538D01*
X127678814Y-82009727D01*
X127736024Y-81821132D01*
X127755341Y-81625000D01*
X127736024Y-81428868D01*
X127678814Y-81240273D01*
X127585910Y-81066462D01*
X127460883Y-80914117D01*
X127308538Y-80789090D01*
X127286091Y-80777091D01*
X127134726Y-80696185D01*
X126946133Y-80638976D01*
X126750000Y-80619659D01*
X126553866Y-80638976D01*
X126365273Y-80696185D01*
X126191463Y-80789089D01*
X126039117Y-80914117D01*
X125914089Y-81066463D01*
X125821185Y-81240273D01*
X125763976Y-81428866D01*
X125744659Y-81625000D01*
X121698061Y-81625000D01*
X121711230Y-80639958D01*
X121726385Y-80582196D01*
X121766789Y-80538213D01*
X121823061Y-80518220D01*
X121896132Y-80511024D01*
X122084727Y-80453814D01*
X122185406Y-80400000D01*
X133394402Y-80400000D01*
X133414738Y-80593482D01*
X133414739Y-80593485D01*
X133474855Y-80778507D01*
X133572129Y-80946992D01*
X133702308Y-81091570D01*
X133859699Y-81205921D01*
X133859700Y-81205921D01*
X133859701Y-81205922D01*
X133872517Y-81211628D01*
X134037431Y-81285052D01*
X134227724Y-81325500D01*
X134227726Y-81325500D01*
X134422274Y-81325500D01*
X134422276Y-81325500D01*
X134537764Y-81300951D01*
X134612571Y-81285051D01*
X134638899Y-81273329D01*
X134695819Y-81262779D01*
X134751329Y-81279220D01*
X134793325Y-81319071D01*
X134812652Y-81373644D01*
X134814737Y-81393480D01*
X134874855Y-81578507D01*
X134972129Y-81746992D01*
X135102308Y-81891570D01*
X135259699Y-82005921D01*
X135437431Y-82085052D01*
X135627724Y-82125500D01*
X135627726Y-82125500D01*
X135822274Y-82125500D01*
X135822276Y-82125500D01*
X136012568Y-82085052D01*
X136012569Y-82085051D01*
X136012571Y-82085051D01*
X136190299Y-82005922D01*
X136306929Y-81921185D01*
X136347691Y-81891570D01*
X136477870Y-81746992D01*
X136499927Y-81708788D01*
X136575144Y-81578508D01*
X136635262Y-81393482D01*
X136655598Y-81200000D01*
X136635262Y-81006518D01*
X136575144Y-80821492D01*
X136522831Y-80730883D01*
X136477870Y-80653007D01*
X136347691Y-80508429D01*
X136198451Y-80400000D01*
X137094402Y-80400000D01*
X137114738Y-80593482D01*
X137114739Y-80593485D01*
X137174855Y-80778507D01*
X137272129Y-80946992D01*
X137411029Y-81101255D01*
X137409725Y-81102428D01*
X137441928Y-81143645D01*
X137449073Y-81211628D01*
X137419107Y-81273068D01*
X137347129Y-81353007D01*
X137249855Y-81521492D01*
X137196840Y-81684659D01*
X137189738Y-81706518D01*
X137169402Y-81900000D01*
X137189738Y-82093482D01*
X137189739Y-82093485D01*
X137249855Y-82278507D01*
X137347129Y-82446992D01*
X137477308Y-82591570D01*
X137634699Y-82705921D01*
X137812431Y-82785052D01*
X138002724Y-82825500D01*
X138002726Y-82825500D01*
X138197274Y-82825500D01*
X138197276Y-82825500D01*
X138387568Y-82785052D01*
X138387569Y-82785051D01*
X138387571Y-82785051D01*
X138565299Y-82705922D01*
X138669327Y-82630341D01*
X138722691Y-82591570D01*
X138852870Y-82446992D01*
X138894435Y-82374999D01*
X138949283Y-82280000D01*
X143719402Y-82280000D01*
X143739738Y-82473482D01*
X143739739Y-82473485D01*
X143799855Y-82658507D01*
X143897129Y-82826992D01*
X144027308Y-82971570D01*
X144184699Y-83085921D01*
X144362431Y-83165052D01*
X144552724Y-83205500D01*
X144552726Y-83205500D01*
X144747274Y-83205500D01*
X144747276Y-83205500D01*
X144937568Y-83165052D01*
X144937569Y-83165051D01*
X144937571Y-83165051D01*
X145115299Y-83085922D01*
X145272692Y-82971569D01*
X145402870Y-82826992D01*
X145500144Y-82658508D01*
X145560262Y-82473482D01*
X145580598Y-82280000D01*
X145560262Y-82086518D01*
X145500144Y-81901492D01*
X145453749Y-81821133D01*
X145402870Y-81733007D01*
X145272691Y-81588429D01*
X145115300Y-81474078D01*
X144937568Y-81394947D01*
X144747276Y-81354500D01*
X144747274Y-81354500D01*
X144552726Y-81354500D01*
X144552724Y-81354500D01*
X144362431Y-81394947D01*
X144184699Y-81474078D01*
X144027308Y-81588429D01*
X143897129Y-81733007D01*
X143799855Y-81901492D01*
X143740214Y-82085052D01*
X143739738Y-82086518D01*
X143719402Y-82280000D01*
X138949283Y-82280000D01*
X138950144Y-82278508D01*
X139010262Y-82093482D01*
X139030598Y-81900000D01*
X139010262Y-81706518D01*
X138950144Y-81521492D01*
X138896667Y-81428866D01*
X138852870Y-81353007D01*
X138713971Y-81198745D01*
X138715273Y-81197572D01*
X138683070Y-81156352D01*
X138675926Y-81088369D01*
X138705893Y-81026930D01*
X138710790Y-81021492D01*
X138777870Y-80946992D01*
X138875144Y-80778508D01*
X138935262Y-80593482D01*
X138955598Y-80400000D01*
X138935262Y-80206518D01*
X138875144Y-80021492D01*
X138862355Y-79999341D01*
X138777870Y-79853007D01*
X138647691Y-79708429D01*
X138490300Y-79594078D01*
X138312568Y-79514947D01*
X138122276Y-79474500D01*
X138122274Y-79474500D01*
X137927726Y-79474500D01*
X137927724Y-79474500D01*
X137737431Y-79514947D01*
X137559699Y-79594078D01*
X137402308Y-79708429D01*
X137272129Y-79853007D01*
X137174855Y-80021492D01*
X137123203Y-80180464D01*
X137114738Y-80206518D01*
X137094402Y-80400000D01*
X136198451Y-80400000D01*
X136190300Y-80394078D01*
X136012568Y-80314947D01*
X135822276Y-80274500D01*
X135822274Y-80274500D01*
X135627726Y-80274500D01*
X135627724Y-80274500D01*
X135437430Y-80314947D01*
X135411099Y-80326671D01*
X135354174Y-80337220D01*
X135298664Y-80320776D01*
X135256669Y-80280923D01*
X135237346Y-80226352D01*
X135235262Y-80206518D01*
X135175144Y-80021492D01*
X135162355Y-79999341D01*
X135077870Y-79853007D01*
X134947691Y-79708429D01*
X134790300Y-79594078D01*
X134612568Y-79514947D01*
X134422276Y-79474500D01*
X134422274Y-79474500D01*
X134227726Y-79474500D01*
X134227724Y-79474500D01*
X134037431Y-79514947D01*
X133859699Y-79594078D01*
X133702308Y-79708429D01*
X133572129Y-79853007D01*
X133474855Y-80021492D01*
X133423203Y-80180464D01*
X133414738Y-80206518D01*
X133394402Y-80400000D01*
X122185406Y-80400000D01*
X122258538Y-80360910D01*
X122410883Y-80235883D01*
X122535910Y-80083538D01*
X122628814Y-79909727D01*
X122686024Y-79721132D01*
X122705341Y-79525000D01*
X122686024Y-79328868D01*
X122628814Y-79140273D01*
X122535910Y-78966462D01*
X122410883Y-78814117D01*
X122258538Y-78689090D01*
X122176927Y-78645468D01*
X122084726Y-78596185D01*
X121896134Y-78538976D01*
X121852879Y-78534715D01*
X121795684Y-78514105D01*
X121755160Y-78468788D01*
X121741047Y-78409659D01*
X121822362Y-72327273D01*
X121837623Y-72269319D01*
X121878288Y-72225287D01*
X121934855Y-72205472D01*
X121994108Y-72214504D01*
X122042201Y-72250271D01*
X122059117Y-72270883D01*
X122211462Y-72395910D01*
X122385273Y-72488814D01*
X122482765Y-72518388D01*
X122538645Y-72553773D01*
X122568384Y-72612855D01*
X122563519Y-72678820D01*
X122525433Y-72732899D01*
X122469118Y-72779116D01*
X122344089Y-72931463D01*
X122251185Y-73105273D01*
X122193976Y-73293866D01*
X122174659Y-73489999D01*
X122193976Y-73686133D01*
X122251185Y-73874726D01*
X122317705Y-73999176D01*
X122344090Y-74048538D01*
X122469117Y-74200883D01*
X122621462Y-74325910D01*
X122795273Y-74418814D01*
X122801275Y-74422022D01*
X122849180Y-74467631D01*
X122866822Y-74531380D01*
X122849181Y-74595128D01*
X122801276Y-74640738D01*
X122701461Y-74694090D01*
X122549117Y-74819117D01*
X122424089Y-74971463D01*
X122331185Y-75145273D01*
X122273976Y-75333866D01*
X122254659Y-75529999D01*
X122273976Y-75726133D01*
X122331185Y-75914726D01*
X122384929Y-76015273D01*
X122424090Y-76088538D01*
X122549117Y-76240883D01*
X122701462Y-76365910D01*
X122875273Y-76458814D01*
X123063868Y-76516024D01*
X123260000Y-76535341D01*
X123456132Y-76516024D01*
X123644727Y-76458814D01*
X123818538Y-76365910D01*
X123970883Y-76240883D01*
X124095910Y-76088538D01*
X124188814Y-75914727D01*
X124246024Y-75726132D01*
X124250568Y-75680000D01*
X125734659Y-75680000D01*
X125753976Y-75876133D01*
X125811185Y-76064726D01*
X125845309Y-76128567D01*
X125904090Y-76238538D01*
X126029117Y-76390883D01*
X126181462Y-76515910D01*
X126355273Y-76608814D01*
X126543868Y-76666024D01*
X126740000Y-76685341D01*
X126936132Y-76666024D01*
X127124727Y-76608814D01*
X127298538Y-76515910D01*
X127450883Y-76390883D01*
X127575910Y-76238538D01*
X127583147Y-76224999D01*
X142269659Y-76224999D01*
X142288976Y-76421133D01*
X142346185Y-76609726D01*
X142404656Y-76719117D01*
X142439090Y-76783538D01*
X142564117Y-76935883D01*
X142716462Y-77060910D01*
X142890272Y-77153813D01*
X142890273Y-77153814D01*
X143004550Y-77188480D01*
X143055775Y-77219001D01*
X143086831Y-77269904D01*
X143090536Y-77329418D01*
X143066034Y-77383780D01*
X143018989Y-77420420D01*
X142909699Y-77469078D01*
X142752308Y-77583429D01*
X142622129Y-77728007D01*
X142524855Y-77896492D01*
X142464739Y-78081514D01*
X142464738Y-78081518D01*
X142444402Y-78275000D01*
X142464738Y-78468482D01*
X142464739Y-78468485D01*
X142524855Y-78653507D01*
X142622129Y-78821992D01*
X142752308Y-78966570D01*
X142909699Y-79080921D01*
X142909700Y-79080921D01*
X142909701Y-79080922D01*
X142963016Y-79104659D01*
X143087431Y-79160052D01*
X143277724Y-79200500D01*
X143277726Y-79200500D01*
X143472274Y-79200500D01*
X143472276Y-79200500D01*
X143662568Y-79160052D01*
X143662569Y-79160051D01*
X143662571Y-79160051D01*
X143840299Y-79080922D01*
X143959938Y-78993999D01*
X143997691Y-78966570D01*
X144127870Y-78821992D01*
X144137838Y-78804727D01*
X144225144Y-78653508D01*
X144285262Y-78468482D01*
X144305598Y-78275000D01*
X144285262Y-78081518D01*
X144225144Y-77896492D01*
X144204920Y-77861463D01*
X144127870Y-77728007D01*
X143997691Y-77583429D01*
X143840300Y-77469078D01*
X143650665Y-77384648D01*
X143652225Y-77381144D01*
X143616705Y-77362934D01*
X143581840Y-77308497D01*
X143579111Y-77243909D01*
X143609262Y-77186725D01*
X143649905Y-77161347D01*
X143648956Y-77159571D01*
X143659725Y-77153814D01*
X143659727Y-77153814D01*
X143833538Y-77060910D01*
X143985883Y-76935883D01*
X144110910Y-76783538D01*
X144203814Y-76609727D01*
X144261024Y-76421132D01*
X144280341Y-76225000D01*
X144261024Y-76028868D01*
X144203814Y-75840273D01*
X144110910Y-75666462D01*
X143985883Y-75514117D01*
X143833538Y-75389090D01*
X143730225Y-75333868D01*
X143659726Y-75296185D01*
X143471133Y-75238976D01*
X143275000Y-75219659D01*
X143078866Y-75238976D01*
X142890273Y-75296185D01*
X142716463Y-75389089D01*
X142564117Y-75514117D01*
X142439089Y-75666463D01*
X142346185Y-75840273D01*
X142288976Y-76028866D01*
X142269659Y-76224999D01*
X127583147Y-76224999D01*
X127668814Y-76064727D01*
X127726024Y-75876132D01*
X127745341Y-75680000D01*
X127726024Y-75483868D01*
X127668814Y-75295273D01*
X127575910Y-75121462D01*
X127450883Y-74969117D01*
X127298538Y-74844090D01*
X127245806Y-74815904D01*
X127124726Y-74751185D01*
X126936133Y-74693976D01*
X126740000Y-74674659D01*
X126543866Y-74693976D01*
X126355273Y-74751185D01*
X126181463Y-74844089D01*
X126029117Y-74969117D01*
X125904089Y-75121463D01*
X125811185Y-75295273D01*
X125753976Y-75483866D01*
X125734659Y-75680000D01*
X124250568Y-75680000D01*
X124265341Y-75530000D01*
X124246024Y-75333868D01*
X124188814Y-75145273D01*
X124095910Y-74971462D01*
X123970883Y-74819117D01*
X123818538Y-74694090D01*
X123644759Y-74601203D01*
X123638724Y-74597977D01*
X123590819Y-74552368D01*
X123573177Y-74488619D01*
X123590819Y-74424870D01*
X123638722Y-74379262D01*
X123738538Y-74325910D01*
X123890883Y-74200883D01*
X124015910Y-74048538D01*
X124108814Y-73874727D01*
X124166024Y-73686132D01*
X124185341Y-73490000D01*
X124166024Y-73293868D01*
X124108814Y-73105273D01*
X124015910Y-72931462D01*
X123890883Y-72779117D01*
X123738538Y-72654090D01*
X123637343Y-72600000D01*
X123564726Y-72561185D01*
X123467236Y-72531612D01*
X123411354Y-72496225D01*
X123381615Y-72437143D01*
X123386481Y-72371177D01*
X123424565Y-72317102D01*
X123480883Y-72270883D01*
X123605910Y-72118538D01*
X123698814Y-71944727D01*
X123756024Y-71756132D01*
X123775341Y-71560000D01*
X123756024Y-71363868D01*
X123698814Y-71175273D01*
X123605910Y-71001462D01*
X123480883Y-70849117D01*
X123328538Y-70724090D01*
X123243930Y-70678866D01*
X123236695Y-70674999D01*
X131644659Y-70674999D01*
X131663976Y-70871133D01*
X131721185Y-71059726D01*
X131793309Y-71194659D01*
X131814090Y-71233538D01*
X131939117Y-71385883D01*
X132091462Y-71510910D01*
X132265273Y-71603814D01*
X132453868Y-71661024D01*
X132565835Y-71672051D01*
X132622571Y-71692351D01*
X132663039Y-71737000D01*
X132677681Y-71795453D01*
X132663040Y-71853906D01*
X132622573Y-71898556D01*
X132565836Y-71918857D01*
X132513866Y-71923976D01*
X132325273Y-71981185D01*
X132151463Y-72074089D01*
X131999117Y-72199117D01*
X131874089Y-72351463D01*
X131781185Y-72525273D01*
X131723976Y-72713866D01*
X131704659Y-72910000D01*
X131723976Y-73106133D01*
X131781185Y-73294726D01*
X131853673Y-73430340D01*
X131874090Y-73468538D01*
X131999117Y-73620883D01*
X132151462Y-73745910D01*
X132325273Y-73838814D01*
X132513868Y-73896024D01*
X132710000Y-73915341D01*
X132906132Y-73896024D01*
X133057855Y-73849999D01*
X135894659Y-73849999D01*
X135913976Y-74046133D01*
X135971185Y-74234726D01*
X136019924Y-74325909D01*
X136064090Y-74408538D01*
X136189117Y-74560883D01*
X136341462Y-74685910D01*
X136515273Y-74778814D01*
X136703868Y-74836024D01*
X136900000Y-74855341D01*
X137096132Y-74836024D01*
X137284727Y-74778814D01*
X137458538Y-74685910D01*
X137610883Y-74560883D01*
X137735910Y-74408538D01*
X137828814Y-74234727D01*
X137886024Y-74046132D01*
X137905341Y-73850000D01*
X137886024Y-73653868D01*
X137828814Y-73465273D01*
X137735910Y-73291462D01*
X137610883Y-73139117D01*
X137458538Y-73014090D01*
X137401376Y-72983536D01*
X137284726Y-72921185D01*
X137096133Y-72863976D01*
X136900000Y-72844659D01*
X136703866Y-72863976D01*
X136515273Y-72921185D01*
X136341463Y-73014089D01*
X136189117Y-73139117D01*
X136064089Y-73291463D01*
X135971185Y-73465273D01*
X135913976Y-73653866D01*
X135894659Y-73849999D01*
X133057855Y-73849999D01*
X133094727Y-73838814D01*
X133268538Y-73745910D01*
X133420883Y-73620883D01*
X133545910Y-73468538D01*
X133638814Y-73294727D01*
X133696024Y-73106132D01*
X133715341Y-72910000D01*
X133696024Y-72713868D01*
X133638814Y-72525273D01*
X133545910Y-72351462D01*
X133420883Y-72199117D01*
X133268538Y-72074090D01*
X133207497Y-72041463D01*
X133094726Y-71981185D01*
X132906133Y-71923976D01*
X132794164Y-71912948D01*
X132737427Y-71892647D01*
X132696960Y-71847998D01*
X132682318Y-71789545D01*
X132696960Y-71731091D01*
X132737428Y-71686442D01*
X132794164Y-71666142D01*
X132846132Y-71661024D01*
X133034727Y-71603814D01*
X133208538Y-71510910D01*
X133360883Y-71385883D01*
X133485910Y-71233538D01*
X133578814Y-71059727D01*
X133636024Y-70871132D01*
X133655341Y-70675000D01*
X133636024Y-70478868D01*
X133578814Y-70290273D01*
X133485910Y-70116462D01*
X133360883Y-69964117D01*
X133208538Y-69839090D01*
X133186091Y-69827091D01*
X133034726Y-69746185D01*
X132846133Y-69688976D01*
X132650000Y-69669659D01*
X132453866Y-69688976D01*
X132265273Y-69746185D01*
X132091463Y-69839089D01*
X131939117Y-69964117D01*
X131814089Y-70116463D01*
X131721185Y-70290273D01*
X131663976Y-70478866D01*
X131644659Y-70674999D01*
X123236695Y-70674999D01*
X123154726Y-70631185D01*
X122966133Y-70573976D01*
X122770000Y-70554659D01*
X122573866Y-70573976D01*
X122385273Y-70631185D01*
X122211463Y-70724089D01*
X122211461Y-70724090D01*
X122211462Y-70724090D01*
X122059117Y-70849117D01*
X122059115Y-70849119D01*
X122049677Y-70856865D01*
X122048311Y-70855201D01*
X122014377Y-70880290D01*
X121954420Y-70888928D01*
X121897526Y-70868134D01*
X121857270Y-70822870D01*
X121843262Y-70763943D01*
X121895187Y-66880000D01*
X122914659Y-66880000D01*
X122915307Y-66886579D01*
X122933976Y-67076133D01*
X122991185Y-67264726D01*
X123038640Y-67353507D01*
X123084090Y-67438538D01*
X123209117Y-67590883D01*
X123361462Y-67715910D01*
X123535273Y-67808814D01*
X123723868Y-67866024D01*
X123920000Y-67885341D01*
X124116132Y-67866024D01*
X124304727Y-67808814D01*
X124385762Y-67765500D01*
X128404659Y-67765500D01*
X128408925Y-67808814D01*
X128423976Y-67961633D01*
X128481185Y-68150226D01*
X128562091Y-68301591D01*
X128574090Y-68324038D01*
X128699117Y-68476383D01*
X128851462Y-68601410D01*
X129025273Y-68694314D01*
X129213868Y-68751524D01*
X129410000Y-68770841D01*
X129606132Y-68751524D01*
X129794727Y-68694314D01*
X129968538Y-68601410D01*
X130120883Y-68476383D01*
X130245910Y-68324038D01*
X130338814Y-68150227D01*
X130396024Y-67961632D01*
X130415341Y-67765500D01*
X130396024Y-67569368D01*
X130338814Y-67380773D01*
X130245910Y-67206962D01*
X130120883Y-67054617D01*
X129968538Y-66929590D01*
X129875760Y-66879999D01*
X129794726Y-66836685D01*
X129606133Y-66779476D01*
X129410000Y-66760159D01*
X129213866Y-66779476D01*
X129025273Y-66836685D01*
X128851463Y-66929589D01*
X128699117Y-67054617D01*
X128574089Y-67206963D01*
X128481185Y-67380773D01*
X128423976Y-67569366D01*
X128423975Y-67569368D01*
X128423976Y-67569368D01*
X128404659Y-67765500D01*
X124385762Y-67765500D01*
X124478538Y-67715910D01*
X124630883Y-67590883D01*
X124755910Y-67438538D01*
X124848814Y-67264727D01*
X124906024Y-67076132D01*
X124925341Y-66880000D01*
X124906024Y-66683868D01*
X124848814Y-66495273D01*
X124755910Y-66321462D01*
X124630883Y-66169117D01*
X124478538Y-66044090D01*
X124473847Y-66040240D01*
X124437951Y-65991839D01*
X124429109Y-65932232D01*
X124449410Y-65875495D01*
X124494056Y-65835030D01*
X124548538Y-65805910D01*
X124700883Y-65680883D01*
X124825910Y-65528538D01*
X124918814Y-65354727D01*
X124976024Y-65166132D01*
X124995341Y-64970000D01*
X124993371Y-64949999D01*
X129994659Y-64949999D01*
X130013976Y-65146133D01*
X130071185Y-65334726D01*
X130149470Y-65481186D01*
X130164090Y-65508538D01*
X130289117Y-65660883D01*
X130441462Y-65785910D01*
X130615273Y-65878814D01*
X130803868Y-65936024D01*
X131000000Y-65955341D01*
X131196132Y-65936024D01*
X131384727Y-65878814D01*
X131558538Y-65785910D01*
X131710883Y-65660883D01*
X131835910Y-65508538D01*
X131893925Y-65400000D01*
X132444659Y-65400000D01*
X132463976Y-65596133D01*
X132521185Y-65784726D01*
X132582167Y-65898814D01*
X132614090Y-65958538D01*
X132739117Y-66110883D01*
X132891462Y-66235910D01*
X133065273Y-66328814D01*
X133253868Y-66386024D01*
X133450000Y-66405341D01*
X133646132Y-66386024D01*
X133834727Y-66328814D01*
X134008538Y-66235910D01*
X134108775Y-66153646D01*
X134145665Y-66132749D01*
X134187440Y-66125500D01*
X138434882Y-66125500D01*
X138500362Y-66144199D01*
X138546094Y-66194656D01*
X138558284Y-66261652D01*
X138545712Y-66389305D01*
X138544659Y-66400000D01*
X138563976Y-66596133D01*
X138621185Y-66784726D01*
X138675627Y-66886579D01*
X138714090Y-66958538D01*
X138839117Y-67110883D01*
X138991462Y-67235910D01*
X139165273Y-67328814D01*
X139353868Y-67386024D01*
X139538656Y-67404223D01*
X139595390Y-67424524D01*
X139635858Y-67469173D01*
X139650500Y-67527626D01*
X139650500Y-70025500D01*
X139633887Y-70087500D01*
X139588500Y-70132887D01*
X139526500Y-70149500D01*
X137211888Y-70149500D01*
X137193918Y-70148191D01*
X137185965Y-70147026D01*
X137171245Y-70144870D01*
X137171244Y-70144870D01*
X137123717Y-70149028D01*
X137112910Y-70149500D01*
X137107742Y-70149500D01*
X137078045Y-70152970D01*
X137074461Y-70153336D01*
X137026979Y-70157490D01*
X137004019Y-70157365D01*
X136875000Y-70144658D01*
X136678866Y-70163976D01*
X136490273Y-70221185D01*
X136316463Y-70314089D01*
X136164117Y-70439117D01*
X136039089Y-70591463D01*
X135946185Y-70765273D01*
X135888976Y-70953866D01*
X135875971Y-71085910D01*
X135869659Y-71150000D01*
X135875960Y-71213976D01*
X135888976Y-71346133D01*
X135946185Y-71534726D01*
X136019124Y-71671185D01*
X136039090Y-71708538D01*
X136164117Y-71860883D01*
X136316462Y-71985910D01*
X136490273Y-72078814D01*
X136678868Y-72136024D01*
X136875000Y-72155341D01*
X137071132Y-72136024D01*
X137259727Y-72078814D01*
X137433538Y-71985910D01*
X137585883Y-71860883D01*
X137710910Y-71708538D01*
X137733622Y-71666046D01*
X137779231Y-71618142D01*
X137842980Y-71600500D01*
X139637560Y-71600500D01*
X139679335Y-71607749D01*
X139716224Y-71628646D01*
X139816462Y-71710910D01*
X139938068Y-71775910D01*
X139964373Y-71789970D01*
X140011221Y-71833847D01*
X140029854Y-71895270D01*
X140015279Y-71957780D01*
X139971185Y-72040275D01*
X139913976Y-72228866D01*
X139894659Y-72425000D01*
X139913976Y-72621133D01*
X139971185Y-72809726D01*
X140030762Y-72921186D01*
X140064090Y-72983538D01*
X140189117Y-73135883D01*
X140341462Y-73260910D01*
X140515273Y-73353814D01*
X140703868Y-73411024D01*
X140900000Y-73430341D01*
X141096132Y-73411024D01*
X141284727Y-73353814D01*
X141458538Y-73260910D01*
X141610883Y-73135883D01*
X141735910Y-72983538D01*
X141828814Y-72809727D01*
X141886024Y-72621132D01*
X141905341Y-72425000D01*
X141886024Y-72228868D01*
X141828814Y-72040273D01*
X141735910Y-71866462D01*
X141610883Y-71714117D01*
X141532757Y-71650000D01*
X143004659Y-71650000D01*
X143006746Y-71671185D01*
X143023976Y-71846133D01*
X143081185Y-72034726D01*
X143162092Y-72186091D01*
X143174090Y-72208538D01*
X143299117Y-72360883D01*
X143451462Y-72485910D01*
X143625273Y-72578814D01*
X143813868Y-72636024D01*
X144010000Y-72655341D01*
X144206132Y-72636024D01*
X144324887Y-72600000D01*
X149894659Y-72600000D01*
X149913976Y-72796133D01*
X149971185Y-72984726D01*
X149989736Y-73019432D01*
X150064090Y-73158538D01*
X150189117Y-73310883D01*
X150341462Y-73435910D01*
X150515273Y-73528814D01*
X150703868Y-73586024D01*
X150900000Y-73605341D01*
X151096132Y-73586024D01*
X151284727Y-73528814D01*
X151458538Y-73435910D01*
X151610883Y-73310883D01*
X151735910Y-73158538D01*
X151828814Y-72984727D01*
X151886024Y-72796132D01*
X151905341Y-72600000D01*
X151886024Y-72403868D01*
X151828814Y-72215273D01*
X151735910Y-72041462D01*
X151610883Y-71889117D01*
X151458538Y-71764090D01*
X151385451Y-71725024D01*
X151284726Y-71671185D01*
X151096133Y-71613976D01*
X150900000Y-71594659D01*
X150703866Y-71613976D01*
X150515273Y-71671185D01*
X150341463Y-71764089D01*
X150189117Y-71889117D01*
X150064089Y-72041463D01*
X149971185Y-72215273D01*
X149913976Y-72403866D01*
X149894659Y-72600000D01*
X144324887Y-72600000D01*
X144394727Y-72578814D01*
X144568538Y-72485910D01*
X144720883Y-72360883D01*
X144845910Y-72208538D01*
X144938814Y-72034727D01*
X144996024Y-71846132D01*
X145015341Y-71650000D01*
X144996024Y-71453868D01*
X144938814Y-71265273D01*
X144845910Y-71091462D01*
X144720883Y-70939117D01*
X144568538Y-70814090D01*
X144474720Y-70763943D01*
X144394726Y-70721185D01*
X144206133Y-70663976D01*
X144010000Y-70644659D01*
X143813866Y-70663976D01*
X143625273Y-70721185D01*
X143451463Y-70814089D01*
X143299117Y-70939117D01*
X143174089Y-71091463D01*
X143081185Y-71265273D01*
X143023976Y-71453866D01*
X143009534Y-71600500D01*
X143004659Y-71650000D01*
X141532757Y-71650000D01*
X141458538Y-71589090D01*
X141430473Y-71574089D01*
X141310626Y-71510029D01*
X141263778Y-71466151D01*
X141245145Y-71404728D01*
X141259720Y-71342220D01*
X141303814Y-71259727D01*
X141361024Y-71071132D01*
X141380341Y-70875000D01*
X141361024Y-70678868D01*
X141303814Y-70490273D01*
X141210910Y-70316462D01*
X141129647Y-70217443D01*
X141108749Y-70180552D01*
X141101500Y-70138778D01*
X141101500Y-66975000D01*
X150144402Y-66975000D01*
X150164738Y-67168482D01*
X150164739Y-67168485D01*
X150224855Y-67353507D01*
X150322129Y-67521992D01*
X150461029Y-67676255D01*
X150458961Y-67678116D01*
X150488917Y-67716457D01*
X150496063Y-67784441D01*
X150466097Y-67845881D01*
X150347129Y-67978007D01*
X150249855Y-68146492D01*
X150192169Y-68324036D01*
X150189738Y-68331518D01*
X150169402Y-68525000D01*
X150189738Y-68718482D01*
X150189739Y-68718485D01*
X150249855Y-68903507D01*
X150347129Y-69071992D01*
X150477308Y-69216570D01*
X150600902Y-69306365D01*
X150634701Y-69330922D01*
X150673028Y-69347986D01*
X150718059Y-69382131D01*
X150743262Y-69432713D01*
X150743401Y-69489225D01*
X150718448Y-69539930D01*
X150594089Y-69691463D01*
X150501185Y-69865273D01*
X150443976Y-70053866D01*
X150427497Y-70221185D01*
X150424659Y-70250000D01*
X150430971Y-70314089D01*
X150443976Y-70446133D01*
X150501185Y-70634726D01*
X150556921Y-70739000D01*
X150594090Y-70808538D01*
X150719117Y-70960883D01*
X150871462Y-71085910D01*
X151045273Y-71178814D01*
X151233868Y-71236024D01*
X151430000Y-71255341D01*
X151626132Y-71236024D01*
X151814727Y-71178814D01*
X151988538Y-71085910D01*
X152140883Y-70960883D01*
X152265910Y-70808538D01*
X152358814Y-70634727D01*
X152416024Y-70446132D01*
X152435341Y-70250000D01*
X152416024Y-70053868D01*
X152358814Y-69865273D01*
X152265910Y-69691462D01*
X152140883Y-69539117D01*
X151988538Y-69414090D01*
X151928747Y-69382131D01*
X151828660Y-69328633D01*
X151786675Y-69291996D01*
X151764973Y-69240673D01*
X151767936Y-69185030D01*
X151794962Y-69136304D01*
X151852870Y-69071992D01*
X151950144Y-68903508D01*
X152010262Y-68718482D01*
X152030598Y-68525000D01*
X152010262Y-68331518D01*
X151950144Y-68146492D01*
X151950143Y-68146491D01*
X151852870Y-67978007D01*
X151713971Y-67823745D01*
X151716037Y-67821884D01*
X151686080Y-67783539D01*
X151678936Y-67715556D01*
X151708901Y-67654119D01*
X151827870Y-67521992D01*
X151925144Y-67353508D01*
X151985262Y-67168482D01*
X152005598Y-66975000D01*
X151985262Y-66781518D01*
X151925144Y-66596492D01*
X151880455Y-66519088D01*
X151827870Y-66428007D01*
X151811656Y-66410000D01*
X153954659Y-66410000D01*
X153955742Y-66421000D01*
X153973976Y-66606133D01*
X154031185Y-66794726D01*
X154080282Y-66886579D01*
X154124090Y-66968538D01*
X154249117Y-67120883D01*
X154401462Y-67245910D01*
X154575273Y-67338814D01*
X154763868Y-67396024D01*
X154960000Y-67415341D01*
X155156132Y-67396024D01*
X155344727Y-67338814D01*
X155518538Y-67245910D01*
X155670883Y-67120883D01*
X155795910Y-66968538D01*
X155888814Y-66794727D01*
X155946024Y-66606132D01*
X155965341Y-66410000D01*
X155956969Y-66325000D01*
X172494659Y-66325000D01*
X172513976Y-66521133D01*
X172571185Y-66709726D01*
X172639047Y-66836686D01*
X172664090Y-66883538D01*
X172789117Y-67035883D01*
X172941462Y-67160910D01*
X173115273Y-67253814D01*
X173303868Y-67311024D01*
X173500000Y-67330341D01*
X173696132Y-67311024D01*
X173884727Y-67253814D01*
X174058538Y-67160910D01*
X174210883Y-67035883D01*
X174335910Y-66883538D01*
X174428814Y-66709727D01*
X174486024Y-66521132D01*
X174505341Y-66325000D01*
X174486024Y-66128868D01*
X174428814Y-65940273D01*
X174335910Y-65766462D01*
X174210883Y-65614117D01*
X174058538Y-65489090D01*
X173986706Y-65450695D01*
X173884726Y-65396185D01*
X173696133Y-65338976D01*
X173500000Y-65319659D01*
X173303866Y-65338976D01*
X173115273Y-65396185D01*
X172941463Y-65489089D01*
X172789117Y-65614117D01*
X172664089Y-65766463D01*
X172571185Y-65940273D01*
X172513976Y-66128866D01*
X172494659Y-66325000D01*
X155956969Y-66325000D01*
X155946024Y-66213868D01*
X155888814Y-66025273D01*
X155795910Y-65851462D01*
X155670883Y-65699117D01*
X155518538Y-65574090D01*
X155489959Y-65558814D01*
X155344726Y-65481185D01*
X155156133Y-65423976D01*
X154960000Y-65404659D01*
X154763866Y-65423976D01*
X154575273Y-65481185D01*
X154401463Y-65574089D01*
X154249117Y-65699117D01*
X154124089Y-65851463D01*
X154031185Y-66025273D01*
X153973976Y-66213866D01*
X153962655Y-66328814D01*
X153954659Y-66410000D01*
X151811656Y-66410000D01*
X151697691Y-66283429D01*
X151540300Y-66169078D01*
X151362568Y-66089947D01*
X151172276Y-66049500D01*
X151172274Y-66049500D01*
X150977726Y-66049500D01*
X150977724Y-66049500D01*
X150787431Y-66089947D01*
X150609699Y-66169078D01*
X150452308Y-66283429D01*
X150322129Y-66428007D01*
X150224855Y-66596492D01*
X150169003Y-66768392D01*
X150164738Y-66781518D01*
X150144402Y-66975000D01*
X141101500Y-66975000D01*
X141101500Y-66105759D01*
X141108749Y-66063984D01*
X141129647Y-66027094D01*
X141185910Y-65958538D01*
X141278814Y-65784727D01*
X141336024Y-65596132D01*
X141355341Y-65400000D01*
X141336024Y-65203868D01*
X141278814Y-65015273D01*
X141185910Y-64841462D01*
X141060883Y-64689117D01*
X140908538Y-64564090D01*
X140859931Y-64538109D01*
X140734726Y-64471185D01*
X140546133Y-64413976D01*
X140350000Y-64394659D01*
X140153866Y-64413976D01*
X139965273Y-64471185D01*
X139791462Y-64564089D01*
X139691225Y-64646353D01*
X139654335Y-64667251D01*
X139612560Y-64674500D01*
X134187440Y-64674500D01*
X134145665Y-64667251D01*
X134108775Y-64646353D01*
X134008537Y-64564089D01*
X133834726Y-64471185D01*
X133646133Y-64413976D01*
X133450000Y-64394659D01*
X133253866Y-64413976D01*
X133065273Y-64471185D01*
X132891463Y-64564089D01*
X132739117Y-64689117D01*
X132614089Y-64841463D01*
X132521185Y-65015273D01*
X132463976Y-65203866D01*
X132444659Y-65400000D01*
X131893925Y-65400000D01*
X131928814Y-65334727D01*
X131986024Y-65146132D01*
X132005341Y-64950000D01*
X131986024Y-64753868D01*
X131928814Y-64565273D01*
X131835910Y-64391462D01*
X131710883Y-64239117D01*
X131558538Y-64114090D01*
X131457343Y-64060000D01*
X131438635Y-64050000D01*
X141814659Y-64050000D01*
X141833976Y-64246133D01*
X141891185Y-64434726D01*
X141946445Y-64538109D01*
X141984090Y-64608538D01*
X142109117Y-64760883D01*
X142261462Y-64885910D01*
X142435273Y-64978814D01*
X142623868Y-65036024D01*
X142820000Y-65055341D01*
X143016132Y-65036024D01*
X143204727Y-64978814D01*
X143378538Y-64885910D01*
X143530883Y-64760883D01*
X143655910Y-64608538D01*
X143748814Y-64434727D01*
X143806024Y-64246132D01*
X143825341Y-64050000D01*
X143806024Y-63853868D01*
X143748814Y-63665273D01*
X143655910Y-63491462D01*
X143530883Y-63339117D01*
X143378538Y-63214090D01*
X143344526Y-63195910D01*
X143204726Y-63121185D01*
X143016133Y-63063976D01*
X142820000Y-63044659D01*
X142623866Y-63063976D01*
X142435273Y-63121185D01*
X142261463Y-63214089D01*
X142109117Y-63339117D01*
X141984089Y-63491463D01*
X141891185Y-63665273D01*
X141833976Y-63853866D01*
X141814659Y-64050000D01*
X131438635Y-64050000D01*
X131384726Y-64021185D01*
X131196133Y-63963976D01*
X131000000Y-63944659D01*
X130803866Y-63963976D01*
X130615273Y-64021185D01*
X130441463Y-64114089D01*
X130289117Y-64239117D01*
X130164089Y-64391463D01*
X130071185Y-64565273D01*
X130013976Y-64753866D01*
X129994659Y-64949999D01*
X124993371Y-64949999D01*
X124976024Y-64773868D01*
X124918814Y-64585273D01*
X124825910Y-64411462D01*
X124700883Y-64259117D01*
X124548538Y-64134090D01*
X124478246Y-64096518D01*
X124374726Y-64041185D01*
X124186133Y-63983976D01*
X123990000Y-63964659D01*
X123793866Y-63983976D01*
X123605273Y-64041185D01*
X123431463Y-64134089D01*
X123279117Y-64259117D01*
X123154089Y-64411463D01*
X123061185Y-64585273D01*
X123003976Y-64773866D01*
X122984659Y-64970000D01*
X123003976Y-65166133D01*
X123061185Y-65354726D01*
X123128779Y-65481185D01*
X123154090Y-65528538D01*
X123279117Y-65680883D01*
X123405651Y-65784727D01*
X123436152Y-65809759D01*
X123472048Y-65858159D01*
X123480890Y-65917766D01*
X123460590Y-65974502D01*
X123415941Y-66014970D01*
X123361461Y-66044090D01*
X123209117Y-66169117D01*
X123084089Y-66321463D01*
X122991185Y-66495273D01*
X122933976Y-66683866D01*
X122918925Y-66836685D01*
X122914659Y-66880000D01*
X121895187Y-66880000D01*
X121920000Y-65024000D01*
X120142000Y-62992000D01*
X120141999Y-62992000D01*
X112734932Y-62992000D01*
X112686187Y-62982017D01*
X112645290Y-62953676D01*
X112618827Y-62911539D01*
X112275895Y-61997053D01*
X112268000Y-61953514D01*
X112268000Y-61950000D01*
X126494402Y-61950000D01*
X126514738Y-62143482D01*
X126514739Y-62143485D01*
X126574855Y-62328507D01*
X126672129Y-62496992D01*
X126802308Y-62641570D01*
X126959699Y-62755921D01*
X126959700Y-62755921D01*
X126959701Y-62755922D01*
X127048564Y-62795486D01*
X127137431Y-62835052D01*
X127327724Y-62875500D01*
X127327726Y-62875500D01*
X127522274Y-62875500D01*
X127522276Y-62875500D01*
X127712568Y-62835052D01*
X127712569Y-62835051D01*
X127712571Y-62835051D01*
X127890299Y-62755922D01*
X128047692Y-62641569D01*
X128177870Y-62496992D01*
X128275144Y-62328508D01*
X128335262Y-62143482D01*
X128345087Y-62050000D01*
X144804659Y-62050000D01*
X144823976Y-62246133D01*
X144881185Y-62434726D01*
X144914467Y-62496992D01*
X144974090Y-62608538D01*
X145099117Y-62760883D01*
X145251462Y-62885910D01*
X145425273Y-62978814D01*
X145613868Y-63036024D01*
X145810000Y-63055341D01*
X145941684Y-63042371D01*
X146000086Y-63050722D01*
X146048020Y-63085119D01*
X146074633Y-63137774D01*
X146073900Y-63196768D01*
X146045987Y-63248745D01*
X145997129Y-63303007D01*
X145899855Y-63471492D01*
X145843813Y-63643976D01*
X145839738Y-63656518D01*
X145819402Y-63850000D01*
X145839738Y-64043482D01*
X145839739Y-64043485D01*
X145899855Y-64228507D01*
X145997129Y-64396992D01*
X146127308Y-64541570D01*
X146284699Y-64655921D01*
X146462431Y-64735052D01*
X146652724Y-64775500D01*
X146652726Y-64775500D01*
X146847274Y-64775500D01*
X146847276Y-64775500D01*
X147037568Y-64735052D01*
X147037569Y-64735051D01*
X147037571Y-64735051D01*
X147215299Y-64655922D01*
X147312539Y-64585273D01*
X147372691Y-64541570D01*
X147453865Y-64451418D01*
X147502870Y-64396992D01*
X147600144Y-64228508D01*
X147660262Y-64043482D01*
X147680598Y-63850000D01*
X147660262Y-63656518D01*
X147600144Y-63471492D01*
X147583944Y-63443433D01*
X147502870Y-63303007D01*
X147372691Y-63158429D01*
X147215300Y-63044078D01*
X147037568Y-62964947D01*
X146847276Y-62924500D01*
X146847274Y-62924500D01*
X146652726Y-62924500D01*
X146648781Y-62924500D01*
X146582441Y-62905262D01*
X146536686Y-62853516D01*
X146525714Y-62785320D01*
X146552926Y-62721837D01*
X146645910Y-62608538D01*
X146738814Y-62434727D01*
X146796024Y-62246132D01*
X146815341Y-62050000D01*
X146796024Y-61853868D01*
X146738814Y-61665273D01*
X146645910Y-61491462D01*
X146520883Y-61339117D01*
X146368538Y-61214090D01*
X146307497Y-61181463D01*
X146194726Y-61121185D01*
X146006133Y-61063976D01*
X145810000Y-61044659D01*
X145613866Y-61063976D01*
X145425273Y-61121185D01*
X145251463Y-61214089D01*
X145099117Y-61339117D01*
X144974089Y-61491463D01*
X144881185Y-61665273D01*
X144823976Y-61853866D01*
X144804659Y-62050000D01*
X128345087Y-62050000D01*
X128355598Y-61950000D01*
X128335262Y-61756518D01*
X128275144Y-61571492D01*
X128259194Y-61543866D01*
X128177870Y-61403007D01*
X128047691Y-61258429D01*
X127890300Y-61144078D01*
X127712568Y-61064947D01*
X127522276Y-61024500D01*
X127522274Y-61024500D01*
X127327726Y-61024500D01*
X127327724Y-61024500D01*
X127137431Y-61064947D01*
X126959699Y-61144078D01*
X126802308Y-61258429D01*
X126672129Y-61403007D01*
X126574855Y-61571492D01*
X126535875Y-61691463D01*
X126514738Y-61756518D01*
X126494402Y-61950000D01*
X112268000Y-61950000D01*
X112268000Y-60174999D01*
X114994659Y-60174999D01*
X115013976Y-60371133D01*
X115071185Y-60559726D01*
X115124149Y-60658814D01*
X115164090Y-60733538D01*
X115289117Y-60885883D01*
X115441462Y-61010910D01*
X115615273Y-61103814D01*
X115803868Y-61161024D01*
X116000000Y-61180341D01*
X116196132Y-61161024D01*
X116384727Y-61103814D01*
X116558538Y-61010910D01*
X116710883Y-60885883D01*
X116835910Y-60733538D01*
X116901942Y-60610000D01*
X152054659Y-60610000D01*
X152073976Y-60806133D01*
X152131185Y-60994726D01*
X152157875Y-61044659D01*
X152224090Y-61168538D01*
X152349117Y-61320883D01*
X152385280Y-61350561D01*
X152418708Y-61393394D01*
X152430614Y-61446408D01*
X152418712Y-61499423D01*
X152395791Y-61528796D01*
X152396864Y-61529677D01*
X152264089Y-61691462D01*
X152171185Y-61865273D01*
X152113976Y-62053866D01*
X152094659Y-62250000D01*
X152113976Y-62446133D01*
X152171185Y-62634726D01*
X152264089Y-62808537D01*
X152379867Y-62949612D01*
X152404775Y-63000119D01*
X152404775Y-63056434D01*
X152379867Y-63106942D01*
X152294089Y-63211462D01*
X152201185Y-63385273D01*
X152143976Y-63573866D01*
X152124659Y-63769999D01*
X152143976Y-63966133D01*
X152201185Y-64154726D01*
X152255388Y-64256132D01*
X152294090Y-64328538D01*
X152419117Y-64480883D01*
X152571462Y-64605910D01*
X152745273Y-64698814D01*
X152933868Y-64756024D01*
X153130000Y-64775341D01*
X153326132Y-64756024D01*
X153514727Y-64698814D01*
X153688538Y-64605910D01*
X153840883Y-64480883D01*
X153965910Y-64328538D01*
X154058814Y-64154727D01*
X154090583Y-64050000D01*
X162374659Y-64050000D01*
X162393976Y-64246133D01*
X162451185Y-64434726D01*
X162506445Y-64538109D01*
X162544090Y-64608538D01*
X162669117Y-64760883D01*
X162821462Y-64885910D01*
X162995273Y-64978814D01*
X163183868Y-65036024D01*
X163380000Y-65055341D01*
X163576132Y-65036024D01*
X163764727Y-64978814D01*
X163938538Y-64885910D01*
X164090883Y-64760883D01*
X164215910Y-64608538D01*
X164308814Y-64434727D01*
X164352717Y-64290000D01*
X168799402Y-64290000D01*
X168819738Y-64483482D01*
X168819739Y-64483485D01*
X168879855Y-64668507D01*
X168977129Y-64836992D01*
X169107308Y-64981570D01*
X169264699Y-65095921D01*
X169442431Y-65175052D01*
X169632724Y-65215500D01*
X169632726Y-65215500D01*
X169827274Y-65215500D01*
X169827276Y-65215500D01*
X170017568Y-65175052D01*
X170017569Y-65175051D01*
X170017571Y-65175051D01*
X170195299Y-65095922D01*
X170352692Y-64981569D01*
X170482870Y-64836992D01*
X170580144Y-64668508D01*
X170640262Y-64483482D01*
X170660598Y-64290000D01*
X170640262Y-64096518D01*
X170580144Y-63911492D01*
X170482870Y-63743007D01*
X170352691Y-63598429D01*
X170195300Y-63484078D01*
X170017568Y-63404947D01*
X169827276Y-63364500D01*
X169827274Y-63364500D01*
X169632726Y-63364500D01*
X169632724Y-63364500D01*
X169442431Y-63404947D01*
X169264699Y-63484078D01*
X169107308Y-63598429D01*
X168977129Y-63743007D01*
X168879855Y-63911492D01*
X168823700Y-64084323D01*
X168819738Y-64096518D01*
X168799402Y-64290000D01*
X164352717Y-64290000D01*
X164366024Y-64246132D01*
X164385341Y-64050000D01*
X164366024Y-63853868D01*
X164308814Y-63665273D01*
X164215910Y-63491462D01*
X164090883Y-63339117D01*
X163938538Y-63214090D01*
X163904526Y-63195910D01*
X163764726Y-63121185D01*
X163576133Y-63063976D01*
X163380000Y-63044659D01*
X163183866Y-63063976D01*
X162995273Y-63121185D01*
X162821463Y-63214089D01*
X162669117Y-63339117D01*
X162544089Y-63491463D01*
X162451185Y-63665273D01*
X162393976Y-63853866D01*
X162374659Y-64050000D01*
X154090583Y-64050000D01*
X154116024Y-63966132D01*
X154135341Y-63770000D01*
X154116024Y-63573868D01*
X154058814Y-63385273D01*
X153965910Y-63211462D01*
X153850131Y-63070386D01*
X153825224Y-63019879D01*
X153825224Y-62963564D01*
X153850130Y-62913060D01*
X153935910Y-62808538D01*
X154028814Y-62634727D01*
X154086024Y-62446132D01*
X154105341Y-62250000D01*
X154086024Y-62053868D01*
X154028814Y-61865273D01*
X153961854Y-61740000D01*
X158854659Y-61740000D01*
X158873976Y-61936133D01*
X158931185Y-62124726D01*
X158996078Y-62246132D01*
X159024090Y-62298538D01*
X159149117Y-62450883D01*
X159301462Y-62575910D01*
X159475273Y-62668814D01*
X159663868Y-62726024D01*
X159860000Y-62745341D01*
X160056132Y-62726024D01*
X160244727Y-62668814D01*
X160418538Y-62575910D01*
X160570883Y-62450883D01*
X160695910Y-62298538D01*
X160788814Y-62124727D01*
X160846024Y-61936132D01*
X160865341Y-61740000D01*
X160846024Y-61543868D01*
X160788814Y-61355273D01*
X160695910Y-61181462D01*
X160570883Y-61029117D01*
X160418538Y-60904090D01*
X160384473Y-60885882D01*
X160244726Y-60811185D01*
X160056133Y-60753976D01*
X159860000Y-60734659D01*
X159663866Y-60753976D01*
X159475273Y-60811185D01*
X159301463Y-60904089D01*
X159149117Y-61029117D01*
X159024089Y-61181463D01*
X158931185Y-61355273D01*
X158873976Y-61543866D01*
X158854659Y-61740000D01*
X153961854Y-61740000D01*
X153935910Y-61691462D01*
X153810883Y-61539117D01*
X153774716Y-61509435D01*
X153741288Y-61466598D01*
X153729385Y-61413577D01*
X153741296Y-61360558D01*
X153764208Y-61331204D01*
X153763135Y-61330324D01*
X153858526Y-61214090D01*
X153895910Y-61168538D01*
X153988814Y-60994727D01*
X154046024Y-60806132D01*
X154065341Y-60610000D01*
X154046024Y-60413868D01*
X153988814Y-60225273D01*
X153895910Y-60051462D01*
X153770883Y-59899117D01*
X153618538Y-59774090D01*
X153574404Y-59750500D01*
X153536052Y-59730000D01*
X166474659Y-59730000D01*
X166493976Y-59926133D01*
X166551185Y-60114726D01*
X166610274Y-60225273D01*
X166644090Y-60288538D01*
X166769117Y-60440883D01*
X166921462Y-60565910D01*
X167095273Y-60658814D01*
X167283868Y-60716024D01*
X167480000Y-60735341D01*
X167676132Y-60716024D01*
X167864727Y-60658814D01*
X168038538Y-60565910D01*
X168190883Y-60440883D01*
X168315910Y-60288538D01*
X168408814Y-60114727D01*
X168466024Y-59926132D01*
X168485341Y-59730000D01*
X168466024Y-59533868D01*
X168408814Y-59345273D01*
X168315910Y-59171462D01*
X168190883Y-59019117D01*
X168038538Y-58894090D01*
X167909280Y-58825000D01*
X167864726Y-58801185D01*
X167676133Y-58743976D01*
X167480000Y-58724659D01*
X167283866Y-58743976D01*
X167095273Y-58801185D01*
X166921463Y-58894089D01*
X166769117Y-59019117D01*
X166644089Y-59171463D01*
X166551185Y-59345273D01*
X166493976Y-59533866D01*
X166474659Y-59730000D01*
X153536052Y-59730000D01*
X153444726Y-59681185D01*
X153256133Y-59623976D01*
X153060000Y-59604659D01*
X152863866Y-59623976D01*
X152675273Y-59681185D01*
X152501463Y-59774089D01*
X152349117Y-59899117D01*
X152224089Y-60051463D01*
X152131185Y-60225273D01*
X152073976Y-60413866D01*
X152054659Y-60610000D01*
X116901942Y-60610000D01*
X116928814Y-60559727D01*
X116986024Y-60371132D01*
X117005341Y-60175000D01*
X116986024Y-59978868D01*
X116928814Y-59790273D01*
X116835910Y-59616462D01*
X116710883Y-59464117D01*
X116558538Y-59339090D01*
X116536091Y-59327091D01*
X116384726Y-59246185D01*
X116196133Y-59188976D01*
X116000000Y-59169659D01*
X115803866Y-59188976D01*
X115615273Y-59246185D01*
X115441463Y-59339089D01*
X115289117Y-59464117D01*
X115164089Y-59616463D01*
X115071185Y-59790273D01*
X115013976Y-59978866D01*
X114994659Y-60174999D01*
X112268000Y-60174999D01*
X112268000Y-58825000D01*
X122694402Y-58825000D01*
X122714738Y-59018482D01*
X122714739Y-59018485D01*
X122774855Y-59203507D01*
X122872129Y-59371992D01*
X123002308Y-59516570D01*
X123159699Y-59630921D01*
X123337431Y-59710052D01*
X123527724Y-59750500D01*
X123527726Y-59750500D01*
X123722274Y-59750500D01*
X123722276Y-59750500D01*
X123912568Y-59710052D01*
X123912569Y-59710051D01*
X123912571Y-59710051D01*
X124090299Y-59630922D01*
X124247692Y-59516569D01*
X124377870Y-59371992D01*
X124475144Y-59203508D01*
X124535262Y-59018482D01*
X124555598Y-58825000D01*
X124535262Y-58631518D01*
X124531520Y-58620000D01*
X155334659Y-58620000D01*
X155353976Y-58816133D01*
X155411185Y-59004726D01*
X155492092Y-59156091D01*
X155504090Y-59178538D01*
X155629117Y-59330883D01*
X155781462Y-59455910D01*
X155955273Y-59548814D01*
X156143868Y-59606024D01*
X156340000Y-59625341D01*
X156536132Y-59606024D01*
X156724727Y-59548814D01*
X156898538Y-59455910D01*
X157050883Y-59330883D01*
X157175910Y-59178538D01*
X157268814Y-59004727D01*
X157326024Y-58816132D01*
X157345341Y-58620000D01*
X157326024Y-58423868D01*
X157268814Y-58235273D01*
X157175910Y-58061462D01*
X157050883Y-57909117D01*
X156898538Y-57784090D01*
X156798993Y-57730882D01*
X156724726Y-57691185D01*
X156536133Y-57633976D01*
X156340000Y-57614659D01*
X156143866Y-57633976D01*
X155955273Y-57691185D01*
X155781463Y-57784089D01*
X155629117Y-57909117D01*
X155504089Y-58061463D01*
X155411185Y-58235273D01*
X155353976Y-58423866D01*
X155334659Y-58620000D01*
X124531520Y-58620000D01*
X124475144Y-58446492D01*
X124462081Y-58423866D01*
X124377870Y-58278007D01*
X124247691Y-58133429D01*
X124090300Y-58019078D01*
X123912568Y-57939947D01*
X123722276Y-57899500D01*
X123722274Y-57899500D01*
X123527726Y-57899500D01*
X123527724Y-57899500D01*
X123337431Y-57939947D01*
X123159699Y-58019078D01*
X123002308Y-58133429D01*
X122872129Y-58278007D01*
X122774855Y-58446492D01*
X122718480Y-58620000D01*
X122714738Y-58631518D01*
X122694402Y-58825000D01*
X112268000Y-58825000D01*
X112268000Y-56625000D01*
X115019659Y-56625000D01*
X115038976Y-56821133D01*
X115096185Y-57009726D01*
X115175726Y-57158536D01*
X115189090Y-57183538D01*
X115314117Y-57335883D01*
X115466462Y-57460910D01*
X115640273Y-57553814D01*
X115828868Y-57611024D01*
X116025000Y-57630341D01*
X116221132Y-57611024D01*
X116409727Y-57553814D01*
X116583538Y-57460910D01*
X116735883Y-57335883D01*
X116860910Y-57183538D01*
X116953814Y-57009727D01*
X117011024Y-56821132D01*
X117030341Y-56625000D01*
X117027879Y-56600000D01*
X121319659Y-56600000D01*
X121338976Y-56796133D01*
X121396185Y-56984726D01*
X121436274Y-57059726D01*
X121489090Y-57158538D01*
X121614117Y-57310883D01*
X121766462Y-57435910D01*
X121940273Y-57528814D01*
X122128868Y-57586024D01*
X122325000Y-57605341D01*
X122521132Y-57586024D01*
X122709727Y-57528814D01*
X122883538Y-57435910D01*
X123035883Y-57310883D01*
X123160910Y-57158538D01*
X123253814Y-56984727D01*
X123311024Y-56796132D01*
X123322954Y-56675000D01*
X126294659Y-56675000D01*
X126313976Y-56871133D01*
X126371185Y-57059726D01*
X126437363Y-57183536D01*
X126464090Y-57233538D01*
X126589117Y-57385883D01*
X126741462Y-57510910D01*
X126915273Y-57603814D01*
X127103868Y-57661024D01*
X127300000Y-57680341D01*
X127496132Y-57661024D01*
X127684727Y-57603814D01*
X127858538Y-57510910D01*
X128010883Y-57385883D01*
X128135910Y-57233538D01*
X128228814Y-57059727D01*
X128286024Y-56871132D01*
X128305341Y-56675000D01*
X128303864Y-56660000D01*
X135934659Y-56660000D01*
X135953976Y-56856133D01*
X136011185Y-57044726D01*
X136072018Y-57158536D01*
X136104090Y-57218538D01*
X136229117Y-57370883D01*
X136381462Y-57495910D01*
X136555273Y-57588814D01*
X136743868Y-57646024D01*
X136940000Y-57665341D01*
X137136132Y-57646024D01*
X137324727Y-57588814D01*
X137498538Y-57495910D01*
X137650883Y-57370883D01*
X137775910Y-57218538D01*
X137868814Y-57044727D01*
X137876315Y-57019999D01*
X163674659Y-57019999D01*
X163693976Y-57216133D01*
X163751185Y-57404726D01*
X163781216Y-57460910D01*
X163844090Y-57578538D01*
X163969117Y-57730883D01*
X164121462Y-57855910D01*
X164295273Y-57948814D01*
X164483868Y-58006024D01*
X164680000Y-58025341D01*
X164876132Y-58006024D01*
X165064727Y-57948814D01*
X165238538Y-57855910D01*
X165390883Y-57730883D01*
X165515910Y-57578538D01*
X165608814Y-57404727D01*
X165666024Y-57216132D01*
X165685341Y-57020000D01*
X165666024Y-56823868D01*
X165608814Y-56635273D01*
X165515910Y-56461462D01*
X165390883Y-56309117D01*
X165238538Y-56184090D01*
X165112017Y-56116463D01*
X165064726Y-56091185D01*
X164876133Y-56033976D01*
X164680000Y-56014659D01*
X164483866Y-56033976D01*
X164295273Y-56091185D01*
X164121463Y-56184089D01*
X163969117Y-56309117D01*
X163844089Y-56461463D01*
X163751185Y-56635273D01*
X163693976Y-56823866D01*
X163674659Y-57019999D01*
X137876315Y-57019999D01*
X137926024Y-56856132D01*
X137945341Y-56660000D01*
X137926024Y-56463868D01*
X137868814Y-56275273D01*
X137775910Y-56101462D01*
X137650883Y-55949117D01*
X137498538Y-55824090D01*
X137476091Y-55812091D01*
X137324726Y-55731185D01*
X137136133Y-55673976D01*
X136940000Y-55654659D01*
X136743866Y-55673976D01*
X136555273Y-55731185D01*
X136381463Y-55824089D01*
X136229117Y-55949117D01*
X136104089Y-56101463D01*
X136011185Y-56275273D01*
X135953976Y-56463866D01*
X135934659Y-56660000D01*
X128303864Y-56660000D01*
X128286024Y-56478868D01*
X128228814Y-56290273D01*
X128135910Y-56116462D01*
X128010883Y-55964117D01*
X127858538Y-55839090D01*
X127830473Y-55824089D01*
X127684726Y-55746185D01*
X127496133Y-55688976D01*
X127300000Y-55669659D01*
X127103866Y-55688976D01*
X126915273Y-55746185D01*
X126741463Y-55839089D01*
X126589117Y-55964117D01*
X126464089Y-56116463D01*
X126371185Y-56290273D01*
X126313976Y-56478866D01*
X126294659Y-56675000D01*
X123322954Y-56675000D01*
X123330341Y-56600000D01*
X123311024Y-56403868D01*
X123253814Y-56215273D01*
X123160910Y-56041462D01*
X123035883Y-55889117D01*
X122883538Y-55764090D01*
X122743010Y-55688976D01*
X122709726Y-55671185D01*
X122521133Y-55613976D01*
X122325000Y-55594659D01*
X122128866Y-55613976D01*
X121940273Y-55671185D01*
X121766463Y-55764089D01*
X121614117Y-55889117D01*
X121489089Y-56041463D01*
X121396185Y-56215273D01*
X121338976Y-56403866D01*
X121319659Y-56600000D01*
X117027879Y-56600000D01*
X117011024Y-56428868D01*
X116953814Y-56240273D01*
X116860910Y-56066462D01*
X116735883Y-55914117D01*
X116583538Y-55789090D01*
X116536766Y-55764090D01*
X116409726Y-55696185D01*
X116221133Y-55638976D01*
X116025000Y-55619659D01*
X115828866Y-55638976D01*
X115640273Y-55696185D01*
X115466463Y-55789089D01*
X115314117Y-55914117D01*
X115189089Y-56066463D01*
X115096185Y-56240273D01*
X115038976Y-56428866D01*
X115019659Y-56625000D01*
X112268000Y-56625000D01*
X112268000Y-54150234D01*
X112276435Y-54105281D01*
X112300593Y-54066444D01*
X112365833Y-53995273D01*
X113736500Y-52499999D01*
X114644659Y-52499999D01*
X114663976Y-52696133D01*
X114721185Y-52884726D01*
X114721186Y-52884727D01*
X114814090Y-53058538D01*
X114939117Y-53210883D01*
X115091462Y-53335910D01*
X115265273Y-53428814D01*
X115453868Y-53486024D01*
X115650000Y-53505341D01*
X115846132Y-53486024D01*
X116034727Y-53428814D01*
X116208538Y-53335910D01*
X116360883Y-53210883D01*
X116485910Y-53058538D01*
X116578814Y-52884727D01*
X116636024Y-52696132D01*
X116655341Y-52500000D01*
X116636024Y-52303868D01*
X116578814Y-52115273D01*
X116485910Y-51941462D01*
X116360883Y-51789117D01*
X116208538Y-51664090D01*
X116039934Y-51573969D01*
X116034726Y-51571185D01*
X115846133Y-51513976D01*
X115748065Y-51504317D01*
X115650000Y-51494659D01*
X115649999Y-51494659D01*
X115453866Y-51513976D01*
X115265273Y-51571185D01*
X115091463Y-51664089D01*
X114939117Y-51789117D01*
X114814089Y-51941463D01*
X114721185Y-52115273D01*
X114663976Y-52303866D01*
X114644659Y-52499999D01*
X113736500Y-52499999D01*
X115025443Y-51093879D01*
X115066576Y-51064319D01*
X115116097Y-51053672D01*
X124821120Y-50994853D01*
X124874047Y-51006364D01*
X124917021Y-51039339D01*
X124941836Y-51087486D01*
X124991928Y-51279088D01*
X125091745Y-51513976D01*
X125097871Y-51528392D01*
X125238982Y-51759611D01*
X125412252Y-51967818D01*
X125427074Y-51981098D01*
X125463443Y-52013685D01*
X125497665Y-52064874D01*
X125503043Y-52126215D01*
X125478251Y-52182580D01*
X125429403Y-52220069D01*
X125368544Y-52229439D01*
X125320001Y-52224658D01*
X125123866Y-52243976D01*
X124935273Y-52301185D01*
X124761463Y-52394089D01*
X124609117Y-52519117D01*
X124484089Y-52671463D01*
X124391185Y-52845273D01*
X124333976Y-53033866D01*
X124314659Y-53230000D01*
X124333976Y-53426133D01*
X124391185Y-53614726D01*
X124463963Y-53750883D01*
X124484090Y-53788538D01*
X124609117Y-53940883D01*
X124761462Y-54065910D01*
X124935273Y-54158814D01*
X125123868Y-54216024D01*
X125320000Y-54235341D01*
X125516132Y-54216024D01*
X125704727Y-54158814D01*
X125878538Y-54065910D01*
X126030883Y-53940883D01*
X126155910Y-53788538D01*
X126248814Y-53614727D01*
X126306024Y-53426132D01*
X126317462Y-53310000D01*
X130794659Y-53310000D01*
X130813976Y-53506133D01*
X130871185Y-53694726D01*
X130921328Y-53788536D01*
X130964090Y-53868538D01*
X131089117Y-54020883D01*
X131241462Y-54145910D01*
X131415273Y-54238814D01*
X131603868Y-54296024D01*
X131800000Y-54315341D01*
X131996132Y-54296024D01*
X132184727Y-54238814D01*
X132358538Y-54145910D01*
X132510883Y-54020883D01*
X132635910Y-53868538D01*
X132728814Y-53694727D01*
X132786024Y-53506132D01*
X132805341Y-53310000D01*
X132786024Y-53113868D01*
X132728814Y-52925273D01*
X132635910Y-52751462D01*
X132510883Y-52599117D01*
X132358538Y-52474090D01*
X132326153Y-52456780D01*
X132184726Y-52381185D01*
X131996133Y-52323976D01*
X131898066Y-52314317D01*
X131800000Y-52304659D01*
X131799999Y-52304659D01*
X131603866Y-52323976D01*
X131415273Y-52381185D01*
X131241463Y-52474089D01*
X131089117Y-52599117D01*
X130964089Y-52751463D01*
X130871185Y-52925273D01*
X130813976Y-53113866D01*
X130794659Y-53310000D01*
X126317462Y-53310000D01*
X126325341Y-53230000D01*
X126306024Y-53033868D01*
X126248814Y-52845273D01*
X126155910Y-52671462D01*
X126155724Y-52671236D01*
X126155316Y-52670351D01*
X126150153Y-52660691D01*
X126150720Y-52660387D01*
X126129520Y-52614428D01*
X126134386Y-52552054D01*
X126169085Y-52499995D01*
X126224784Y-52471503D01*
X126287302Y-52473830D01*
X126344569Y-52491060D01*
X126612561Y-52530500D01*
X126815631Y-52530500D01*
X126815634Y-52530500D01*
X127018156Y-52515677D01*
X127018155Y-52515677D01*
X127282553Y-52456780D01*
X127535558Y-52360014D01*
X127771777Y-52227441D01*
X127986177Y-52061888D01*
X128174186Y-51866881D01*
X128331799Y-51646579D01*
X128455656Y-51405675D01*
X128543118Y-51149305D01*
X128557222Y-51072946D01*
X128579946Y-51021089D01*
X128623359Y-50984737D01*
X128678401Y-50971476D01*
X128728753Y-50971171D01*
X128791066Y-50987531D01*
G37*
%TD.AperFunction*%
%TD*%
M02*
